Coconat-Bold.ufo
<glyph name="exclam" format="2">
  <advance width="340"/>
  <unicode hex="0021"/>
  <outline>
    <contour>
      <point x="89" y="193" type="curve"/>
      <point x="251" y="193" type="line"/>
      <point x="254" y="373"/>
      <point x="273" y="530"/>
      <point x="290" y="701" type="curve"/>
      <point x="50" y="701" type="line"/>
      <point x="67" y="530"/>
      <point x="86" y="373"/>
    </contour>
    <component base="period" xOffset="19"/>
  </outline>
</glyph>
<glyph name="quotedbl" format="2">
  <advance width="576"/>
  <unicode hex="0022"/>
  <outline>
    <contour>
      <point x="61" y="466" type="curve"/>
      <point x="244" y="466" type="line"/>
      <point x="244" y="524"/>
      <point x="245" y="623"/>
      <point x="252" y="699" type="curve"/>
      <point x="50" y="699" type="line"/>
      <point x="57" y="623"/>
      <point x="61" y="524"/>
    </contour>
    <contour>
      <point x="335" y="466" type="curve"/>
      <point x="518" y="466" type="line"/>
      <point x="519" y="523"/>
      <point x="521" y="622"/>
      <point x="526" y="699" type="curve"/>
      <point x="323" y="699" type="line"/>
      <point x="330" y="623"/>
      <point x="335" y="524"/>
    </contour>
  </outline>
</glyph>
<glyph name="numbersign" format="2">
  <advance width="825"/>
  <unicode hex="0023"/>
  <outline>
    <contour>
      <point x="305" y="700" type="line"/>
      <point x="293" y="655"/>
      <point x="284" y="624"/>
      <point x="266" y="560" type="curve" smooth="yes"/>
      <point x="171" y="214" type="line" smooth="yes"/>
      <point x="153" y="147"/>
      <point x="131" y="75"/>
      <point x="105" y="0" type="curve"/>
      <point x="178" y="0" type="line"/>
      <point x="186" y="45"/>
      <point x="201" y="94"/>
      <point x="212" y="140" type="curve"/>
      <point x="311" y="488" type="line" smooth="yes"/>
      <point x="324" y="535"/>
      <point x="356" y="644"/>
      <point x="375" y="700" type="curve"/>
    </contour>
    <contour>
      <point x="515" y="449" type="line" smooth="yes"/>
      <point x="604" y="449"/>
      <point x="675" y="449"/>
      <point x="761" y="444" type="curve"/>
      <point x="775" y="511" type="line"/>
      <point x="689" y="507"/>
      <point x="604" y="507"/>
      <point x="515" y="507" type="curve" smooth="yes"/>
      <point x="382" y="507" type="line" smooth="yes"/>
      <point x="294" y="507"/>
      <point x="209" y="507"/>
      <point x="123" y="511" type="curve"/>
      <point x="109" y="444" type="line"/>
      <point x="195" y="449"/>
      <point x="294" y="449"/>
      <point x="382" y="449" type="curve" smooth="yes"/>
    </contour>
    <contour>
      <point x="635" y="700" type="line"/>
      <point x="623" y="655"/>
      <point x="614" y="624"/>
      <point x="596" y="560" type="curve" smooth="yes"/>
      <point x="501" y="214" type="line" smooth="yes"/>
      <point x="483" y="147"/>
      <point x="461" y="75"/>
      <point x="435" y="0" type="curve"/>
      <point x="508" y="0" type="line"/>
      <point x="516" y="45"/>
      <point x="531" y="94"/>
      <point x="542" y="140" type="curve"/>
      <point x="641" y="488" type="line" smooth="yes"/>
      <point x="654" y="535"/>
      <point x="686" y="644"/>
      <point x="705" y="700" type="curve"/>
    </contour>
    <contour>
      <point x="457" y="179" type="line" smooth="yes"/>
      <point x="545" y="179"/>
      <point x="616" y="179"/>
      <point x="702" y="174" type="curve"/>
      <point x="716" y="241" type="line"/>
      <point x="630" y="237"/>
      <point x="545" y="237"/>
      <point x="457" y="237" type="curve" smooth="yes"/>
      <point x="324" y="237" type="line" smooth="yes"/>
      <point x="235" y="237"/>
      <point x="150" y="237"/>
      <point x="64" y="241" type="curve"/>
      <point x="50" y="174" type="line"/>
      <point x="136" y="179"/>
      <point x="235" y="179"/>
      <point x="324" y="179" type="curve" smooth="yes"/>
    </contour>
  </outline>
</glyph>
<glyph name="dollar" format="2">
  <advance width="1040"/>
  <unicode hex="0024"/>
  <outline>
    <component base="S"/>
    <contour>
      <point x="563" y="807" type="line"/>
      <point x="563" y="-91" type="line"/>
      <point x="599" y="-91" type="line"/>
      <point x="599" y="807" type="line"/>
    </contour>
  </outline>
</glyph>
<glyph name="percent" format="2">
  <advance width="871"/>
  <unicode hex="0025"/>
  <outline>
    <contour>
      <point x="140" y="0" type="line"/>
      <point x="161" y="29"/>
      <point x="201" y="73"/>
      <point x="225" y="97" type="qcurve" smooth="yes"/>
      <point x="692" y="574" type="line" smooth="yes"/>
      <point x="716" y="598"/>
      <point x="767" y="650"/>
      <point x="801" y="676" type="qcurve"/>
      <point x="738" y="676" type="line"/>
      <point x="720" y="652"/>
      <point x="670" y="598"/>
      <point x="646" y="574" type="qcurve" smooth="yes"/>
      <point x="179" y="97" type="line" smooth="yes"/>
      <point x="155" y="73"/>
      <point x="107" y="26"/>
      <point x="70" y="0" type="qcurve"/>
    </contour>
    <component base="degree" xOffset="424" yOffset="-350"/>
    <component base="degree" xOffset="15" yOffset="-50"/>
  </outline>
</glyph>
<glyph name="ampersand" format="2">
  <advance width="1121"/>
  <unicode hex="0026"/>
  <outline>
    <contour>
      <point x="1061" y="0" type="line"/>
      <point x="972" y="51"/>
      <point x="947" y="68"/>
      <point x="845" y="134" type="curve"/>
      <point x="715" y="226"/>
      <point x="585" y="317"/>
      <point x="455" y="409" type="curve"/>
      <point x="377" y="473"/>
      <point x="365" y="505"/>
      <point x="365" y="566" type="curve" smooth="yes"/>
      <point x="365" y="616"/>
      <point x="436" y="665"/>
      <point x="491" y="665" type="curve" smooth="yes"/>
      <point x="567" y="665"/>
      <point x="686" y="610"/>
      <point x="744" y="432" type="curve"/>
      <point x="813" y="647" type="line"/>
      <point x="716" y="682"/>
      <point x="649" y="711"/>
      <point x="505" y="711" type="curve" smooth="yes"/>
      <point x="320" y="711"/>
      <point x="190" y="641"/>
      <point x="190" y="560" type="curve" smooth="yes"/>
      <point x="190" y="479"/>
      <point x="272" y="432"/>
      <point x="340" y="399" type="curve"/>
      <point x="208" y="377"/>
      <point x="70" y="294"/>
      <point x="70" y="192" type="curve" smooth="yes"/>
      <point x="70" y="91"/>
      <point x="188" y="-11"/>
      <point x="501" y="-11" type="curve" smooth="yes"/>
      <point x="773" y="-11"/>
      <point x="1054" y="119"/>
      <point x="1057" y="416" type="curve"/>
      <point x="823" y="298" type="line"/>
      <point x="850" y="157"/>
      <point x="753" y="34"/>
      <point x="516" y="34" type="curve" smooth="yes"/>
      <point x="384" y="34"/>
      <point x="279" y="129"/>
      <point x="279" y="222" type="curve" smooth="yes"/>
      <point x="279" y="303"/>
      <point x="333" y="346"/>
      <point x="393" y="364" type="curve"/>
      <point x="783" y="91" type="line"/>
      <point x="817" y="64"/>
      <point x="886" y="21"/>
      <point x="892" y="2" type="curve"/>
    </contour>
  </outline>
</glyph>
<glyph name="quotesingle" format="2">
  <advance width="313"/>
  <unicode hex="0027"/>
  <outline>
    <contour>
      <point x="72" y="466" type="curve"/>
      <point x="255" y="466" type="line"/>
      <point x="256" y="523"/>
      <point x="258" y="622"/>
      <point x="263" y="699" type="curve"/>
      <point x="60" y="699" type="line"/>
      <point x="67" y="623"/>
      <point x="72" y="524"/>
    </contour>
  </outline>
</glyph>
<glyph name="parenleft" format="2">
  <advance width="569"/>
  <unicode hex="0028"/>
  <outline>
    <contour>
      <point x="90" y="263" type="curve" smooth="yes"/>
      <point x="91" y="-2"/>
      <point x="318" y="-175"/>
      <point x="527" y="-218" type="curve"/>
      <point x="540" y="-185" type="line"/>
      <point x="372" y="-117"/>
      <point x="290" y="65"/>
      <point x="290" y="263" type="curve" smooth="yes"/>
      <point x="290" y="461"/>
      <point x="372" y="643"/>
      <point x="540" y="711" type="curve"/>
      <point x="527" y="744" type="line"/>
      <point x="318" y="701"/>
      <point x="91" y="528"/>
    </contour>
  </outline>
</glyph>
<glyph name="asterisk" format="2">
  <advance width="487"/>
  <unicode hex="002A"/>
  <outline>
    <contour>
      <point x="60" y="532" type="line"/>
      <point x="106" y="532"/>
      <point x="137" y="523"/>
      <point x="191" y="513" type="curve"/>
      <point x="156" y="470"/>
      <point x="137" y="443"/>
      <point x="101" y="415" type="curve"/>
      <point x="189" y="356" type="line"/>
      <point x="201" y="400"/>
      <point x="219" y="424"/>
      <point x="245" y="472" type="curve"/>
      <point x="272" y="424"/>
      <point x="289" y="400"/>
      <point x="302" y="356" type="curve"/>
      <point x="389" y="416" type="line"/>
      <point x="353" y="443"/>
      <point x="333" y="470"/>
      <point x="298" y="513" type="curve"/>
      <point x="352" y="522"/>
      <point x="381" y="532"/>
      <point x="427" y="532" type="curve"/>
      <point x="396" y="632" type="line"/>
      <point x="359" y="606"/>
      <point x="328" y="596"/>
      <point x="276" y="574" type="curve"/>
      <point x="282" y="630"/>
      <point x="282" y="662"/>
      <point x="296" y="706" type="curve"/>
      <point x="191" y="706" type="line"/>
      <point x="205" y="662"/>
      <point x="205" y="630"/>
      <point x="211" y="574" type="curve"/>
      <point x="159" y="596"/>
      <point x="128" y="606"/>
      <point x="91" y="632" type="curve"/>
    </contour>
  </outline>
</glyph>
<glyph name="plus" format="2">
  <advance width="932"/>
  <unicode hex="002B"/>
  <outline>
    <contour>
      <point x="443" y="526" type="line"/>
      <point x="443" y="34" type="line"/>
      <point x="489" y="34" type="line"/>
      <point x="489" y="526" type="line"/>
    </contour>
    <contour>
      <point x="872" y="303" type="line"/>
      <point x="60" y="303" type="line"/>
      <point x="60" y="257" type="line"/>
      <point x="872" y="257" type="line"/>
    </contour>
  </outline>
</glyph>
<glyph name="comma" format="2">
  <advance width="250"/>
  <unicode hex="002C"/>
  <outline>
    <contour>
      <point x="46" y="-239" type="curve"/>
      <point x="53" y="-241" type="line"/>
      <point x="185" y="-184"/>
      <point x="232" y="-110"/>
      <point x="232" y="-32" type="curve" smooth="yes"/>
      <point x="232" y="49"/>
      <point x="166" y="103"/>
      <point x="133" y="124" type="curve"/>
      <point x="20" y="27" type="line"/>
      <point x="59" y="2"/>
      <point x="78" y="-16"/>
      <point x="95" y="-46" type="curve" smooth="yes"/>
      <point x="128" y="-104"/>
      <point x="114" y="-186"/>
    </contour>
  </outline>
</glyph>
<glyph name="hyphen" format="2">
  <advance width="513"/>
  <unicode hex="002D"/>
  <outline>
    <contour>
      <point x="45" y="321" type="line"/>
      <point x="45" y="265" type="line"/>
      <point x="468" y="265" type="line"/>
      <point x="468" y="321" type="line"/>
    </contour>
  </outline>
</glyph>
<glyph name="period" format="2">
  <advance width="303"/>
  <unicode hex="002E"/>
  <outline>
    <contour>
      <point x="152" y="-11" type="curve" smooth="yes"/>
      <point x="216" y="-11"/>
      <point x="268" y="23"/>
      <point x="268" y="66" type="curve" smooth="yes"/>
      <point x="268" y="108"/>
      <point x="216" y="142"/>
      <point x="152" y="142" type="curve" smooth="yes"/>
      <point x="87" y="142"/>
      <point x="35" y="108"/>
      <point x="35" y="66" type="curve" smooth="yes"/>
      <point x="35" y="23"/>
      <point x="87" y="-11"/>
    </contour>
  </outline>
</glyph>
<glyph name="slash" format="2">
  <advance width="605"/>
  <unicode hex="002F"/>
  <outline>
    <contour>
      <point x="67" y="-183" type="line"/>
      <point x="75" y="-166"/>
      <point x="90" y="-134"/>
      <point x="106" y="-106" type="qcurve" smooth="yes"/>
      <point x="527" y="621" type="line" smooth="yes"/>
      <point x="569" y="694"/>
      <point x="592" y="729"/>
      <point x="605" y="746" type="qcurve"/>
      <point x="541" y="746" type="line"/>
      <point x="527" y="712"/>
      <point x="509" y="679"/>
      <point x="480" y="629" type="qcurve" smooth="yes"/>
      <point x="339" y="387"/>
      <point x="199" y="144"/>
      <point x="58" y="-98" type="curve" smooth="yes"/>
      <point x="42" y="-125"/>
      <point x="15" y="-163"/>
      <point x="0" y="-183" type="qcurve"/>
    </contour>
  </outline>
</glyph>
<glyph name="zero" format="2">
  <advance width="1108"/>
  <unicode hex="0030"/>
  <outline>
    <contour>
      <point x="551" y="-17" type="curve" smooth="yes"/>
      <point x="858" y="-17"/>
      <point x="1053" y="174"/>
      <point x="1053" y="364" type="curve" smooth="yes"/>
      <point x="1053" y="560"/>
      <point x="872" y="728"/>
      <point x="557" y="728" type="curve" smooth="yes"/>
      <point x="250" y="728"/>
      <point x="55" y="528"/>
      <point x="55" y="338" type="curve" smooth="yes"/>
      <point x="55" y="142"/>
      <point x="236" y="-17"/>
    </contour>
    <contour>
      <point x="604" y="33" type="curve" smooth="yes"/>
      <point x="446" y="33"/>
      <point x="275" y="174"/>
      <point x="275" y="394" type="curve" smooth="yes"/>
      <point x="275" y="572"/>
      <point x="370" y="679"/>
      <point x="514" y="679" type="curve" smooth="yes"/>
      <point x="672" y="679"/>
      <point x="833" y="517"/>
      <point x="833" y="308" type="curve" smooth="yes"/>
      <point x="833" y="139"/>
      <point x="758" y="33"/>
    </contour>
  </outline>
</glyph>
<glyph name="one" format="2">
  <advance width="543"/>
  <unicode hex="0031"/>
  <outline>
    <contour>
      <point x="166" y="0" type="curve"/>
      <point x="443" y="0" type="line"/>
      <point x="443" y="0"/>
      <point x="413" y="38"/>
      <point x="413" y="169" type="curve"/>
      <point x="412" y="496" type="line" smooth="yes"/>
      <point x="412" y="623"/>
      <point x="416" y="671"/>
      <point x="424" y="720" type="curve"/>
      <point x="401" y="720" type="line"/>
      <point x="318" y="636"/>
      <point x="195" y="525"/>
      <point x="65" y="497" type="curve"/>
      <point x="65" y="483" type="line"/>
      <point x="106" y="480"/>
      <point x="171" y="491"/>
      <point x="195" y="499" type="curve"/>
      <point x="193" y="478" type="line"/>
      <point x="192" y="169" type="line"/>
      <point x="192" y="38"/>
      <point x="166" y="0"/>
    </contour>
  </outline>
</glyph>
<glyph name="two" format="2">
  <advance width="969"/>
  <unicode hex="0032"/>
  <outline>
    <contour>
      <point x="40" y="-1" type="curve"/>
      <point x="861" y="-1" type="line"/>
      <point x="929" y="221" type="line"/>
      <point x="921" y="224" type="line"/>
      <point x="867" y="133"/>
      <point x="458" y="133"/>
      <point x="313" y="138" type="curve"/>
      <point x="365" y="178"/>
      <point x="463" y="231"/>
      <point x="513" y="258" type="curve"/>
      <point x="643" y="325" type="line"/>
      <point x="766" y="388"/>
      <point x="873" y="450"/>
      <point x="873" y="548" type="curve" smooth="yes"/>
      <point x="873" y="656"/>
      <point x="748" y="720"/>
      <point x="515" y="720" type="curve" smooth="yes"/>
      <point x="386" y="720"/>
      <point x="266" y="690"/>
      <point x="109" y="629" type="curve"/>
      <point x="140" y="405" type="line"/>
      <point x="149" y="402" type="line"/>
      <point x="271" y="626"/>
      <point x="401" y="676"/>
      <point x="489" y="674" type="curve" smooth="yes"/>
      <point x="594" y="672"/>
      <point x="641" y="628"/>
      <point x="641" y="549" type="curve" smooth="yes"/>
      <point x="641" y="421"/>
      <point x="492" y="327"/>
    </contour>
  </outline>
</glyph>
<glyph name="three" format="2">
  <advance width="981"/>
  <unicode hex="0033"/>
  <outline>
    <contour>
      <point x="105" y="497" type="line"/>
      <point x="117" y="494" type="line"/>
      <point x="181" y="580"/>
      <point x="436" y="597"/>
      <point x="616" y="571" type="curve"/>
      <point x="310" y="338" type="line"/>
      <point x="320" y="328" type="line"/>
      <point x="591" y="358"/>
      <point x="698" y="285"/>
      <point x="698" y="201" type="curve" smooth="yes"/>
      <point x="698" y="105"/>
      <point x="660" y="34"/>
      <point x="472" y="34" type="curve" smooth="yes"/>
      <point x="337" y="34"/>
      <point x="131" y="140"/>
      <point x="89" y="295" type="curve"/>
      <point x="81" y="295" type="line"/>
      <point x="50" y="88" type="line"/>
      <point x="103" y="60"/>
      <point x="244" y="-14"/>
      <point x="444" y="-14" type="curve" smooth="yes"/>
      <point x="710" y="-14"/>
      <point x="931" y="83"/>
      <point x="931" y="217" type="curve" smooth="yes"/>
      <point x="931" y="387"/>
      <point x="700" y="415"/>
      <point x="470" y="386" type="curve"/>
      <point x="899" y="700" type="line"/>
      <point x="159" y="700" type="line"/>
    </contour>
  </outline>
</glyph>
<glyph name="four" format="2">
  <advance width="1007"/>
  <unicode hex="0034"/>
  <outline>
    <contour>
      <point x="605" y="712" type="line"/>
      <point x="0" y="173" type="line"/>
      <point x="605" y="173" type="line"/>
      <point x="605" y="166" type="line" smooth="yes"/>
      <point x="605" y="29"/>
      <point x="575" y="0"/>
      <point x="575" y="0" type="curve"/>
      <point x="852" y="0" type="line"/>
      <point x="852" y="0"/>
      <point x="825" y="32"/>
      <point x="825" y="169" type="curve" smooth="yes"/>
      <point x="825" y="173" type="line"/>
      <point x="872" y="173"/>
      <point x="920" y="173"/>
      <point x="967" y="163" type="curve"/>
      <point x="967" y="241" type="line"/>
      <point x="920" y="231"/>
      <point x="872" y="231"/>
      <point x="825" y="231" type="curve"/>
      <point x="825" y="569" type="line"/>
      <point x="825" y="614"/>
      <point x="825" y="691"/>
      <point x="842" y="736" type="curve"/>
    </contour>
    <contour>
      <point x="162" y="231" type="line"/>
      <point x="595" y="613" type="line"/>
      <point x="605" y="584"/>
      <point x="605" y="556"/>
      <point x="605" y="527" type="curve"/>
      <point x="605" y="231" type="line"/>
    </contour>
  </outline>
</glyph>
<glyph name="five" format="2">
  <advance width="976"/>
  <unicode hex="0035"/>
  <outline>
    <contour>
      <point x="40" y="95" type="line"/>
      <point x="79" y="69"/>
      <point x="207" y="-14"/>
      <point x="472" y="-14" type="curve" smooth="yes"/>
      <point x="668" y="-14"/>
      <point x="926" y="63"/>
      <point x="926" y="227" type="curve" smooth="yes"/>
      <point x="926" y="392"/>
      <point x="734" y="440"/>
      <point x="472" y="440" type="curve" smooth="yes"/>
      <point x="367" y="440"/>
      <point x="266" y="422"/>
      <point x="209" y="404" type="curve"/>
      <point x="221" y="597" type="line"/>
      <point x="824" y="533" type="line"/>
      <point x="877" y="716" type="line"/>
      <point x="869" y="718" type="line"/>
      <point x="627" y="684"/>
      <point x="493" y="687"/>
      <point x="167" y="704" type="curve"/>
      <point x="139" y="339" type="line"/>
      <point x="183" y="339" type="line"/>
      <point x="417" y="426"/>
      <point x="691" y="369"/>
      <point x="691" y="201" type="curve" smooth="yes"/>
      <point x="691" y="91"/>
      <point x="621" y="34"/>
      <point x="465" y="34" type="curve" smooth="yes"/>
      <point x="340" y="34"/>
      <point x="126" y="121"/>
      <point x="82" y="295" type="curve"/>
      <point x="74" y="295" type="line"/>
    </contour>
  </outline>
</glyph>
<glyph name="six" format="2">
  <advance width="1105"/>
  <unicode hex="0036"/>
  <outline>
    <contour>
      <point x="569" y="-14" type="curve" smooth="yes"/>
      <point x="802" y="-14"/>
      <point x="1050" y="77"/>
      <point x="1050" y="241" type="curve" smooth="yes"/>
      <point x="1050" y="396"/>
      <point x="868" y="459"/>
      <point x="656" y="459" type="curve" smooth="yes"/>
      <point x="478" y="459"/>
      <point x="361" y="398"/>
      <point x="302" y="353" type="curve"/>
      <point x="356" y="570"/>
      <point x="600" y="682"/>
      <point x="822" y="716" type="curve"/>
      <point x="810" y="730" type="line"/>
      <point x="269" y="710"/>
      <point x="66" y="478"/>
      <point x="60" y="304" type="curve" smooth="yes"/>
      <point x="60" y="101"/>
      <point x="269" y="-14"/>
    </contour>
    <contour>
      <point x="583" y="37" type="curve" smooth="yes"/>
      <point x="428" y="37"/>
      <point x="282" y="105"/>
      <point x="294" y="279" type="curve"/>
      <point x="384" y="355"/>
      <point x="487" y="380"/>
      <point x="588" y="378" type="curve" smooth="yes"/>
      <point x="715" y="375"/>
      <point x="825" y="319"/>
      <point x="825" y="215" type="curve" smooth="yes"/>
      <point x="825" y="95"/>
      <point x="725" y="37"/>
    </contour>
  </outline>
</glyph>
<glyph name="seven" format="2">
  <advance width="924"/>
  <unicode hex="0037"/>
  <outline>
    <contour>
      <point x="30" y="511" type="line"/>
      <point x="36" y="509" type="line"/>
      <point x="181" y="563"/>
      <point x="472" y="581"/>
      <point x="697" y="563" type="curve"/>
      <point x="339" y="160" type="line" smooth="yes"/>
      <point x="299" y="115"/>
      <point x="253" y="71"/>
      <point x="178" y="0" type="curve"/>
      <point x="363" y="0" type="line"/>
      <point x="428" y="170"/>
      <point x="559" y="317"/>
      <point x="632" y="398" type="curve" smooth="yes"/>
      <point x="904" y="700" type="line"/>
      <point x="751" y="703"/>
      <point x="134" y="707"/>
      <point x="85" y="711" type="curve"/>
    </contour>
  </outline>
</glyph>
<glyph name="eight" format="2">
  <advance width="1076"/>
  <unicode hex="0038"/>
  <outline>
    <contour>
      <point x="563" y="312" type="line" smooth="yes"/>
      <point x="746" y="272"/>
      <point x="815" y="230"/>
      <point x="815" y="166" type="curve" smooth="yes"/>
      <point x="815" y="87"/>
      <point x="718" y="39"/>
      <point x="556" y="39" type="curve" smooth="yes"/>
      <point x="391" y="39"/>
      <point x="262" y="111"/>
      <point x="262" y="219" type="curve" smooth="yes"/>
      <point x="262" y="283"/>
      <point x="295" y="326"/>
      <point x="388" y="350" type="curve"/>
    </contour>
    <contour>
      <point x="40" y="200" type="curve" smooth="yes"/>
      <point x="40" y="110"/>
      <point x="181" y="-12"/>
      <point x="532" y="-12" type="curve" smooth="yes"/>
      <point x="847" y="-12"/>
      <point x="1036" y="93"/>
      <point x="1036" y="209" type="curve" smooth="yes"/>
      <point x="1036" y="302"/>
      <point x="919" y="367"/>
      <point x="730" y="406" type="curve"/>
      <point x="850" y="419"/>
      <point x="940" y="481"/>
      <point x="940" y="551" type="curve" smooth="yes"/>
      <point x="940" y="647"/>
      <point x="764" y="720"/>
      <point x="522" y="720" type="curve" smooth="yes"/>
      <point x="265" y="720"/>
      <point x="136" y="629"/>
      <point x="136" y="536" type="curve" smooth="yes"/>
      <point x="136" y="474"/>
      <point x="177" y="417"/>
      <point x="318" y="373" type="curve"/>
      <point x="133" y="362"/>
      <point x="40" y="267"/>
    </contour>
    <contour>
      <point x="324" y="573" type="curve" smooth="yes"/>
      <point x="324" y="625"/>
      <point x="389" y="674"/>
      <point x="504" y="674" type="curve" smooth="yes"/>
      <point x="654" y="674"/>
      <point x="761" y="614"/>
      <point x="761" y="533" type="curve" smooth="yes"/>
      <point x="761" y="485"/>
      <point x="711" y="439"/>
      <point x="652" y="420" type="curve"/>
      <point x="581" y="428"/>
      <point x="499" y="438"/>
      <point x="448" y="452" type="curve" smooth="yes"/>
      <point x="346" y="479"/>
      <point x="324" y="525"/>
    </contour>
  </outline>
</glyph>
<glyph name="nine" format="2">
  <advance width="1070"/>
  <unicode hex="0039"/>
  <outline>
    <contour>
      <point x="280" y="-14" type="line"/>
      <point x="821" y="6"/>
      <point x="1024" y="238"/>
      <point x="1030" y="412" type="curve" smooth="yes"/>
      <point x="1030" y="615"/>
      <point x="821" y="730"/>
      <point x="521" y="730" type="curve" smooth="yes"/>
      <point x="288" y="730"/>
      <point x="40" y="639"/>
      <point x="40" y="475" type="curve" smooth="yes"/>
      <point x="40" y="320"/>
      <point x="222" y="257"/>
      <point x="434" y="257" type="curve" smooth="yes"/>
      <point x="612" y="257"/>
      <point x="729" y="318"/>
      <point x="788" y="363" type="curve"/>
      <point x="734" y="146"/>
      <point x="490" y="34"/>
      <point x="268" y="0" type="curve"/>
    </contour>
    <contour>
      <point x="502" y="338" type="curve" smooth="yes"/>
      <point x="375" y="341"/>
      <point x="265" y="397"/>
      <point x="265" y="501" type="curve" smooth="yes"/>
      <point x="265" y="621"/>
      <point x="365" y="679"/>
      <point x="507" y="679" type="curve" smooth="yes"/>
      <point x="662" y="679"/>
      <point x="808" y="611"/>
      <point x="796" y="437" type="curve"/>
      <point x="706" y="361"/>
      <point x="603" y="336"/>
    </contour>
  </outline>
</glyph>
<glyph name="less" format="2">
  <advance width="920"/>
  <unicode hex="003C"/>
  <outline>
    <contour>
      <point x="850" y="467" type="line"/>
      <point x="116" y="285" type="line"/>
      <point x="850" y="101" type="line"/>
      <point x="850" y="55" type="line"/>
      <point x="70" y="262" type="line"/>
      <point x="70" y="308" type="line"/>
      <point x="850" y="513" type="line"/>
    </contour>
  </outline>
</glyph>
<glyph name="equal" format="2">
  <advance width="912"/>
  <unicode hex="003D"/>
  <outline>
    <contour>
      <point x="852" y="380" type="line"/>
      <point x="60" y="380" type="line"/>
      <point x="60" y="334" type="line"/>
      <point x="852" y="334" type="line"/>
    </contour>
    <contour>
      <point x="852" y="205" type="line"/>
      <point x="60" y="205" type="line"/>
      <point x="60" y="159" type="line"/>
      <point x="852" y="159" type="line"/>
    </contour>
  </outline>
</glyph>
<glyph name="greater" format="2">
  <advance width="920"/>
  <unicode hex="003E"/>
  <outline>
    <contour>
      <point x="70" y="467" type="line"/>
      <point x="70" y="513" type="line"/>
      <point x="850" y="308" type="line"/>
      <point x="850" y="262" type="line"/>
      <point x="70" y="55" type="line"/>
      <point x="70" y="101" type="line"/>
      <point x="804" y="285" type="line"/>
    </contour>
  </outline>
</glyph>
<glyph name="question" format="2">
  <advance width="867"/>
  <unicode hex="003F"/>
  <outline>
    <contour>
      <point x="312" y="203" type="line"/>
      <point x="297" y="321" type="line"/>
      <point x="341" y="341"/>
      <point x="373" y="355"/>
      <point x="428" y="381" type="curve" smooth="yes"/>
      <point x="483" y="407"/>
      <point x="583" y="469"/>
      <point x="583" y="539" type="curve" smooth="yes"/>
      <point x="583" y="618"/>
      <point x="527" y="672"/>
      <point x="410" y="672" type="curve" smooth="yes"/>
      <point x="299" y="672"/>
      <point x="125" y="593"/>
      <point x="65" y="404" type="curve"/>
      <point x="20" y="608" type="line"/>
      <point x="122" y="659"/>
      <point x="233" y="720"/>
      <point x="439" y="720" type="curve" smooth="yes"/>
      <point x="688" y="720"/>
      <point x="827" y="642"/>
      <point x="827" y="548" type="curve" smooth="yes"/>
      <point x="827" y="407"/>
      <point x="611" y="373"/>
      <point x="541" y="337" type="curve" smooth="yes"/>
      <point x="517" y="325"/>
      <point x="502" y="315"/>
      <point x="487" y="305" type="curve"/>
      <point x="474" y="203" type="line"/>
    </contour>
    <component base="period" xOffset="231"/>
  </outline>
</glyph>
<glyph name="at" format="2">
  <advance width="1352"/>
  <unicode hex="0040"/>
  <outline>
    <contour>
      <point x="988" y="73" type="curve"/>
      <point x="1222" y="73"/>
      <point x="1282" y="249"/>
      <point x="1282" y="320" type="curve"/>
      <point x="1282" y="605"/>
      <point x="910" y="705"/>
      <point x="676" y="705" type="curve"/>
      <point x="391" y="705"/>
      <point x="70" y="558"/>
      <point x="70" y="287" type="curve"/>
      <point x="70" y="7"/>
      <point x="378" y="-111"/>
      <point x="650" y="-111" type="curve"/>
      <point x="799" y="-111"/>
      <point x="948" y="-71"/>
      <point x="1018" y="-36" type="curve"/>
      <point x="1010" y="10" type="line"/>
      <point x="943" y="-26"/>
      <point x="794" y="-65"/>
      <point x="651" y="-65" type="curve"/>
      <point x="403" y="-65"/>
      <point x="121" y="54"/>
      <point x="121" y="286" type="curve"/>
      <point x="121" y="525"/>
      <point x="415" y="659"/>
      <point x="675" y="659" type="curve"/>
      <point x="795" y="659"/>
      <point x="1232" y="615"/>
      <point x="1232" y="321" type="curve"/>
      <point x="1232" y="195"/>
      <point x="1123" y="119"/>
      <point x="1063" y="119" type="curve"/>
      <point x="992" y="119"/>
      <point x="976" y="161"/>
      <point x="975" y="215" type="curve"/>
      <point x="977" y="309"/>
      <point x="975" y="460"/>
      <point x="990" y="496" type="curve"/>
      <point x="785" y="453" type="line"/>
      <point x="785" y="187" type="line"/>
      <point x="803" y="101"/>
      <point x="896" y="73"/>
    </contour>
    <contour>
      <point x="905" y="418" type="line"/>
      <point x="828" y="480"/>
      <point x="736" y="513"/>
      <point x="648" y="513" type="curve"/>
      <point x="471" y="513"/>
      <point x="341" y="425"/>
      <point x="341" y="287" type="curve"/>
      <point x="339" y="149"/>
      <point x="478" y="74"/>
      <point x="598" y="74" type="curve"/>
      <point x="746" y="74"/>
      <point x="824" y="169"/>
      <point x="825" y="269" type="curve" smooth="yes"/>
      <point x="805" y="311" type="line"/>
      <point x="810" y="211"/>
      <point x="767" y="142"/>
      <point x="687" y="142" type="curve"/>
      <point x="597" y="142"/>
      <point x="521" y="218"/>
      <point x="521" y="344" type="curve"/>
      <point x="521" y="448"/>
      <point x="572" y="487"/>
      <point x="630" y="487" type="curve"/>
      <point x="749" y="487"/>
      <point x="785" y="364"/>
      <point x="785" y="283" type="curve"/>
    </contour>
  </outline>
</glyph>
<glyph name="A" format="2">
  <advance width="1151"/>
  <unicode hex="0041"/>
  <anchor x="509" y="0" name="bottom"/>
  <anchor x="988" y="14" name="ogonek"/>
  <anchor x="486" y="690" name="top"/>
  <outline>
    <contour>
      <point x="30" y="0" type="curve"/>
      <point x="166" y="0" type="line"/>
      <point x="171" y="31"/>
      <point x="185" y="65"/>
      <point x="205" y="101" type="curve"/>
      <point x="261" y="204" type="line"/>
      <point x="336" y="206"/>
      <point x="419" y="209"/>
      <point x="493" y="209" type="curve"/>
      <point x="561" y="209"/>
      <point x="632" y="206"/>
      <point x="702" y="203" type="curve"/>
      <point x="753" y="119" type="line"/>
      <point x="773" y="78"/>
      <point x="792" y="43"/>
      <point x="799" y="0" type="curve"/>
      <point x="1121" y="0" type="line"/>
      <point x="1067" y="49"/>
      <point x="1007" y="138"/>
      <point x="955" y="216" type="curve" smooth="yes"/>
      <point x="737" y="545" type="line"/>
      <point x="704" y="597"/>
      <point x="671" y="648"/>
      <point x="638" y="700" type="curve"/>
      <point x="320" y="700" type="line"/>
      <point x="320" y="695" type="line"/>
      <point x="341" y="683"/>
      <point x="389" y="651"/>
      <point x="430" y="611" type="curve"/>
      <point x="183" y="213" type="line" smooth="yes"/>
      <point x="138" y="141"/>
      <point x="74" y="52"/>
    </contour>
    <contour>
      <point x="298" y="269" type="curve"/>
      <point x="479" y="556" type="line"/>
      <point x="502" y="528"/>
      <point x="522" y="500"/>
      <point x="534" y="480" type="curve" smooth="yes"/>
      <point x="664" y="270" type="line"/>
      <point x="614" y="266"/>
      <point x="566" y="265"/>
      <point x="514" y="265" type="curve"/>
      <point x="442" y="265"/>
      <point x="368" y="266"/>
    </contour>
  </outline>
</glyph>
<glyph name="B" format="2">
  <advance width="1064"/>
  <unicode hex="0042"/>
  <outline>
    <contour>
      <point x="517" y="700" type="curve" smooth="yes"/>
      <point x="75" y="700" type="line"/>
      <point x="75" y="700"/>
      <point x="94" y="662"/>
      <point x="94" y="530" type="curve" smooth="yes"/>
      <point x="94" y="169" type="line" smooth="yes"/>
      <point x="94" y="38"/>
      <point x="75" y="0"/>
      <point x="75" y="0" type="curve"/>
      <point x="267" y="0" type="line" smooth="yes"/>
      <point x="347" y="0"/>
      <point x="414" y="-1"/>
      <point x="528" y="-1" type="curve" smooth="yes"/>
      <point x="843" y="0"/>
      <point x="1009" y="83"/>
      <point x="1009" y="199" type="curve" smooth="yes"/>
      <point x="1009" y="300"/>
      <point x="923" y="360"/>
      <point x="648" y="378" type="curve"/>
      <point x="799" y="380"/>
      <point x="901" y="436"/>
      <point x="901" y="542" type="curve" smooth="yes"/>
      <point x="901" y="640"/>
      <point x="766" y="700"/>
    </contour>
    <contour>
      <point x="299" y="525" type="line" smooth="yes"/>
      <point x="299" y="576"/>
      <point x="304" y="619"/>
      <point x="310" y="645" type="curve"/>
      <point x="339" y="650"/>
      <point x="394" y="652"/>
      <point x="484" y="652" type="curve" smooth="yes"/>
      <point x="624" y="652"/>
      <point x="692" y="600"/>
      <point x="692" y="524" type="curve" smooth="yes"/>
      <point x="692" y="434"/>
      <point x="632" y="392"/>
      <point x="494" y="392" type="curve" smooth="yes"/>
      <point x="408" y="392"/>
      <point x="342" y="394"/>
      <point x="300" y="409" type="curve"/>
    </contour>
    <contour>
      <point x="300" y="344" type="line"/>
      <point x="342" y="345"/>
      <point x="410" y="347"/>
      <point x="465" y="346" type="curve" smooth="yes"/>
      <point x="664" y="344"/>
      <point x="769" y="289"/>
      <point x="769" y="194" type="curve" smooth="yes"/>
      <point x="769" y="119"/>
      <point x="665" y="47"/>
      <point x="502" y="47" type="curve" smooth="yes"/>
      <point x="421" y="47"/>
      <point x="347" y="52"/>
      <point x="309" y="76" type="curve"/>
      <point x="305" y="93"/>
      <point x="301" y="129"/>
      <point x="301" y="174" type="curve" smooth="yes"/>
    </contour>
  </outline>
</glyph>
<glyph name="C" format="2">
  <advance width="1082"/>
  <unicode hex="0043"/>
  <anchor x="563" y="0" name="bottom"/>
  <anchor x="562" y="700" name="top"/>
  <outline>
    <contour>
      <point x="1042" y="226" type="curve"/>
      <point x="1031" y="245" type="line"/>
      <point x="957" y="167"/>
      <point x="845" y="113"/>
      <point x="677" y="113" type="curve" smooth="yes"/>
      <point x="441" y="113"/>
      <point x="218" y="265"/>
      <point x="218" y="455" type="curve" smooth="yes"/>
      <point x="218" y="576"/>
      <point x="322" y="671"/>
      <point x="458" y="671" type="curve" smooth="yes"/>
      <point x="730" y="671"/>
      <point x="954" y="431"/>
      <point x="954" y="431" type="curve"/>
      <point x="965" y="438" type="line"/>
      <point x="1003" y="643" type="line"/>
      <point x="1003" y="643"/>
      <point x="864" y="747"/>
      <point x="607" y="747" type="curve" smooth="yes"/>
      <point x="311" y="747"/>
      <point x="70" y="594"/>
      <point x="70" y="338" type="curve" smooth="yes"/>
      <point x="70" y="135"/>
      <point x="290" y="-26"/>
      <point x="557" y="-26" type="curve" smooth="yes"/>
      <point x="850" y="-26"/>
      <point x="990" y="135"/>
    </contour>
  </outline>
</glyph>
<glyph name="D" format="2">
  <advance width="1084"/>
  <unicode hex="0044"/>
  <anchor x="403" y="0" name="bottom"/>
  <anchor x="403" y="350" name="center"/>
  <anchor x="454" y="700" name="top"/>
  <outline>
    <contour>
      <point x="213" y="700" type="curve" smooth="yes"/>
      <point x="60" y="700" type="line"/>
      <point x="60" y="700"/>
      <point x="79" y="662"/>
      <point x="79" y="530" type="curve" smooth="yes"/>
      <point x="79" y="169" type="line" smooth="yes"/>
      <point x="79" y="38"/>
      <point x="60" y="0"/>
      <point x="60" y="0" type="curve"/>
      <point x="395" y="0" type="line" smooth="yes"/>
      <point x="818" y="0"/>
      <point x="1014" y="167"/>
      <point x="1014" y="385" type="curve" smooth="yes"/>
      <point x="1014" y="569"/>
      <point x="878" y="701"/>
      <point x="513" y="701" type="curve" smooth="yes"/>
      <point x="338" y="701"/>
      <point x="281" y="700"/>
    </contour>
    <contour>
      <point x="284" y="173" type="curve" smooth="yes"/>
      <point x="284" y="530" type="line" smooth="yes"/>
      <point x="284" y="580"/>
      <point x="287" y="618"/>
      <point x="292" y="644" type="curve"/>
      <point x="348" y="652"/>
      <point x="415" y="651"/>
      <point x="443" y="650" type="curve" smooth="yes"/>
      <point x="602" y="646"/>
      <point x="783" y="555"/>
      <point x="783" y="333" type="curve" smooth="yes"/>
      <point x="783" y="132"/>
      <point x="641" y="54"/>
      <point x="463" y="54" type="curve" smooth="yes"/>
      <point x="416" y="54"/>
      <point x="341" y="64"/>
      <point x="288" y="79" type="curve"/>
      <point x="286" y="103"/>
      <point x="284" y="134"/>
    </contour>
  </outline>
</glyph>
<glyph name="E" format="2">
  <advance width="1082"/>
  <unicode hex="0045"/>
  <anchor x="519" y="0" name="bottom"/>
  <anchor x="942" y="7" name="ogonek"/>
  <anchor x="519" y="700" name="top"/>
  <anchor x="205" y="700" name="topleft"/>
  <anchor x="852" y="700" name="topright"/>
  <outline>
    <contour>
      <point x="75" y="-3" type="curve"/>
      <point x="952" y="-7" type="line"/>
      <point x="997" y="234" type="line"/>
      <point x="986" y="241" type="line"/>
      <point x="858" y="96"/>
      <point x="689" y="52"/>
      <point x="308" y="52" type="curve"/>
      <point x="304" y="78"/>
      <point x="301" y="115"/>
      <point x="301" y="166" type="curve" smooth="yes"/>
      <point x="301" y="337" type="line"/>
      <point x="511" y="337" type="line" smooth="yes"/>
      <point x="632" y="337"/>
      <point x="732" y="335"/>
      <point x="823" y="329" type="curve"/>
      <point x="823" y="399" type="line"/>
      <point x="732" y="393"/>
      <point x="630" y="391"/>
      <point x="531" y="391" type="curve" smooth="yes"/>
      <point x="301" y="391" type="line"/>
      <point x="301" y="528" type="line" smooth="yes"/>
      <point x="301" y="582"/>
      <point x="304" y="619"/>
      <point x="308" y="645" type="curve"/>
      <point x="590" y="645"/>
      <point x="782" y="627"/>
      <point x="931" y="454" type="curve"/>
      <point x="942" y="461" type="line"/>
      <point x="892" y="701" type="line"/>
      <point x="75" y="697" type="line"/>
      <point x="75" y="697"/>
      <point x="96" y="659"/>
      <point x="96" y="527" type="curve" smooth="yes"/>
      <point x="96" y="167" type="line" smooth="yes"/>
      <point x="96" y="35"/>
      <point x="75" y="-3"/>
    </contour>
  </outline>
</glyph>
<glyph name="F" format="2">
  <advance width="998"/>
  <unicode hex="0046"/>
  <outline>
    <contour>
      <point x="96" y="526" type="curve" smooth="yes"/>
      <point x="96" y="169" type="line" smooth="yes"/>
      <point x="96" y="38"/>
      <point x="75" y="0"/>
      <point x="75" y="0" type="curve"/>
      <point x="320" y="0" type="line"/>
      <point x="320" y="0"/>
      <point x="301" y="38"/>
      <point x="301" y="169" type="curve" smooth="yes"/>
      <point x="301" y="321" type="line"/>
      <point x="481" y="321" type="line" smooth="yes"/>
      <point x="602" y="321"/>
      <point x="698" y="319"/>
      <point x="789" y="313" type="curve"/>
      <point x="789" y="383" type="line"/>
      <point x="698" y="377"/>
      <point x="600" y="375"/>
      <point x="501" y="375" type="curve" smooth="yes"/>
      <point x="301" y="375" type="line"/>
      <point x="301" y="527" type="line" smooth="yes"/>
      <point x="301" y="578"/>
      <point x="304" y="622"/>
      <point x="308" y="648" type="curve"/>
      <point x="590" y="648"/>
      <point x="768" y="626"/>
      <point x="916" y="452" type="curve"/>
      <point x="927" y="459" type="line"/>
      <point x="878" y="700" type="line"/>
      <point x="75" y="700" type="line"/>
      <point x="75" y="700"/>
      <point x="96" y="658"/>
    </contour>
  </outline>
</glyph>
<glyph name="G" format="2">
  <advance width="1115"/>
  <unicode hex="0047"/>
  <anchor x="585" y="0" name="bottom"/>
  <anchor x="591" y="700" name="top"/>
  <outline>
    <contour>
      <point x="557" y="-26" type="curve" smooth="yes"/>
      <point x="830" y="-26"/>
      <point x="997" y="116"/>
      <point x="1049" y="145" type="curve"/>
      <point x="1049" y="248"/>
      <point x="1048" y="306"/>
      <point x="1055" y="332" type="curve"/>
      <point x="828" y="332" type="line"/>
      <point x="853" y="289"/>
      <point x="854" y="217"/>
      <point x="853" y="138" type="curve"/>
      <point x="800" y="101"/>
      <point x="740" y="95"/>
      <point x="677" y="95" type="curve" smooth="yes"/>
      <point x="461" y="95"/>
      <point x="218" y="245"/>
      <point x="218" y="455" type="curve" smooth="yes"/>
      <point x="218" y="576"/>
      <point x="322" y="671"/>
      <point x="458" y="671" type="curve" smooth="yes"/>
      <point x="730" y="671"/>
      <point x="952" y="463"/>
      <point x="963" y="448" type="curve"/>
      <point x="974" y="455" type="line"/>
      <point x="1013" y="643" type="line"/>
      <point x="1013" y="643"/>
      <point x="864" y="747"/>
      <point x="607" y="747" type="curve" smooth="yes"/>
      <point x="311" y="747"/>
      <point x="70" y="594"/>
      <point x="70" y="338" type="curve" smooth="yes"/>
      <point x="70" y="135"/>
      <point x="290" y="-26"/>
    </contour>
  </outline>
</glyph>
<glyph name="H" format="2">
  <advance width="1100"/>
  <unicode hex="0048"/>
  <outline>
    <contour>
      <point x="75" y="700" type="line"/>
      <point x="75" y="700"/>
      <point x="94" y="662"/>
      <point x="94" y="530" type="curve" smooth="yes"/>
      <point x="94" y="169" type="line" smooth="yes"/>
      <point x="94" y="38"/>
      <point x="75" y="0"/>
      <point x="75" y="0" type="curve"/>
      <point x="320" y="0" type="line"/>
      <point x="320" y="0"/>
      <point x="299" y="38"/>
      <point x="299" y="169" type="curve" smooth="yes"/>
      <point x="299" y="530" type="line" smooth="yes"/>
      <point x="299" y="662"/>
      <point x="320" y="700"/>
      <point x="320" y="700" type="curve"/>
    </contour>
    <contour>
      <point x="297" y="396" type="curve"/>
      <point x="262" y="333" type="line"/>
      <point x="337" y="335"/>
      <point x="454" y="338"/>
      <point x="528" y="338" type="curve" smooth="yes"/>
      <point x="596" y="338"/>
      <point x="687" y="335"/>
      <point x="847" y="332" type="curve"/>
      <point x="811" y="397" type="line"/>
      <point x="661" y="393"/>
      <point x="601" y="392"/>
      <point x="549" y="392" type="curve" smooth="yes"/>
      <point x="477" y="392"/>
      <point x="367" y="393"/>
    </contour>
    <contour>
      <point x="780" y="700" type="line"/>
      <point x="780" y="700"/>
      <point x="799" y="662"/>
      <point x="799" y="530" type="curve" smooth="yes"/>
      <point x="799" y="169" type="line" smooth="yes"/>
      <point x="799" y="38"/>
      <point x="780" y="0"/>
      <point x="780" y="0" type="curve"/>
      <point x="1025" y="0" type="line"/>
      <point x="1025" y="0"/>
      <point x="1004" y="38"/>
      <point x="1004" y="169" type="curve" smooth="yes"/>
      <point x="1004" y="530" type="line" smooth="yes"/>
      <point x="1004" y="662"/>
      <point x="1025" y="700"/>
      <point x="1025" y="700" type="curve"/>
    </contour>
  </outline>
</glyph>
<glyph name="I" format="2">
  <advance width="395"/>
  <unicode hex="0049"/>
  <anchor x="199" y="0" name="bottom"/>
  <anchor x="204" y="14" name="ogonek"/>
  <anchor x="198" y="700" name="top"/>
  <anchor x="105" y="700" name="topleft"/>
  <outline>
    <contour>
      <point x="75" y="700" type="line"/>
      <point x="75" y="700"/>
      <point x="94" y="662"/>
      <point x="94" y="530" type="curve" smooth="yes"/>
      <point x="94" y="169" type="line" smooth="yes"/>
      <point x="94" y="38"/>
      <point x="75" y="0"/>
      <point x="75" y="0" type="curve"/>
      <point x="320" y="0" type="line"/>
      <point x="320" y="0"/>
      <point x="299" y="38"/>
      <point x="299" y="169" type="curve" smooth="yes"/>
      <point x="299" y="530" type="line" smooth="yes"/>
      <point x="299" y="662"/>
      <point x="320" y="700"/>
      <point x="320" y="700" type="curve"/>
    </contour>
  </outline>
</glyph>
<glyph name="J" format="2">
  <advance width="477"/>
  <unicode hex="004A"/>
  <outline>
    <contour>
      <point x="157" y="700" type="curve"/>
      <point x="402" y="700" type="line"/>
      <point x="402" y="700"/>
      <point x="381" y="662"/>
      <point x="381" y="530" type="curve" smooth="yes"/>
      <point x="381" y="169" type="line" smooth="yes"/>
      <point x="381" y="-76"/>
      <point x="104" y="-139"/>
      <point x="-54" y="-139" type="curve"/>
      <point x="-55" y="-119" type="line"/>
      <point x="84" y="-119"/>
      <point x="176" y="-16"/>
      <point x="176" y="169" type="curve" smooth="yes"/>
      <point x="176" y="530" type="line" smooth="yes"/>
      <point x="176" y="662"/>
      <point x="157" y="700"/>
    </contour>
  </outline>
</glyph>
<glyph name="K" format="2">
  <advance width="1177"/>
  <unicode hex="004B"/>
  <anchor x="498" y="0" name="bottom"/>
  <anchor x="514" y="700" name="top"/>
  <outline>
    <contour>
      <point x="75" y="700" type="line"/>
      <point x="75" y="700"/>
      <point x="94" y="662"/>
      <point x="94" y="530" type="curve" smooth="yes"/>
      <point x="94" y="169" type="line" smooth="yes"/>
      <point x="94" y="38"/>
      <point x="75" y="0"/>
      <point x="75" y="0" type="curve"/>
      <point x="320" y="0" type="line"/>
      <point x="320" y="0"/>
      <point x="299" y="38"/>
      <point x="299" y="169" type="curve" smooth="yes"/>
      <point x="299" y="265" type="line"/>
      <point x="404" y="338" type="line"/>
      <point x="621" y="126" type="line" smooth="yes"/>
      <point x="665" y="83"/>
      <point x="730" y="30"/>
      <point x="741" y="0" type="curve"/>
      <point x="1107" y="0" type="line"/>
      <point x="1048" y="23"/>
      <point x="971" y="81"/>
      <point x="845" y="200" type="curve" smooth="yes"/>
      <point x="574" y="456" type="line"/>
      <point x="769" y="592" type="line" smooth="yes"/>
      <point x="813" y="622"/>
      <point x="897" y="672"/>
      <point x="980" y="701" type="curve"/>
      <point x="764" y="700" type="line"/>
      <point x="730" y="654"/>
      <point x="692" y="620"/>
      <point x="623" y="572" type="curve"/>
      <point x="299" y="350" type="line"/>
      <point x="299" y="530" type="line" smooth="yes"/>
      <point x="299" y="662"/>
      <point x="320" y="700"/>
      <point x="320" y="700" type="curve"/>
    </contour>
  </outline>
</glyph>
<glyph name="L" format="2">
  <advance width="932"/>
  <unicode hex="004C"/>
  <anchor x="458" y="0" name="bottom"/>
  <anchor x="198" y="700" name="top"/>
  <anchor x="406" y="437" name="topright"/>
  <outline>
    <contour>
      <point x="75" y="700" type="line"/>
      <point x="75" y="700"/>
      <point x="96" y="662"/>
      <point x="96" y="530" type="curve" smooth="yes"/>
      <point x="96" y="169" type="line" smooth="yes"/>
      <point x="96" y="38"/>
      <point x="75" y="0"/>
      <point x="75" y="0" type="curve"/>
      <point x="822" y="-4" type="line"/>
      <point x="872" y="235" type="line"/>
      <point x="860" y="244" type="line"/>
      <point x="728" y="99"/>
      <point x="560" y="55"/>
      <point x="308" y="55" type="curve"/>
      <point x="304" y="81"/>
      <point x="301" y="120"/>
      <point x="301" y="169" type="curve" smooth="yes"/>
      <point x="301" y="530" type="line" smooth="yes"/>
      <point x="301" y="662"/>
      <point x="322" y="700"/>
      <point x="322" y="700" type="curve"/>
    </contour>
  </outline>
</glyph>
<glyph name="M" format="2">
  <advance width="1331"/>
  <unicode hex="004D"/>
  <outline>
    <contour>
      <point x="45" y="0" type="curve"/>
      <point x="165" y="0" type="line"/>
      <point x="160" y="32"/>
      <point x="165" y="95"/>
      <point x="179" y="139" type="curve" smooth="yes"/>
      <point x="314" y="572" type="line"/>
      <point x="576" y="1" type="line"/>
      <point x="652" y="1" type="line"/>
      <point x="853" y="572" type="line"/>
      <point x="854" y="561"/>
      <point x="858" y="549"/>
      <point x="864" y="530" type="curve" smooth="yes"/>
      <point x="992" y="138" type="line" smooth="yes"/>
      <point x="1008" y="90"/>
      <point x="1016" y="60"/>
      <point x="1020" y="0" type="curve"/>
      <point x="1286" y="0" type="line"/>
      <point x="1251" y="60"/>
      <point x="1223" y="125"/>
      <point x="1195" y="210" type="curve" smooth="yes"/>
      <point x="1099" y="503" type="line" smooth="yes"/>
      <point x="1070" y="591"/>
      <point x="1052" y="649"/>
      <point x="1056" y="702" type="curve"/>
      <point x="788" y="701" type="line"/>
      <point x="800" y="668"/>
      <point x="804" y="642"/>
      <point x="791" y="605" type="curve" smooth="yes"/>
      <point x="668" y="246" type="line"/>
      <point x="558" y="474" type="line" smooth="yes"/>
      <point x="523" y="546"/>
      <point x="476" y="644"/>
      <point x="461" y="700" type="curve"/>
      <point x="205" y="700" type="line"/>
      <point x="233" y="680"/>
      <point x="250" y="666"/>
      <point x="261" y="644" type="curve"/>
      <point x="115" y="180" type="line" smooth="yes"/>
      <point x="103" y="143"/>
      <point x="92" y="94"/>
    </contour>
  </outline>
</glyph>
<glyph name="N" format="2">
  <advance width="1117"/>
  <unicode hex="004E"/>
  <anchor x="573" y="0" name="bottom"/>
  <anchor x="603" y="700" name="top"/>
  <outline>
    <contour>
      <point x="40" y="700" type="line"/>
      <point x="106" y="642" type="line"/>
      <point x="111" y="616"/>
      <point x="115" y="580"/>
      <point x="115" y="530" type="curve" smooth="yes"/>
      <point x="115" y="169" type="line" smooth="yes"/>
      <point x="115" y="38"/>
      <point x="96" y="0"/>
      <point x="96" y="0" type="curve"/>
      <point x="223" y="0" type="line"/>
      <point x="223" y="0"/>
      <point x="202" y="38"/>
      <point x="202" y="169" type="curve" smooth="yes"/>
      <point x="202" y="530" type="line" smooth="yes"/>
      <point x="202" y="542"/>
      <point x="202" y="554"/>
      <point x="203" y="564" type="curve"/>
      <point x="773" y="0" type="line"/>
      <point x="1063" y="0" type="line"/>
      <point x="1027" y="51" type="line"/>
      <point x="1021" y="78"/>
      <point x="1016" y="116"/>
      <point x="1016" y="169" type="curve" smooth="yes"/>
      <point x="1016" y="530" type="line" smooth="yes"/>
      <point x="1016" y="662"/>
      <point x="1037" y="700"/>
      <point x="1037" y="700" type="curve"/>
      <point x="910" y="700" type="line"/>
      <point x="910" y="700"/>
      <point x="929" y="662"/>
      <point x="929" y="530" type="curve" smooth="yes"/>
      <point x="929" y="169" type="line" smooth="yes"/>
      <point x="929" y="156"/>
      <point x="929" y="143"/>
      <point x="928" y="132" type="curve"/>
      <point x="350" y="700" type="line"/>
    </contour>
  </outline>
</glyph>
<glyph name="O" format="2">
  <advance width="1206"/>
  <unicode hex="004F"/>
  <anchor x="577" y="0" name="bottom"/>
  <anchor x="609" y="700" name="top"/>
  <outline>
    <contour>
      <point x="582" y="-9" type="curve" smooth="yes"/>
      <point x="857" y="-9"/>
      <point x="1136" y="147"/>
      <point x="1136" y="375" type="curve" smooth="yes"/>
      <point x="1136" y="584"/>
      <point x="911" y="712"/>
      <point x="629" y="712" type="curve" smooth="yes"/>
      <point x="354" y="712"/>
      <point x="70" y="571"/>
      <point x="70" y="332" type="curve" smooth="yes"/>
      <point x="70" y="133"/>
      <point x="299" y="-9"/>
    </contour>
    <contour>
      <point x="683" y="72" type="curve" smooth="yes"/>
      <point x="386" y="72"/>
      <point x="283" y="298"/>
      <point x="283" y="426" type="curve" smooth="yes"/>
      <point x="283" y="547"/>
      <point x="349" y="647"/>
      <point x="523" y="647" type="curve" smooth="yes"/>
      <point x="709" y="647"/>
      <point x="923" y="510"/>
      <point x="923" y="292" type="curve"/>
      <point x="923" y="180"/>
      <point x="850" y="72"/>
    </contour>
  </outline>
</glyph>
<glyph name="P" format="2">
  <advance width="995"/>
  <unicode hex="0050"/>
  <outline>
    <contour>
      <point x="320" y="700" type="line"/>
      <point x="75" y="700" type="line"/>
      <point x="75" y="700"/>
      <point x="94" y="662"/>
      <point x="94" y="530" type="curve" smooth="yes"/>
      <point x="94" y="169" type="line" smooth="yes"/>
      <point x="94" y="38"/>
      <point x="75" y="0"/>
      <point x="75" y="0" type="curve"/>
      <point x="320" y="0" type="line"/>
      <point x="320" y="0"/>
      <point x="299" y="38"/>
      <point x="299" y="169" type="curve" smooth="yes"/>
      <point x="299" y="312" type="line"/>
      <point x="320" y="306"/>
      <point x="409" y="286"/>
      <point x="509" y="286" type="curve" smooth="yes"/>
      <point x="740" y="286"/>
      <point x="965" y="370"/>
      <point x="965" y="512" type="curve" smooth="yes"/>
      <point x="965" y="630"/>
      <point x="863" y="700"/>
      <point x="603" y="700" type="curve" smooth="yes"/>
    </contour>
    <contour>
      <point x="299" y="525" type="line" smooth="yes"/>
      <point x="299" y="573"/>
      <point x="302" y="613"/>
      <point x="307" y="639" type="curve"/>
      <point x="348" y="647"/>
      <point x="412" y="652"/>
      <point x="495" y="652" type="curve" smooth="yes"/>
      <point x="636" y="652"/>
      <point x="733" y="600"/>
      <point x="733" y="465" type="curve" smooth="yes"/>
      <point x="733" y="398"/>
      <point x="662" y="335"/>
      <point x="515" y="335" type="curve" smooth="yes"/>
      <point x="414" y="335"/>
      <point x="331" y="369"/>
      <point x="299" y="391" type="curve"/>
    </contour>
  </outline>
</glyph>
<glyph name="Q" format="2">
  <advance width="1206"/>
  <unicode hex="0051"/>
  <outline>
    <contour>
      <point x="582" y="-9" type="line"/>
      <point x="857" y="-9"/>
      <point x="1136" y="147"/>
      <point x="1136" y="375" type="curve" smooth="yes"/>
      <point x="1136" y="584"/>
      <point x="911" y="712"/>
      <point x="629" y="712" type="curve" smooth="yes"/>
      <point x="354" y="712"/>
      <point x="70" y="571"/>
      <point x="70" y="332" type="curve" smooth="yes"/>
      <point x="70" y="168"/>
      <point x="225" y="43"/>
      <point x="437" y="4" type="curve"/>
      <point x="155" y="-202" type="line"/>
      <point x="181" y="-210" type="line"/>
      <point x="339" y="-142"/>
      <point x="628" y="-282"/>
      <point x="748" y="-282" type="curve" smooth="yes"/>
      <point x="891" y="-282"/>
      <point x="977" y="-219"/>
      <point x="1081" y="-92" type="curve"/>
      <point x="1072" y="-84" type="line"/>
      <point x="847" y="-252"/>
      <point x="586" y="-38"/>
      <point x="399" y="-89" type="curve"/>
      <point x="514" y="-6" type="line"/>
    </contour>
    <contour>
      <point x="287" y="425" type="curve" smooth="yes"/>
      <point x="287" y="544"/>
      <point x="352" y="643"/>
      <point x="524" y="643" type="curve" smooth="yes"/>
      <point x="708" y="643"/>
      <point x="919" y="508"/>
      <point x="919" y="293" type="curve" smooth="yes"/>
      <point x="919" y="182"/>
      <point x="847" y="76"/>
      <point x="682" y="76" type="curve" smooth="yes"/>
      <point x="389" y="76"/>
      <point x="287" y="299"/>
    </contour>
  </outline>
</glyph>
<glyph name="R" format="2">
  <advance width="1107"/>
  <unicode hex="0052"/>
  <anchor x="500" y="0" name="bottom"/>
  <anchor x="473" y="710" name="top"/>
  <outline>
    <contour>
      <point x="603" y="700" type="curve" smooth="yes"/>
      <point x="75" y="700" type="line"/>
      <point x="75" y="700"/>
      <point x="94" y="662"/>
      <point x="94" y="530" type="curve" smooth="yes"/>
      <point x="94" y="169" type="line" smooth="yes"/>
      <point x="94" y="38"/>
      <point x="75" y="0"/>
      <point x="75" y="0" type="curve"/>
      <point x="320" y="0" type="line"/>
      <point x="320" y="0"/>
      <point x="299" y="38"/>
      <point x="299" y="169" type="curve" smooth="yes"/>
      <point x="299" y="313" type="line"/>
      <point x="312" y="309"/>
      <point x="356" y="299"/>
      <point x="412" y="291" type="curve"/>
      <point x="581" y="126" type="line" smooth="yes"/>
      <point x="625" y="83"/>
      <point x="690" y="30"/>
      <point x="701" y="0" type="curve"/>
      <point x="1087" y="0" type="line"/>
      <point x="1087" y="6" type="line"/>
      <point x="1028" y="23"/>
      <point x="925" y="84"/>
      <point x="795" y="200" type="curve" smooth="yes"/>
      <point x="679" y="303" type="line"/>
      <point x="839" y="333"/>
      <point x="965" y="407"/>
      <point x="965" y="513" type="curve" smooth="yes"/>
      <point x="965" y="631"/>
      <point x="863" y="700"/>
    </contour>
    <contour>
      <point x="299" y="525" type="line" smooth="yes"/>
      <point x="299" y="573"/>
      <point x="302" y="613"/>
      <point x="307" y="639" type="curve"/>
      <point x="348" y="647"/>
      <point x="412" y="652"/>
      <point x="495" y="652" type="curve" smooth="yes"/>
      <point x="636" y="652"/>
      <point x="733" y="600"/>
      <point x="733" y="465" type="curve" smooth="yes"/>
      <point x="733" y="398"/>
      <point x="662" y="335"/>
      <point x="515" y="335" type="curve" smooth="yes"/>
      <point x="414" y="335"/>
      <point x="325" y="373"/>
      <point x="299" y="392" type="curve"/>
    </contour>
  </outline>
</glyph>
<glyph name="S" format="2">
  <advance width="1040"/>
  <unicode hex="0053"/>
  <anchor x="508" y="0" name="bottom"/>
  <anchor x="494" y="700" name="top"/>
  <outline>
    <contour>
      <point x="67" y="513" type="curve" smooth="yes"/>
      <point x="67" y="423"/>
      <point x="166" y="337"/>
      <point x="355" y="295" type="curve" smooth="yes"/>
      <point x="537" y="254" type="line" smooth="yes"/>
      <point x="723" y="212"/>
      <point x="792" y="185"/>
      <point x="792" y="123" type="curve" smooth="yes"/>
      <point x="792" y="72"/>
      <point x="715" y="29"/>
      <point x="592" y="29" type="curve" smooth="yes"/>
      <point x="398" y="29"/>
      <point x="199" y="128"/>
      <point x="51" y="333" type="curve"/>
      <point x="40" y="326" type="line"/>
      <point x="101" y="68" type="line"/>
      <point x="234" y="7"/>
      <point x="350" y="-27"/>
      <point x="538" y="-27" type="curve" smooth="yes"/>
      <point x="770" y="-27"/>
      <point x="1000" y="55"/>
      <point x="1000" y="198" type="curve" smooth="yes"/>
      <point x="1000" y="333"/>
      <point x="823" y="389"/>
      <point x="640" y="428" type="curve" smooth="yes"/>
      <point x="460" y="466" type="line" smooth="yes"/>
      <point x="334" y="493"/>
      <point x="249" y="528"/>
      <point x="249" y="589" type="curve" smooth="yes"/>
      <point x="249" y="629"/>
      <point x="285" y="690"/>
      <point x="434" y="690" type="curve" smooth="yes"/>
      <point x="518" y="690"/>
      <point x="765" y="642"/>
      <point x="927" y="430" type="curve"/>
      <point x="938" y="437" type="line"/>
      <point x="890" y="666" type="line"/>
      <point x="794" y="708"/>
      <point x="652" y="740"/>
      <point x="468" y="740" type="curve" smooth="yes"/>
      <point x="196" y="740"/>
      <point x="67" y="640"/>
    </contour>
  </outline>
</glyph>
<glyph name="T" format="2">
  <advance width="1024"/>
  <unicode hex="0054"/>
  <anchor x="523" y="0" name="bottom"/>
  <anchor x="513" y="350" name="center"/>
  <anchor x="513" y="710" name="top"/>
  <outline>
    <contour>
      <point x="513" y="700" type="curve" smooth="yes"/>
      <point x="383" y="701"/>
      <point x="152" y="698"/>
      <point x="54" y="705" type="curve"/>
      <point x="5" y="463" type="line"/>
      <point x="16" y="456" type="line"/>
      <point x="102" y="564"/>
      <point x="230" y="635"/>
      <point x="406" y="651" type="curve"/>
      <point x="409" y="626"/>
      <point x="411" y="581"/>
      <point x="411" y="534" type="curve" smooth="yes"/>
      <point x="411" y="169" type="line" smooth="yes"/>
      <point x="411" y="38"/>
      <point x="392" y="0"/>
      <point x="392" y="0" type="curve"/>
      <point x="637" y="0" type="line"/>
      <point x="637" y="0"/>
      <point x="616" y="38"/>
      <point x="616" y="169" type="curve" smooth="yes"/>
      <point x="616" y="534" type="line" smooth="yes"/>
      <point x="616" y="581"/>
      <point x="619" y="626"/>
      <point x="622" y="651" type="curve"/>
      <point x="797" y="635"/>
      <point x="923" y="564"/>
      <point x="1008" y="456" type="curve"/>
      <point x="1019" y="463" type="line"/>
      <point x="973" y="705" type="line"/>
      <point x="875" y="698"/>
      <point x="644" y="701"/>
    </contour>
  </outline>
</glyph>
<glyph name="U" format="2">
  <advance width="1059"/>
  <unicode hex="0055"/>
  <anchor x="572" y="0" name="bottom"/>
  <anchor x="831" y="74" name="ogonek"/>
  <anchor x="591" y="700" name="top"/>
  <anchor x="924" y="700" name="topright"/>
  <outline>
    <contour>
      <point x="96" y="530" type="curve" smooth="yes"/>
      <point x="96" y="276" type="line" smooth="yes"/>
      <point x="96" y="122"/>
      <point x="232" y="-15"/>
      <point x="512" y="-15" type="curve" smooth="yes"/>
      <point x="820" y="-15"/>
      <point x="968" y="108"/>
      <point x="968" y="293" type="curve" smooth="yes"/>
      <point x="968" y="530" type="line" smooth="yes"/>
      <point x="968" y="662"/>
      <point x="984" y="700"/>
      <point x="984" y="700" type="curve"/>
      <point x="853" y="700" type="line"/>
      <point x="853" y="700"/>
      <point x="869" y="662"/>
      <point x="869" y="530" type="curve" smooth="yes"/>
      <point x="869" y="288" type="line" smooth="yes"/>
      <point x="869" y="150"/>
      <point x="774" y="57"/>
      <point x="583" y="57" type="curve" smooth="yes"/>
      <point x="375" y="57"/>
      <point x="306" y="143"/>
      <point x="306" y="307" type="curve" smooth="yes"/>
      <point x="306" y="530" type="line" smooth="yes"/>
      <point x="306" y="660"/>
      <point x="327" y="700"/>
      <point x="327" y="700" type="curve"/>
      <point x="75" y="700" type="line"/>
      <point x="75" y="700"/>
      <point x="96" y="662"/>
    </contour>
  </outline>
</glyph>
<glyph name="V" format="2">
  <advance width="1097"/>
  <unicode hex="0056"/>
  <outline>
    <contour>
      <point x="347" y="700" type="curve"/>
      <point x="10" y="700" type="line"/>
      <point x="75" y="633"/>
      <point x="222" y="402"/>
      <point x="222" y="402" type="curve"/>
      <point x="509" y="-30" type="line"/>
      <point x="689" y="21" type="line"/>
      <point x="937" y="476" type="line"/>
      <point x="978" y="543"/>
      <point x="1035" y="633"/>
      <point x="1087" y="700" type="curve"/>
      <point x="951" y="700" type="line"/>
      <point x="944" y="663"/>
      <point x="927" y="615"/>
      <point x="880" y="523" type="curve"/>
      <point x="669" y="132" type="line"/>
      <point x="414" y="534" type="line"/>
      <point x="414" y="534"/>
      <point x="350" y="651"/>
    </contour>
  </outline>
</glyph>
<glyph name="W" format="2">
  <advance width="1600"/>
  <unicode hex="0057"/>
  <outline>
    <contour>
      <point x="413" y="-24" type="line"/>
      <point x="564" y="22" type="line"/>
      <point x="795" y="483" type="line"/>
      <point x="801" y="472"/>
      <point x="807" y="461"/>
      <point x="813" y="450" type="curve"/>
      <point x="1058" y="-35" type="line"/>
      <point x="1212" y="11" type="line"/>
      <point x="1519" y="593" type="line"/>
      <point x="1541" y="630"/>
      <point x="1565" y="667"/>
      <point x="1590" y="700" type="curve"/>
      <point x="1451" y="700" type="line"/>
      <point x="1451" y="700"/>
      <point x="1469" y="646"/>
      <point x="1376" y="474" type="curve" smooth="yes"/>
      <point x="1203" y="153" type="line"/>
      <point x="1018" y="526" type="line" smooth="yes"/>
      <point x="967" y="629"/>
      <point x="959" y="700"/>
      <point x="958" y="700" type="curve" smooth="yes"/>
      <point x="681" y="700" type="line"/>
      <point x="713" y="647"/>
      <point x="754" y="575"/>
      <point x="709" y="476" type="curve"/>
      <point x="552" y="153" type="line"/>
      <point x="362" y="526" type="line" smooth="yes"/>
      <point x="310" y="629"/>
      <point x="303" y="700"/>
      <point x="302" y="700" type="curve" smooth="yes"/>
      <point x="10" y="700" type="line"/>
      <point x="109" y="554"/>
      <point x="117" y="526"/>
      <point x="158" y="450" type="curve" smooth="yes"/>
    </contour>
  </outline>
</glyph>
<glyph name="X" format="2">
  <advance width="1121"/>
  <unicode hex="0058"/>
  <outline>
    <contour>
      <point x="387" y="701" type="curve"/>
      <point x="48" y="701" type="line"/>
      <point x="122" y="647"/>
      <point x="177" y="593"/>
      <point x="231" y="539" type="curve" smooth="yes"/>
      <point x="413" y="357" type="line"/>
      <point x="207" y="153" type="line" smooth="yes"/>
      <point x="159" y="107"/>
      <point x="88" y="46"/>
      <point x="20" y="0" type="curve"/>
      <point x="196" y="0" type="line"/>
      <point x="209" y="48"/>
      <point x="243" y="95"/>
      <point x="281" y="133" type="curve"/>
      <point x="460" y="310" type="line"/>
      <point x="633" y="138" type="line" smooth="yes"/>
      <point x="679" y="92"/>
      <point x="726" y="46"/>
      <point x="742" y="0" type="curve"/>
      <point x="1101" y="0" type="line"/>
      <point x="1010" y="60"/>
      <point x="950" y="121"/>
      <point x="889" y="181" type="curve" smooth="yes"/>
      <point x="688" y="381" type="line"/>
      <point x="873" y="561" type="line" smooth="yes"/>
      <point x="921" y="607"/>
      <point x="978" y="654"/>
      <point x="1046" y="700" type="curve"/>
      <point x="870" y="700" type="line"/>
      <point x="857" y="652"/>
      <point x="823" y="605"/>
      <point x="784" y="567" type="curve" smooth="yes"/>
      <point x="641" y="428" type="line"/>
      <point x="493" y="576" type="line" smooth="yes"/>
      <point x="451" y="618"/>
      <point x="409" y="659"/>
    </contour>
  </outline>
</glyph>
<glyph name="Y" format="2">
  <advance width="1060"/>
  <unicode hex="0059"/>
  <anchor x="676" y="0" name="bottom"/>
  <anchor x="604" y="700" name="top"/>
  <anchor x="310" y="700" name="topleft"/>
  <outline>
    <contour>
      <point x="20" y="703" type="line"/>
      <point x="118" y="631"/>
      <point x="176" y="568"/>
      <point x="221" y="521" type="curve" smooth="yes"/>
      <point x="449" y="280" type="line"/>
      <point x="449" y="169" type="line" smooth="yes"/>
      <point x="449" y="38"/>
      <point x="430" y="0"/>
      <point x="430" y="0" type="curve"/>
      <point x="675" y="0" type="line"/>
      <point x="675" y="0"/>
      <point x="654" y="38"/>
      <point x="654" y="169" type="curve" smooth="yes"/>
      <point x="654" y="310" type="line"/>
      <point x="831" y="497" type="line" smooth="yes"/>
      <point x="896" y="566"/>
      <point x="959" y="637"/>
      <point x="1040" y="700" type="curve"/>
      <point x="882" y="697" type="line"/>
      <point x="867" y="649"/>
      <point x="846" y="606"/>
      <point x="784" y="541" type="curve" smooth="yes"/>
      <point x="611" y="361" type="line"/>
      <point x="430" y="551" type="line" smooth="yes"/>
      <point x="384" y="599"/>
      <point x="338" y="657"/>
      <point x="319" y="703" type="curve"/>
    </contour>
  </outline>
</glyph>
<glyph name="Z" format="2">
  <advance width="991"/>
  <unicode hex="005A"/>
  <anchor x="494" y="0" name="bottom"/>
  <anchor x="476" y="350" name="center"/>
  <anchor x="505" y="700" name="top"/>
  <outline>
    <contour>
      <point x="30" y="0" type="line"/>
      <point x="912" y="-4" type="line"/>
      <point x="961" y="235" type="line"/>
      <point x="950" y="242" type="line"/>
      <point x="829" y="109"/>
      <point x="732" y="54"/>
      <point x="363" y="59" type="curve"/>
      <point x="389" y="104"/>
      <point x="457" y="171"/>
      <point x="510" y="228" type="curve"/>
      <point x="946" y="701" type="line"/>
      <point x="105" y="704" type="line"/>
      <point x="56" y="459" type="line"/>
      <point x="67" y="452" type="line"/>
      <point x="185" y="582"/>
      <point x="296" y="645"/>
      <point x="641" y="642" type="curve"/>
      <point x="618" y="599"/>
      <point x="543" y="534"/>
      <point x="491" y="479" type="curve"/>
    </contour>
  </outline>
</glyph>
<glyph name="bracketleft" format="2">
  <advance width="419"/>
  <unicode hex="005B"/>
  <outline>
    <contour>
      <point x="246" y="753" type="curve"/>
      <point x="42" y="753" type="line"/>
      <point x="42" y="753"/>
      <point x="45" y="714"/>
      <point x="45" y="582" type="curve"/>
      <point x="45" y="-44" type="line"/>
      <point x="45" y="-175"/>
      <point x="40" y="-213"/>
      <point x="40" y="-213" type="curve"/>
      <point x="246" y="-213" type="line"/>
      <point x="246" y="-213"/>
      <point x="246" y="-175"/>
      <point x="246" y="-44" type="curve"/>
      <point x="246" y="583" type="line"/>
      <point x="246" y="714"/>
      <point x="246" y="753"/>
    </contour>
    <contour>
      <point x="204" y="712" type="line"/>
      <point x="268" y="712"/>
      <point x="389" y="712"/>
      <point x="449" y="707" type="curve"/>
      <point x="449" y="758" type="line"/>
      <point x="388" y="753"/>
      <point x="267" y="753"/>
      <point x="204" y="753" type="curve"/>
      <point x="42" y="753" type="line"/>
      <point x="45" y="712" type="line"/>
    </contour>
    <contour>
      <point x="204" y="-213" type="line"/>
      <point x="267" y="-213"/>
      <point x="388" y="-213"/>
      <point x="449" y="-218" type="curve"/>
      <point x="449" y="-167" type="line"/>
      <point x="388" y="-172"/>
      <point x="267" y="-172"/>
      <point x="204" y="-172" type="curve"/>
      <point x="44" y="-172" type="line"/>
      <point x="42" y="-213" type="line"/>
    </contour>
  </outline>
</glyph>
<glyph name="backslash" format="2">
  <advance width="705"/>
  <unicode hex="005C"/>
  <outline>
    <contour>
      <point x="588" y="-183" type="qcurve"/>
      <point x="655" y="-183" type="line"/>
      <point x="640" y="-163"/>
      <point x="613" y="-125"/>
      <point x="597" y="-98" type="qcurve" smooth="yes"/>
      <point x="456" y="144"/>
      <point x="316" y="387"/>
      <point x="175" y="629" type="curve" smooth="yes"/>
      <point x="146" y="679"/>
      <point x="128" y="712"/>
      <point x="114" y="746" type="qcurve"/>
      <point x="50" y="746" type="line"/>
      <point x="63" y="729"/>
      <point x="86" y="694"/>
      <point x="128" y="621" type="qcurve" smooth="yes"/>
      <point x="549" y="-106" type="line" smooth="yes"/>
      <point x="565" y="-134"/>
      <point x="582" y="-166"/>
    </contour>
  </outline>
</glyph>
<glyph name="asciicircum" format="2">
  <advance width="571"/>
  <unicode hex="005E"/>
  <outline>
    <contour>
      <point x="501" y="503" type="line"/>
      <point x="436" y="503" type="line"/>
      <point x="285" y="654" type="line"/>
      <point x="135" y="503" type="line"/>
      <point x="70" y="503" type="line"/>
      <point x="262" y="700" type="line"/>
      <point x="308" y="700" type="line"/>
    </contour>
  </outline>
</glyph>
<glyph name="underscore" format="2">
  <advance width="513"/>
  <unicode hex="005F"/>
  <outline>
    <contour>
      <point x="45" y="-34" type="line"/>
      <point x="45" y="-90" type="line"/>
      <point x="468" y="-90" type="line"/>
      <point x="468" y="-34" type="line"/>
    </contour>
  </outline>
</glyph>
<glyph name="a" format="2">
  <advance width="969"/>
  <unicode hex="0061"/>
  <anchor x="445" y="-10" name="bottom"/>
  <anchor x="780" y="20" name="ogonek"/>
  <anchor x="484" y="508" name="top"/>
  <outline>
    <contour>
      <point x="904" y="23" type="line"/>
      <point x="904" y="25" type="line"/>
      <point x="896" y="29"/>
      <point x="877" y="58"/>
      <point x="877" y="159" type="curve" smooth="yes"/>
      <point x="877" y="306" type="line" smooth="yes"/>
      <point x="877" y="414"/>
      <point x="781" y="520"/>
      <point x="511" y="520" type="curve" smooth="yes"/>
      <point x="329" y="520"/>
      <point x="148" y="458"/>
      <point x="87" y="428" type="curve"/>
      <point x="121" y="279" type="line"/>
      <point x="123" y="279" type="line"/>
      <point x="238" y="380"/>
      <point x="354" y="423"/>
      <point x="480" y="423" type="curve" smooth="yes"/>
      <point x="626" y="423"/>
      <point x="683" y="380"/>
      <point x="683" y="287" type="curve" smooth="yes"/>
      <point x="683" y="279" type="line"/>
      <point x="616" y="286"/>
      <point x="505" y="292"/>
      <point x="442" y="292" type="curve" smooth="yes"/>
      <point x="240" y="292"/>
      <point x="60" y="216"/>
      <point x="60" y="111" type="curve"/>
      <point x="60" y="48"/>
      <point x="114" y="-20"/>
      <point x="317" y="-20" type="curve" smooth="yes"/>
      <point x="388" y="-20"/>
      <point x="578" y="67"/>
      <point x="682" y="123" type="curve"/>
      <point x="683" y="82"/>
      <point x="686" y="36"/>
      <point x="687" y="-10" type="curve"/>
    </contour>
    <contour>
      <point x="271" y="159" type="curve" smooth="yes"/>
      <point x="271" y="211"/>
      <point x="344" y="250"/>
      <point x="683" y="238" type="curve"/>
      <point x="682" y="167" type="line"/>
      <point x="556" y="117"/>
      <point x="458" y="104"/>
      <point x="384" y="104" type="curve" smooth="yes"/>
      <point x="303" y="104"/>
      <point x="271" y="134"/>
    </contour>
  </outline>
</glyph>
<glyph name="b" format="2">
  <advance width="1008"/>
  <unicode hex="0062"/>
  <outline>
    <contour>
      <point x="64" y="-9" type="line"/>
      <point x="226" y="53" type="line"/>
      <point x="278" y="31"/>
      <point x="367" y="-14"/>
      <point x="515" y="-14" type="curve" smooth="yes"/>
      <point x="719" y="-14"/>
      <point x="953" y="90"/>
      <point x="953" y="276" type="curve" smooth="yes"/>
      <point x="953" y="434"/>
      <point x="829" y="520"/>
      <point x="577" y="520" type="curve" smooth="yes"/>
      <point x="534" y="520"/>
      <point x="414" y="479"/>
      <point x="269" y="377" type="curve"/>
      <point x="269" y="744" type="line"/>
      <point x="56" y="684" type="line"/>
      <point x="67" y="671"/>
      <point x="81" y="643"/>
      <point x="81" y="571" type="curve" smooth="yes"/>
      <point x="81" y="222" type="line" smooth="yes"/>
      <point x="81" y="99"/>
      <point x="78" y="34"/>
      <point x="62" y="-8" type="curve"/>
      <point x="62" y="-8"/>
      <point x="61" y="-9"/>
      <point x="61" y="-10" type="curve"/>
    </contour>
    <contour>
      <point x="269" y="145" type="curve"/>
      <point x="269" y="333" type="line"/>
      <point x="389" y="404"/>
      <point x="486" y="398"/>
      <point x="521" y="398" type="curve" smooth="yes"/>
      <point x="622" y="398"/>
      <point x="752" y="341"/>
      <point x="752" y="211" type="curve" smooth="yes"/>
      <point x="752" y="92"/>
      <point x="628" y="40"/>
      <point x="532" y="40" type="curve" smooth="yes"/>
      <point x="383" y="40"/>
      <point x="317" y="97"/>
    </contour>
  </outline>
</glyph>
<glyph name="c" format="2">
  <advance width="945"/>
  <unicode hex="0063"/>
  <anchor x="459" y="0" name="bottom"/>
  <anchor x="466" y="508" name="top"/>
  <outline>
    <contour>
      <point x="820" y="275" type="curve"/>
      <point x="823" y="275" type="line"/>
      <point x="853" y="459" type="line"/>
      <point x="704" y="518"/>
      <point x="620" y="519"/>
      <point x="506" y="519" type="curve" smooth="yes"/>
      <point x="300" y="519"/>
      <point x="55" y="425"/>
      <point x="55" y="228" type="curve" smooth="yes"/>
      <point x="55" y="78"/>
      <point x="211" y="-14"/>
      <point x="444" y="-14" type="curve" smooth="yes"/>
      <point x="724" y="-14"/>
      <point x="861" y="111"/>
      <point x="915" y="234" type="curve"/>
      <point x="908" y="236" type="line"/>
      <point x="854" y="169"/>
      <point x="703" y="121"/>
      <point x="566" y="121" type="curve" smooth="yes"/>
      <point x="384" y="121"/>
      <point x="237" y="181"/>
      <point x="237" y="318" type="curve" smooth="yes"/>
      <point x="237" y="446"/>
      <point x="367" y="463"/>
      <point x="456" y="463" type="curve" smooth="yes"/>
      <point x="551" y="463"/>
      <point x="723" y="409"/>
    </contour>
  </outline>
</glyph>
<glyph name="d" format="2">
  <advance width="1027"/>
  <unicode hex="0064"/>
  <anchor x="988" y="488" name="topright"/>
  <outline>
    <contour>
      <point x="938" y="760" type="line"/>
      <point x="714" y="700" type="line"/>
      <point x="717" y="698"/>
      <point x="738" y="654"/>
      <point x="738" y="582" type="curve" smooth="yes"/>
      <point x="738" y="477" type="line"/>
      <point x="683" y="499"/>
      <point x="603" y="520"/>
      <point x="493" y="520" type="curve" smooth="yes"/>
      <point x="279" y="520"/>
      <point x="55" y="416"/>
      <point x="55" y="230" type="curve" smooth="yes"/>
      <point x="55" y="72"/>
      <point x="179" y="-14"/>
      <point x="431" y="-14" type="curve" smooth="yes"/>
      <point x="474" y="-14"/>
      <point x="593" y="27"/>
      <point x="738" y="128" type="curve"/>
      <point x="738" y="-12" type="line"/>
      <point x="962" y="48" type="line"/>
      <point x="959" y="50"/>
      <point x="936" y="94"/>
      <point x="936" y="166" type="curve" smooth="yes"/>
    </contour>
    <contour>
      <point x="256" y="295" type="curve" smooth="yes"/>
      <point x="256" y="414"/>
      <point x="370" y="466"/>
      <point x="476" y="466" type="curve" smooth="yes"/>
      <point x="624" y="466"/>
      <point x="690" y="420"/>
      <point x="738" y="367" type="curve"/>
      <point x="738" y="172" type="line"/>
      <point x="617" y="103"/>
      <point x="522" y="108"/>
      <point x="487" y="108" type="curve" smooth="yes"/>
      <point x="386" y="108"/>
      <point x="256" y="165"/>
    </contour>
  </outline>
</glyph>
<glyph name="e" format="2">
  <advance width="945"/>
  <unicode hex="0065"/>
  <anchor x="458" y="-14" name="bottom"/>
  <anchor x="752" y="77" name="ogonek"/>
  <anchor x="451" y="508" name="top"/>
  <outline>
    <contour>
      <point x="446" y="463" type="curve" smooth="yes"/>
      <point x="537" y="463"/>
      <point x="635" y="413"/>
      <point x="663" y="319" type="curve"/>
      <point x="237" y="308" type="line"/>
      <point x="237" y="446"/>
      <point x="367" y="463"/>
    </contour>
    <contour>
      <point x="55" y="238" type="curve" smooth="yes"/>
      <point x="55" y="82"/>
      <point x="202" y="-14"/>
      <point x="444" y="-14" type="curve" smooth="yes"/>
      <point x="724" y="-14"/>
      <point x="860" y="108"/>
      <point x="915" y="234" type="curve"/>
      <point x="908" y="236" type="line"/>
      <point x="854" y="169"/>
      <point x="703" y="121"/>
      <point x="566" y="121" type="curve" smooth="yes"/>
      <point x="421" y="121"/>
      <point x="270" y="158"/>
      <point x="242" y="268" type="curve"/>
      <point x="863" y="265" type="line"/>
      <point x="863" y="478"/>
      <point x="620" y="519"/>
      <point x="506" y="519" type="curve" smooth="yes"/>
      <point x="300" y="519"/>
      <point x="55" y="425"/>
    </contour>
  </outline>
</glyph>
<glyph name="f" format="2">
  <advance width="601"/>
  <unicode hex="0066"/>
  <outline>
    <contour>
      <point x="23" y="493" type="line"/>
      <point x="23" y="462" type="line"/>
      <point x="112" y="460" type="line"/>
      <point x="112" y="231" type="line" smooth="yes"/>
      <point x="112" y="57"/>
      <point x="104" y="25"/>
      <point x="97" y="0" type="curve"/>
      <point x="315" y="0" type="line"/>
      <point x="310" y="25"/>
      <point x="300" y="51"/>
      <point x="300" y="231" type="curve" smooth="yes"/>
      <point x="300" y="455" type="line"/>
      <point x="518" y="449" type="line"/>
      <point x="525" y="512" type="line"/>
      <point x="300" y="503" type="line"/>
      <point x="300" y="566" type="line" smooth="yes"/>
      <point x="300" y="633"/>
      <point x="335" y="669"/>
      <point x="396" y="669" type="curve" smooth="yes"/>
      <point x="465" y="669"/>
      <point x="564" y="616"/>
      <point x="645" y="531" type="curve"/>
      <point x="651" y="533" type="line"/>
      <point x="618" y="704" type="line"/>
      <point x="556" y="722"/>
      <point x="477" y="732"/>
      <point x="389" y="732" type="curve" smooth="yes"/>
      <point x="215" y="732"/>
      <point x="112" y="673"/>
      <point x="112" y="556" type="curve" smooth="yes"/>
      <point x="112" y="496" type="line"/>
    </contour>
  </outline>
</glyph>
<glyph name="g" format="2">
  <advance width="1050"/>
  <unicode hex="0067"/>
  <anchor x="483" y="-256" name="bottom"/>
  <anchor x="471" y="506" name="top"/>
  <outline>
    <contour>
      <point x="473" y="149" type="curve" smooth="yes"/>
      <point x="719" y="149"/>
      <point x="866" y="245"/>
      <point x="866" y="353" type="curve" smooth="yes"/>
      <point x="866" y="463"/>
      <point x="685" y="519"/>
      <point x="499" y="519" type="curve" smooth="yes"/>
      <point x="253" y="519"/>
      <point x="104" y="413"/>
      <point x="104" y="315" type="curve" smooth="yes"/>
      <point x="104" y="216"/>
      <point x="287" y="149"/>
    </contour>
    <contour>
      <point x="508" y="198" type="curve" smooth="yes"/>
      <point x="374" y="198"/>
      <point x="310" y="271"/>
      <point x="310" y="353" type="curve" smooth="yes"/>
      <point x="310" y="434"/>
      <point x="384" y="474"/>
      <point x="452" y="474" type="curve" smooth="yes"/>
      <point x="545" y="474"/>
      <point x="656" y="429"/>
      <point x="656" y="315" type="curve" smooth="yes"/>
      <point x="656" y="236"/>
      <point x="580" y="198"/>
    </contour>
    <contour>
      <point x="681" y="472" type="line"/>
      <point x="686" y="435" type="line"/>
      <point x="959" y="408" type="line"/>
      <point x="970" y="485" type="line"/>
    </contour>
    <contour>
      <point x="10" y="-130" type="curve" smooth="yes"/>
      <point x="10" y="-190"/>
      <point x="99" y="-286"/>
      <point x="462" y="-286" type="curve" smooth="yes"/>
      <point x="820" y="-286"/>
      <point x="966" y="-164"/>
      <point x="966" y="-74" type="curve" smooth="yes"/>
      <point x="966" y="0"/>
      <point x="876" y="42"/>
      <point x="673" y="59" type="curve" smooth="yes"/>
      <point x="467" y="76" type="line" smooth="yes"/>
      <point x="411" y="81"/>
      <point x="300" y="101"/>
      <point x="276" y="120" type="curve"/>
      <point x="432" y="195" type="line"/>
      <point x="380" y="214" type="line"/>
      <point x="72" y="80" type="line"/>
      <point x="108" y="48"/>
      <point x="145" y="26"/>
      <point x="183" y="9" type="curve"/>
      <point x="89" y="-14"/>
      <point x="10" y="-69"/>
    </contour>
    <contour>
      <point x="202" y="-95" type="curve" smooth="yes"/>
      <point x="202" y="-65"/>
      <point x="225" y="-32"/>
      <point x="253" y="-14" type="curve"/>
      <point x="302" y="-26"/>
      <point x="392" y="-35"/>
      <point x="444" y="-40" type="curve" smooth="yes"/>
      <point x="625" y="-58" type="line" smooth="yes"/>
      <point x="748" y="-70"/>
      <point x="780" y="-87"/>
      <point x="780" y="-125" type="curve" smooth="yes"/>
      <point x="780" y="-173"/>
      <point x="706" y="-237"/>
      <point x="485" y="-237" type="curve" smooth="yes"/>
      <point x="297" y="-237"/>
      <point x="202" y="-162"/>
    </contour>
  </outline>
</glyph>
<glyph name="h" format="2">
  <advance width="983"/>
  <unicode hex="0068"/>
  <outline>
    <contour>
      <point x="715" y="184" type="line" smooth="yes"/>
      <point x="715" y="50"/>
      <point x="708" y="22"/>
      <point x="701" y="0" type="curve"/>
      <point x="918" y="0" type="line"/>
      <point x="911" y="23"/>
      <point x="903" y="56"/>
      <point x="903" y="231" type="curve" smooth="yes"/>
      <point x="903" y="299" type="line" smooth="yes"/>
      <point x="903" y="468"/>
      <point x="789" y="523"/>
      <point x="600" y="523" type="curve" smooth="yes"/>
      <point x="547" y="523"/>
      <point x="312" y="427"/>
      <point x="269" y="391" type="curve"/>
      <point x="269" y="745" type="line"/>
      <point x="56" y="685" type="line"/>
      <point x="59" y="683"/>
      <point x="83" y="639"/>
      <point x="83" y="567" type="curve" smooth="yes"/>
      <point x="81" y="231" type="line" smooth="yes"/>
      <point x="80" y="57"/>
      <point x="73" y="25"/>
      <point x="66" y="0" type="curve"/>
      <point x="283" y="0" type="line"/>
      <point x="278" y="25"/>
      <point x="269" y="34"/>
      <point x="269" y="214" type="curve" smooth="yes"/>
      <point x="269" y="341" type="line"/>
      <point x="352" y="391"/>
      <point x="454" y="407"/>
      <point x="514" y="407" type="curve" smooth="yes"/>
      <point x="631" y="407"/>
      <point x="715" y="370"/>
      <point x="715" y="255" type="curve" smooth="yes"/>
    </contour>
  </outline>
</glyph>
<glyph name="k" format="2">
  <advance width="926"/>
  <unicode hex="006B"/>
  <anchor x="449" y="0" name="bottom"/>
  <outline>
    <component base="l"/>
    <contour>
      <point x="839" y="505" type="curve"/>
      <point x="839" y="508" type="line"/>
      <point x="675" y="508" type="line"/>
      <point x="663" y="488"/>
      <point x="629" y="472"/>
      <point x="608" y="461" type="curve"/>
      <point x="262" y="283" type="line"/>
      <point x="266" y="220" type="line"/>
      <point x="653" y="428" type="line"/>
      <point x="653" y="428"/>
      <point x="754" y="481"/>
    </contour>
    <contour>
      <point x="906" y="0" type="line"/>
      <point x="906" y="4" type="line"/>
      <point x="858" y="27"/>
      <point x="801" y="65"/>
      <point x="748" y="120" type="curve" smooth="yes"/>
      <point x="490" y="383" type="line"/>
      <point x="326" y="295" type="line"/>
      <point x="527" y="83" type="line" smooth="yes"/>
      <point x="549" y="60"/>
      <point x="564" y="43"/>
      <point x="581" y="0" type="curve"/>
    </contour>
  </outline>
</glyph>
<glyph name="l" format="2">
  <advance width="353"/>
  <unicode hex="006C"/>
  <anchor x="186" y="0" name="bottom"/>
  <anchor x="298" y="0" name="ogonek"/>
  <anchor x="186" y="716" name="top"/>
  <anchor x="334" y="495" name="topright"/>
  <outline>
    <contour>
      <point x="70" y="0" type="curve"/>
      <point x="288" y="0" type="line"/>
      <point x="283" y="25"/>
      <point x="273" y="51"/>
      <point x="273" y="231" type="curve" smooth="yes"/>
      <point x="274" y="745" type="line"/>
      <point x="60" y="685" type="line"/>
      <point x="63" y="683"/>
      <point x="86" y="644"/>
      <point x="86" y="572" type="curve" smooth="yes"/>
      <point x="85" y="231" type="line" smooth="yes"/>
      <point x="84" y="57"/>
      <point x="77" y="25"/>
    </contour>
  </outline>
</glyph>
<glyph name="m" format="2">
  <advance width="1594"/>
  <unicode hex="006D"/>
  <outline>
    <contour>
      <point x="66" y="0" type="curve"/>
      <point x="283" y="0" type="line"/>
      <point x="278" y="25"/>
      <point x="269" y="34"/>
      <point x="269" y="214" type="curve" smooth="yes"/>
      <point x="269" y="341" type="line"/>
      <point x="352" y="391"/>
      <point x="454" y="407"/>
      <point x="514" y="407" type="curve" smooth="yes"/>
      <point x="619" y="407"/>
      <point x="703" y="370"/>
      <point x="703" y="255" type="curve" smooth="yes"/>
      <point x="703" y="184" type="line" smooth="yes"/>
      <point x="703" y="50"/>
      <point x="696" y="22"/>
      <point x="689" y="0" type="curve"/>
      <point x="906" y="0" type="line"/>
      <point x="899" y="23"/>
      <point x="891" y="56"/>
      <point x="891" y="231" type="curve" smooth="yes"/>
      <point x="891" y="299" type="line" smooth="yes"/>
      <point x="891" y="316"/>
      <point x="890" y="331"/>
      <point x="888" y="345" type="curve"/>
      <point x="969" y="391"/>
      <point x="1067" y="407"/>
      <point x="1125" y="407" type="curve" smooth="yes"/>
      <point x="1242" y="407"/>
      <point x="1326" y="370"/>
      <point x="1326" y="255" type="curve" smooth="yes"/>
      <point x="1326" y="184" type="line" smooth="yes"/>
      <point x="1326" y="50"/>
      <point x="1319" y="22"/>
      <point x="1312" y="0" type="curve"/>
      <point x="1529" y="0" type="line"/>
      <point x="1522" y="23"/>
      <point x="1514" y="56"/>
      <point x="1514" y="231" type="curve" smooth="yes"/>
      <point x="1514" y="299" type="line" smooth="yes"/>
      <point x="1514" y="468"/>
      <point x="1400" y="523"/>
      <point x="1211" y="523" type="curve" smooth="yes"/>
      <point x="1160" y="523"/>
      <point x="933" y="430"/>
      <point x="876" y="391" type="curve"/>
      <point x="840" y="489"/>
      <point x="738" y="523"/>
      <point x="590" y="523" type="curve" smooth="yes"/>
      <point x="537" y="523"/>
      <point x="312" y="427"/>
      <point x="269" y="391" type="curve"/>
      <point x="269" y="520" type="line"/>
      <point x="56" y="460" type="line"/>
      <point x="59" y="458"/>
      <point x="83" y="414"/>
      <point x="82" y="342" type="curve" smooth="yes"/>
      <point x="81" y="231" type="line" smooth="yes"/>
      <point x="79" y="57"/>
      <point x="73" y="25"/>
    </contour>
  </outline>
</glyph>
<glyph name="n" format="2">
  <advance width="983"/>
  <unicode hex="006E"/>
  <anchor x="505" y="0" name="bottom"/>
  <anchor x="526" y="508" name="top"/>
  <outline>
    <contour>
      <point x="66" y="0" type="curve"/>
      <point x="283" y="0" type="line"/>
      <point x="278" y="25"/>
      <point x="269" y="34"/>
      <point x="269" y="214" type="curve" smooth="yes"/>
      <point x="269" y="341" type="line"/>
      <point x="352" y="391"/>
      <point x="454" y="407"/>
      <point x="514" y="407" type="curve" smooth="yes"/>
      <point x="631" y="407"/>
      <point x="715" y="370"/>
      <point x="715" y="255" type="curve" smooth="yes"/>
      <point x="715" y="184" type="line" smooth="yes"/>
      <point x="715" y="50"/>
      <point x="708" y="22"/>
      <point x="701" y="0" type="curve"/>
      <point x="918" y="0" type="line"/>
      <point x="911" y="23"/>
      <point x="903" y="56"/>
      <point x="903" y="231" type="curve" smooth="yes"/>
      <point x="903" y="299" type="line" smooth="yes"/>
      <point x="903" y="468"/>
      <point x="789" y="523"/>
      <point x="600" y="523" type="curve" smooth="yes"/>
      <point x="547" y="523"/>
      <point x="312" y="427"/>
      <point x="269" y="391" type="curve"/>
      <point x="269" y="520" type="line"/>
      <point x="56" y="460" type="line"/>
      <point x="59" y="458"/>
      <point x="83" y="414"/>
      <point x="82" y="342" type="curve" smooth="yes"/>
      <point x="81" y="231" type="line" smooth="yes"/>
      <point x="79" y="57"/>
      <point x="73" y="25"/>
    </contour>
  </outline>
</glyph>
<glyph name="o" format="2">
  <advance width="1053"/>
  <unicode hex="006F"/>
  <anchor x="507" y="508" name="top"/>
  <outline>
    <contour>
      <point x="466" y="-11" type="curve" smooth="yes"/>
      <point x="779" y="-11"/>
      <point x="998" y="148"/>
      <point x="998" y="303" type="curve" smooth="yes"/>
      <point x="998" y="424"/>
      <point x="825" y="520"/>
      <point x="587" y="520" type="curve" smooth="yes"/>
      <point x="274" y="520"/>
      <point x="55" y="362"/>
      <point x="55" y="216" type="curve" smooth="yes"/>
      <point x="55" y="86"/>
      <point x="227" y="-11"/>
    </contour>
    <contour>
      <point x="603" y="55" type="curve" smooth="yes"/>
      <point x="375" y="55"/>
      <point x="244" y="182"/>
      <point x="244" y="303" type="curve" smooth="yes"/>
      <point x="244" y="409"/>
      <point x="355" y="453"/>
      <point x="451" y="453" type="curve" smooth="yes"/>
      <point x="623" y="453"/>
      <point x="810" y="361"/>
      <point x="810" y="207" type="curve" smooth="yes"/>
      <point x="810" y="101"/>
      <point x="699" y="55"/>
    </contour>
  </outline>
</glyph>
<glyph name="p" format="2">
  <advance width="1008"/>
  <unicode hex="0070"/>
  <outline>
    <contour>
      <point x="66" y="-256" type="curve"/>
      <point x="284" y="-256" type="line"/>
      <point x="279" y="-239"/>
      <point x="269" y="-207"/>
      <point x="269" y="-25" type="curve" smooth="yes"/>
      <point x="269" y="35" type="line"/>
      <point x="324" y="12"/>
      <point x="404" y="-14"/>
      <point x="525" y="-14" type="curve" smooth="yes"/>
      <point x="719" y="-14"/>
      <point x="953" y="90"/>
      <point x="953" y="276" type="curve" smooth="yes"/>
      <point x="953" y="434"/>
      <point x="829" y="520"/>
      <point x="577" y="520" type="curve" smooth="yes"/>
      <point x="534" y="520"/>
      <point x="414" y="479"/>
      <point x="270" y="378" type="curve"/>
      <point x="270" y="520" type="line"/>
      <point x="56" y="460" type="line"/>
      <point x="59" y="458"/>
      <point x="82" y="414"/>
      <point x="82" y="342" type="curve" smooth="yes"/>
      <point x="81" y="-25" type="line" smooth="yes"/>
      <point x="81" y="-199"/>
      <point x="73" y="-231"/>
    </contour>
    <contour>
      <point x="269" y="145" type="curve"/>
      <point x="270" y="333" type="line"/>
      <point x="389" y="404"/>
      <point x="486" y="398"/>
      <point x="521" y="398" type="curve" smooth="yes"/>
      <point x="622" y="398"/>
      <point x="752" y="341"/>
      <point x="752" y="211" type="curve" smooth="yes"/>
      <point x="752" y="92"/>
      <point x="628" y="40"/>
      <point x="542" y="40" type="curve" smooth="yes"/>
      <point x="383" y="40"/>
      <point x="319" y="95"/>
    </contour>
  </outline>
</glyph>
<glyph name="q" format="2">
  <advance width="1009"/>
  <unicode hex="0071"/>
  <outline>
    <contour>
      <point x="945" y="518" type="curve"/>
      <point x="943" y="519" type="line"/>
      <point x="781" y="457" type="line"/>
      <point x="683" y="494"/>
      <point x="603" y="520"/>
      <point x="483" y="520" type="curve" smooth="yes"/>
      <point x="289" y="520"/>
      <point x="55" y="416"/>
      <point x="55" y="230" type="curve" smooth="yes"/>
      <point x="55" y="72"/>
      <point x="179" y="-14"/>
      <point x="431" y="-14" type="curve" smooth="yes"/>
      <point x="474" y="-14"/>
      <point x="593" y="27"/>
      <point x="737" y="128" type="curve"/>
      <point x="737" y="-25" type="line" smooth="yes"/>
      <point x="737" y="-199"/>
      <point x="729" y="-231"/>
      <point x="722" y="-256" type="curve"/>
      <point x="940" y="-256" type="line"/>
      <point x="935" y="-239"/>
      <point x="925" y="-207"/>
      <point x="925" y="-25" type="curve" smooth="yes"/>
      <point x="926" y="288" type="line" smooth="yes"/>
      <point x="926" y="411"/>
      <point x="929" y="476"/>
    </contour>
    <contour>
      <point x="256" y="295" type="curve" smooth="yes"/>
      <point x="256" y="414"/>
      <point x="380" y="466"/>
      <point x="466" y="466" type="curve" smooth="yes"/>
      <point x="624" y="466"/>
      <point x="690" y="410"/>
      <point x="738" y="362" type="curve"/>
      <point x="738" y="178" type="line"/>
      <point x="617" y="109"/>
      <point x="522" y="108"/>
      <point x="487" y="108" type="curve" smooth="yes"/>
      <point x="386" y="108"/>
      <point x="256" y="165"/>
    </contour>
  </outline>
</glyph>
<glyph name="r" format="2">
  <advance width="693"/>
  <unicode hex="0072"/>
  <anchor x="193" y="0" name="bottom"/>
  <anchor x="341" y="508" name="top"/>
  <outline>
    <contour>
      <point x="66" y="0" type="curve"/>
      <point x="284" y="0" type="line"/>
      <point x="279" y="25"/>
      <point x="269" y="51"/>
      <point x="269" y="231" type="curve" smooth="yes"/>
      <point x="269" y="299" type="line"/>
      <point x="326" y="385"/>
      <point x="430" y="407"/>
      <point x="493" y="407" type="curve" smooth="yes"/>
      <point x="531" y="407"/>
      <point x="591" y="398"/>
      <point x="631" y="380" type="curve"/>
      <point x="611" y="514" type="line"/>
      <point x="585" y="519"/>
      <point x="564" y="520"/>
      <point x="528" y="520" type="curve" smooth="yes"/>
      <point x="450" y="520"/>
      <point x="328" y="449"/>
      <point x="269" y="357" type="curve"/>
      <point x="270" y="520" type="line"/>
      <point x="56" y="460" type="line"/>
      <point x="59" y="458"/>
      <point x="83" y="414"/>
      <point x="82" y="342" type="curve" smooth="yes"/>
      <point x="81" y="231" type="line" smooth="yes"/>
      <point x="79" y="57"/>
      <point x="73" y="25"/>
    </contour>
  </outline>
</glyph>
<glyph name="s" format="2">
  <advance width="901"/>
  <unicode hex="0073"/>
  <anchor x="463" y="-11" name="bottom"/>
  <anchor x="443" y="508" name="top"/>
  <outline>
    <contour>
      <point x="453" y="-25" type="curve" smooth="yes"/>
      <point x="593" y="-25"/>
      <point x="841" y="24"/>
      <point x="841" y="147" type="curve" smooth="yes"/>
      <point x="841" y="223"/>
      <point x="786" y="273"/>
      <point x="537" y="331" type="curve" smooth="yes"/>
      <point x="473" y="346" type="line" smooth="yes"/>
      <point x="329" y="380"/>
      <point x="271" y="409"/>
      <point x="271" y="441" type="curve" smooth="yes"/>
      <point x="271" y="468"/>
      <point x="299" y="486"/>
      <point x="385" y="486" type="curve" smooth="yes"/>
      <point x="537" y="486"/>
      <point x="700" y="408"/>
      <point x="779" y="316" type="curve"/>
      <point x="786" y="320" type="line"/>
      <point x="753" y="479" type="line"/>
      <point x="661" y="513"/>
      <point x="539" y="530"/>
      <point x="432" y="530" type="curve" smooth="yes"/>
      <point x="222" y="530"/>
      <point x="94" y="469"/>
      <point x="94" y="386" type="curve" smooth="yes"/>
      <point x="94" y="307"/>
      <point x="203" y="261"/>
      <point x="394" y="217" type="curve" smooth="yes"/>
      <point x="463" y="201" type="line" smooth="yes"/>
      <point x="612" y="166"/>
      <point x="637" y="149"/>
      <point x="637" y="99" type="curve" smooth="yes"/>
      <point x="637" y="50"/>
      <point x="571" y="26"/>
      <point x="500" y="26" type="curve" smooth="yes"/>
      <point x="354" y="26"/>
      <point x="180" y="122"/>
      <point x="77" y="256" type="curve"/>
      <point x="70" y="252" type="line"/>
      <point x="85" y="63" type="line"/>
      <point x="198" y="10"/>
      <point x="311" y="-25"/>
    </contour>
  </outline>
</glyph>
<glyph name="t" format="2">
  <advance width="733"/>
  <unicode hex="0074"/>
  <anchor x="378" y="0" name="bottom"/>
  <anchor x="250" y="254" name="center"/>
  <anchor x="430" y="508" name="topright"/>
  <outline>
    <contour>
      <point x="15" y="492" type="curve"/>
      <point x="15" y="463" type="line"/>
      <point x="131" y="460" type="line"/>
      <point x="131" y="190" type="line" smooth="yes"/>
      <point x="131" y="61"/>
      <point x="219" y="-12"/>
      <point x="380" y="-12" type="curve" smooth="yes"/>
      <point x="531" y="-12"/>
      <point x="639" y="46"/>
      <point x="718" y="195" type="curve"/>
      <point x="713" y="198" type="line"/>
      <point x="645" y="115"/>
      <point x="549" y="86"/>
      <point x="469" y="86" type="curve" smooth="yes"/>
      <point x="371" y="86"/>
      <point x="319" y="134"/>
      <point x="319" y="225" type="curve" smooth="yes"/>
      <point x="319" y="457" type="line"/>
      <point x="645" y="450" type="line"/>
      <point x="654" y="514" type="line"/>
      <point x="319" y="506" type="line"/>
      <point x="319" y="652" type="line"/>
      <point x="312" y="652" type="line"/>
      <point x="259" y="546"/>
      <point x="115" y="498"/>
    </contour>
  </outline>
</glyph>
<glyph name="u" format="2">
  <advance width="975"/>
  <unicode hex="0075"/>
  <anchor x="820" y="40" name="ogonek"/>
  <anchor x="473" y="508" name="top"/>
  <anchor x="829" y="508" name="topright"/>
  <outline>
    <contour>
      <point x="886" y="520" type="line"/>
      <point x="672" y="460" type="line"/>
      <point x="675" y="458"/>
      <point x="696" y="414"/>
      <point x="696" y="342" type="curve" smooth="yes"/>
      <point x="696" y="157" type="line"/>
      <point x="602" y="108"/>
      <point x="510" y="101"/>
      <point x="460" y="101" type="curve" smooth="yes"/>
      <point x="345" y="101"/>
      <point x="269" y="137"/>
      <point x="269" y="248" type="curve" smooth="yes"/>
      <point x="270" y="520" type="line"/>
      <point x="56" y="460" type="line"/>
      <point x="59" y="458"/>
      <point x="81" y="414"/>
      <point x="80" y="342" type="curve" smooth="yes"/>
      <point x="79" y="209" type="line" smooth="yes"/>
      <point x="78" y="20"/>
      <point x="205" y="-15"/>
      <point x="374" y="-15" type="curve" smooth="yes"/>
      <point x="434" y="-15"/>
      <point x="651" y="81"/>
      <point x="696" y="107" type="curve"/>
      <point x="696" y="-12" type="line"/>
      <point x="910" y="48" type="line"/>
      <point x="907" y="50"/>
      <point x="884" y="94"/>
      <point x="884" y="166" type="curve" smooth="yes"/>
    </contour>
  </outline>
</glyph>
<glyph name="v" format="2">
  <advance width="963"/>
  <unicode hex="0076"/>
  <outline>
    <contour>
      <point x="568" y="0" type="line"/>
      <point x="842" y="378" type="line" smooth="yes"/>
      <point x="870" y="417"/>
      <point x="910" y="461"/>
      <point x="953" y="509" type="curve"/>
      <point x="836" y="509" type="line"/>
      <point x="813" y="451"/>
      <point x="794" y="416"/>
      <point x="765" y="376" type="curve" smooth="yes"/>
      <point x="583" y="122" type="line"/>
      <point x="347" y="398" type="line" smooth="yes"/>
      <point x="314" y="437"/>
      <point x="295" y="465"/>
      <point x="275" y="509" type="curve"/>
      <point x="10" y="509" type="line"/>
      <point x="60" y="461"/>
      <point x="92" y="428"/>
      <point x="118" y="397" type="curve" smooth="yes"/>
      <point x="466" y="-12" type="line"/>
    </contour>
  </outline>
</glyph>
<glyph name="w" format="2">
  <advance width="1419"/>
  <unicode hex="0077"/>
  <outline>
    <contour>
      <point x="984" y="-12" type="line"/>
      <point x="1073" y="0" type="line"/>
      <point x="1310" y="378" type="line" smooth="yes"/>
      <point x="1335" y="418"/>
      <point x="1366" y="461"/>
      <point x="1409" y="509" type="curve"/>
      <point x="1301" y="509" type="line"/>
      <point x="1283" y="451"/>
      <point x="1261" y="416"/>
      <point x="1237" y="376" type="curve" smooth="yes"/>
      <point x="1082" y="122" type="line"/>
      <point x="896" y="398" type="line" smooth="yes"/>
      <point x="869" y="438"/>
      <point x="849" y="468"/>
      <point x="836" y="507" type="curve"/>
      <point x="580" y="508" type="line"/>
      <point x="626" y="460"/>
      <point x="654" y="429"/>
      <point x="679" y="395" type="curve"/>
      <point x="676" y="389"/>
      <point x="672" y="382"/>
      <point x="668" y="376" type="curve" smooth="yes"/>
      <point x="513" y="122" type="line"/>
      <point x="327" y="398" type="line" smooth="yes"/>
      <point x="298" y="441"/>
      <point x="275" y="473"/>
      <point x="269" y="509" type="curve"/>
      <point x="10" y="509" type="line"/>
      <point x="56" y="461"/>
      <point x="84" y="429"/>
      <point x="108" y="397" type="curve" smooth="yes"/>
      <point x="415" y="-12" type="line"/>
      <point x="511" y="12" type="line"/>
      <point x="718" y="342" type="line"/>
    </contour>
  </outline>
</glyph>
<glyph name="x" format="2">
  <advance width="1011"/>
  <unicode hex="0078"/>
  <outline>
    <contour>
      <point x="376" y="508" type="curve"/>
      <point x="39" y="508" type="line"/>
      <point x="114" y="459"/>
      <point x="181" y="406"/>
      <point x="201" y="390" type="curve" smooth="yes"/>
      <point x="373" y="250" type="line"/>
      <point x="190" y="112" type="line" smooth="yes"/>
      <point x="102" y="46"/>
      <point x="65" y="30"/>
      <point x="10" y="-1" type="curve"/>
      <point x="167" y="-1" type="line"/>
      <point x="201" y="44"/>
      <point x="212" y="54"/>
      <point x="260" y="90" type="curve" smooth="yes"/>
      <point x="421" y="211" type="line"/>
      <point x="542" y="112" type="line" smooth="yes"/>
      <point x="568" y="91"/>
      <point x="631" y="35"/>
      <point x="650" y="-1" type="curve"/>
      <point x="1001" y="-1" type="line"/>
      <point x="969" y="17"/>
      <point x="829" y="114"/>
      <point x="778" y="159" type="curve"/>
      <point x="592" y="308" type="line"/>
      <point x="720" y="402" type="line" smooth="yes"/>
      <point x="797" y="459"/>
      <point x="831" y="477"/>
      <point x="888" y="508" type="curve"/>
      <point x="736" y="508" type="line"/>
      <point x="715" y="475"/>
      <point x="693" y="453"/>
      <point x="653" y="424" type="curve" smooth="yes"/>
      <point x="545" y="345" type="line"/>
      <point x="494" y="386" type="line" smooth="yes"/>
      <point x="438" y="431"/>
      <point x="393" y="477"/>
    </contour>
  </outline>
</glyph>
<glyph name="y" format="2">
  <advance width="962"/>
  <unicode hex="0079"/>
  <anchor x="601" y="0" name="bottom"/>
  <anchor x="599" y="508" name="top"/>
  <outline>
    <contour>
      <point x="601" y="69" type="curve"/>
      <point x="814" y="341" type="line"/>
      <point x="858" y="397"/>
      <point x="901" y="452"/>
      <point x="952" y="508" type="curve"/>
      <point x="803" y="508" type="line"/>
      <point x="799" y="488"/>
      <point x="782" y="400"/>
      <point x="728" y="330" type="curve" smooth="yes"/>
      <point x="578" y="133" type="line"/>
      <point x="403" y="330" type="line" smooth="yes"/>
      <point x="333" y="409"/>
      <point x="314" y="465"/>
      <point x="309" y="506" type="curve"/>
      <point x="10" y="508" type="line"/>
      <point x="71" y="451"/>
      <point x="122" y="394"/>
      <point x="173" y="337" type="curve"/>
      <point x="466" y="8" type="line"/>
      <point x="421" y="-22" type="line"/>
      <point x="372" y="-49"/>
      <point x="321" y="-59"/>
      <point x="264" y="-59" type="curve" smooth="yes"/>
      <point x="188" y="-59"/>
      <point x="148" y="-39"/>
      <point x="91" y="-2" type="curve"/>
      <point x="146" y="-178" type="line"/>
      <point x="146" y="-178"/>
      <point x="185" y="-212"/>
      <point x="264" y="-212" type="curve" smooth="yes"/>
      <point x="388" y="-212"/>
      <point x="508" y="-43"/>
    </contour>
  </outline>
</glyph>
<glyph name="z" format="2">
  <advance width="906"/>
  <unicode hex="007A"/>
  <anchor x="462" y="0" name="bottom"/>
  <anchor x="462" y="254" name="center"/>
  <anchor x="462" y="508" name="top"/>
  <outline>
    <contour>
      <point x="94" y="514" type="line"/>
      <point x="64" y="341" type="line"/>
      <point x="153" y="403"/>
      <point x="224" y="455"/>
      <point x="419" y="462" type="curve" smooth="yes"/>
      <point x="561" y="467" type="line"/>
      <point x="547" y="445"/>
      <point x="530" y="425"/>
      <point x="504" y="403" type="curve"/>
      <point x="31" y="4" type="line"/>
      <point x="30" y="0" type="line"/>
      <point x="247" y="0" type="line"/>
      <point x="853" y="-3" type="line"/>
      <point x="896" y="170" type="line"/>
      <point x="889" y="173" type="line"/>
      <point x="809" y="102"/>
      <point x="681" y="53"/>
      <point x="524" y="46" type="curve" smooth="yes"/>
      <point x="364" y="39" type="line"/>
      <point x="375" y="61"/>
      <point x="408" y="107"/>
      <point x="443" y="138" type="curve" smooth="yes"/>
      <point x="872" y="508" type="line"/>
      <point x="674" y="508" type="line"/>
    </contour>
  </outline>
</glyph>
<glyph name="braceleft" format="2">
  <advance width="493"/>
  <unicode hex="007B"/>
  <outline>
    <contour>
      <point x="152" y="566" type="curve" smooth="yes"/>
      <point x="152" y="496"/>
      <point x="174" y="438"/>
      <point x="174" y="394" type="curve" smooth="yes"/>
      <point x="174" y="330"/>
      <point x="121" y="280"/>
      <point x="-15" y="277" type="curve"/>
      <point x="-15" y="260" type="line"/>
      <point x="178" y="260" type="line"/>
      <point x="242" y="274"/>
      <point x="391" y="324"/>
      <point x="391" y="403" type="curve" smooth="yes"/>
      <point x="391" y="467"/>
      <point x="372" y="513"/>
      <point x="372" y="603" type="curve" smooth="yes"/>
      <point x="372" y="682"/>
      <point x="409" y="710"/>
      <point x="528" y="710" type="curve"/>
      <point x="528" y="744" type="line"/>
      <point x="358" y="744"/>
      <point x="152" y="701"/>
    </contour>
    <contour>
      <point x="152" y="-46" type="curve" smooth="yes"/>
      <point x="152" y="-181"/>
      <point x="358" y="-224"/>
      <point x="528" y="-224" type="curve"/>
      <point x="528" y="-190" type="line"/>
      <point x="409" y="-190"/>
      <point x="372" y="-162"/>
      <point x="372" y="-83" type="curve" smooth="yes"/>
      <point x="372" y="7"/>
      <point x="391" y="53"/>
      <point x="391" y="117" type="curve" smooth="yes"/>
      <point x="391" y="196"/>
      <point x="242" y="246"/>
      <point x="178" y="260" type="curve"/>
      <point x="-15" y="260" type="line"/>
      <point x="-15" y="243" type="line"/>
      <point x="121" y="240"/>
      <point x="174" y="190"/>
      <point x="174" y="126" type="curve" smooth="yes"/>
      <point x="174" y="82"/>
      <point x="152" y="24"/>
    </contour>
  </outline>
</glyph>
<glyph name="bar" format="2">
  <advance width="257"/>
  <unicode hex="007C"/>
  <outline>
    <contour>
      <point x="167" y="-230" type="line"/>
      <point x="166" y="-216"/>
      <point x="164" y="-167"/>
      <point x="163" y="-115"/>
      <point x="163" y="-66"/>
      <point x="163" y="-21" type="qcurve" smooth="yes"/>
      <point x="163" y="531" type="line" smooth="yes"/>
      <point x="163" y="586"/>
      <point x="163" y="635"/>
      <point x="164" y="687"/>
      <point x="166" y="736"/>
      <point x="167" y="750" type="qcurve"/>
      <point x="90" y="750" type="line"/>
      <point x="91" y="736"/>
      <point x="93" y="687"/>
      <point x="95" y="635"/>
      <point x="95" y="586"/>
      <point x="95" y="531" type="qcurve" smooth="yes"/>
      <point x="95" y="-21" type="line" smooth="yes"/>
      <point x="95" y="-66"/>
      <point x="95" y="-115"/>
      <point x="93" y="-167"/>
      <point x="91" y="-216"/>
      <point x="90" y="-230" type="qcurve"/>
    </contour>
  </outline>
</glyph>
<glyph name="asciitilde" format="2">
  <advance width="788"/>
  <unicode hex="007E"/>
  <outline>
    <contour>
      <point x="70" y="219" type="curve"/>
      <point x="73" y="213" type="line"/>
      <point x="88" y="239"/>
      <point x="136" y="257"/>
      <point x="197" y="257" type="curve" smooth="yes"/>
      <point x="288" y="257"/>
      <point x="445" y="213"/>
      <point x="554" y="213" type="curve" smooth="yes"/>
      <point x="643" y="213"/>
      <point x="702" y="274"/>
      <point x="718" y="339" type="curve"/>
      <point x="715" y="345" type="line"/>
      <point x="699" y="319"/>
      <point x="652" y="301"/>
      <point x="600" y="301" type="curve" smooth="yes"/>
      <point x="474" y="301"/>
      <point x="343" y="345"/>
      <point x="231" y="345" type="curve" smooth="yes"/>
      <point x="139" y="345"/>
      <point x="85" y="274"/>
    </contour>
  </outline>
</glyph>
<glyph name="sterling" format="2">
  <advance width="947"/>
  <unicode hex="00A3"/>
  <outline>
    <contour>
      <point x="221" y="305" type="line"/>
      <point x="243" y="203"/>
      <point x="167" y="137"/>
      <point x="41" y="35" type="curve"/>
      <point x="44" y="0" type="line"/>
      <point x="837" y="-4" type="line"/>
      <point x="887" y="235" type="line"/>
      <point x="875" y="244" type="line"/>
      <point x="750" y="106"/>
      <point x="473" y="59"/>
      <point x="264" y="56" type="curve"/>
      <point x="347" y="127"/>
      <point x="458" y="174"/>
      <point x="427" y="320" type="curve"/>
      <point x="418" y="349" type="line"/>
      <point x="603" y="349" type="line"/>
      <point x="603" y="395" type="line"/>
      <point x="394" y="395" type="line"/>
      <point x="362" y="444"/>
      <point x="321" y="487"/>
      <point x="321" y="555" type="curve" smooth="yes"/>
      <point x="321" y="626"/>
      <point x="370" y="676"/>
      <point x="442" y="676" type="curve" smooth="yes"/>
      <point x="553" y="676"/>
      <point x="691" y="548"/>
      <point x="747" y="408" type="curve"/>
      <point x="772" y="649" type="line"/>
      <point x="700" y="696"/>
      <point x="578" y="720"/>
      <point x="472" y="720" type="curve" smooth="yes"/>
      <point x="244" y="720"/>
      <point x="132" y="616"/>
      <point x="132" y="518" type="curve" smooth="yes"/>
      <point x="132" y="468"/>
      <point x="155" y="435"/>
      <point x="179" y="395" type="curve"/>
      <point x="61" y="395" type="line"/>
      <point x="61" y="349" type="line"/>
      <point x="204" y="349" type="line"/>
    </contour>
  </outline>
</glyph>
<glyph name="currency" format="2">
  <advance width="664"/>
  <unicode hex="00A4"/>
  <outline>
    <contour>
      <point x="328" y="68" type="curve" smooth="yes"/>
      <point x="446" y="68"/>
      <point x="582" y="158"/>
      <point x="582" y="268" type="curve" smooth="yes"/>
      <point x="582" y="399"/>
      <point x="467" y="464"/>
      <point x="328" y="464" type="curve" smooth="yes"/>
      <point x="205" y="464"/>
      <point x="69" y="375"/>
      <point x="69" y="268" type="curve"/>
      <point x="69" y="135"/>
      <point x="216" y="68"/>
    </contour>
    <contour>
      <point x="342" y="122" type="curve" smooth="yes"/>
      <point x="264" y="122"/>
      <point x="199" y="196"/>
      <point x="199" y="286" type="curve" smooth="yes"/>
      <point x="199" y="355"/>
      <point x="229" y="413"/>
      <point x="313" y="413" type="curve" smooth="yes"/>
      <point x="388" y="413"/>
      <point x="452" y="334"/>
      <point x="452" y="247" type="curve" smooth="yes"/>
      <point x="452" y="176"/>
      <point x="424" y="122"/>
    </contour>
    <contour>
      <point x="507" y="405" type="line"/>
      <point x="545" y="373" type="line"/>
      <point x="614" y="442" type="line"/>
      <point x="579" y="477" type="line"/>
    </contour>
    <contour>
      <point x="122" y="370" type="line"/>
      <point x="155" y="407" type="line"/>
      <point x="85" y="477" type="line"/>
      <point x="50" y="442" type="line"/>
    </contour>
    <contour>
      <point x="540" y="172" type="line"/>
      <point x="507" y="135" type="line"/>
      <point x="579" y="63" type="line"/>
      <point x="614" y="98" type="line"/>
    </contour>
    <contour>
      <point x="157" y="135" type="line"/>
      <point x="118" y="166" type="line"/>
      <point x="50" y="98" type="line"/>
      <point x="85" y="63" type="line"/>
    </contour>
  </outline>
</glyph>
<glyph name="yen" format="2">
  <advance width="1060"/>
  <unicode hex="00A5"/>
  <outline>
    <component base="Y"/>
    <contour>
      <point x="831" y="290" type="line"/>
      <point x="241" y="290" type="line"/>
      <point x="241" y="244" type="line"/>
      <point x="831" y="244" type="line"/>
    </contour>
    <contour>
      <point x="831" y="165" type="line"/>
      <point x="241" y="165" type="line"/>
      <point x="241" y="119" type="line"/>
      <point x="831" y="119" type="line"/>
    </contour>
  </outline>
</glyph>
<glyph name="brokenbar" format="2">
  <advance width="256"/>
  <unicode hex="00A6"/>
  <outline>
    <contour>
      <point x="166" y="310" type="line"/>
      <point x="165" y="324"/>
      <point x="163" y="373"/>
      <point x="162" y="425"/>
      <point x="162" y="474"/>
      <point x="162" y="519" type="qcurve" smooth="yes"/>
      <point x="162" y="531" type="line" smooth="yes"/>
      <point x="162" y="586"/>
      <point x="162" y="635"/>
      <point x="163" y="687"/>
      <point x="165" y="736"/>
      <point x="166" y="750" type="qcurve"/>
      <point x="90" y="750" type="line"/>
      <point x="91" y="736"/>
      <point x="93" y="687"/>
      <point x="95" y="635"/>
      <point x="95" y="586"/>
      <point x="95" y="531" type="qcurve" smooth="yes"/>
      <point x="95" y="519" type="line" smooth="yes"/>
      <point x="95" y="474"/>
      <point x="95" y="425"/>
      <point x="93" y="373"/>
      <point x="91" y="324"/>
      <point x="90" y="310" type="qcurve"/>
    </contour>
    <contour>
      <point x="166" y="-230" type="line"/>
      <point x="165" y="-216"/>
      <point x="163" y="-167"/>
      <point x="162" y="-115"/>
      <point x="162" y="-66"/>
      <point x="162" y="-21" type="qcurve" smooth="yes"/>
      <point x="162" y="-9" type="line" smooth="yes"/>
      <point x="162" y="46"/>
      <point x="162" y="95"/>
      <point x="163" y="147"/>
      <point x="165" y="196"/>
      <point x="166" y="210" type="qcurve"/>
      <point x="90" y="210" type="line"/>
      <point x="91" y="196"/>
      <point x="93" y="147"/>
      <point x="95" y="95"/>
      <point x="95" y="46"/>
      <point x="95" y="-9" type="qcurve" smooth="yes"/>
      <point x="95" y="-21" type="line" smooth="yes"/>
      <point x="95" y="-66"/>
      <point x="95" y="-115"/>
      <point x="93" y="-167"/>
      <point x="91" y="-216"/>
      <point x="90" y="-230" type="qcurve"/>
    </contour>
  </outline>
</glyph>
<glyph name="section" format="2">
  <advance width="765"/>
  <unicode hex="00A7"/>
  <outline>
    <contour>
      <point x="90" y="534" type="curve" smooth="yes"/>
      <point x="90" y="481"/>
      <point x="138" y="430"/>
      <point x="227" y="400" type="curve"/>
      <point x="106" y="369"/>
      <point x="40" y="283"/>
      <point x="40" y="202" type="curve" smooth="yes"/>
      <point x="40" y="111"/>
      <point x="141" y="27"/>
      <point x="277" y="-12" type="curve" smooth="yes"/>
      <point x="392" y="-45" type="line" smooth="yes"/>
      <point x="538" y="-87"/>
      <point x="555" y="-108"/>
      <point x="555" y="-138" type="curve" smooth="yes"/>
      <point x="555" y="-165"/>
      <point x="503" y="-193"/>
      <point x="438" y="-193" type="curve" smooth="yes"/>
      <point x="349" y="-193"/>
      <point x="239" y="-166"/>
      <point x="157" y="-38" type="curve"/>
      <point x="155" y="-40" type="line"/>
      <point x="164" y="-209" type="line"/>
      <point x="241" y="-233"/>
      <point x="307" y="-248"/>
      <point x="409" y="-248" type="curve" smooth="yes"/>
      <point x="564" y="-248"/>
      <point x="675" y="-161"/>
      <point x="675" y="-72" type="curve" smooth="yes"/>
      <point x="675" y="-19"/>
      <point x="627" y="32"/>
      <point x="538" y="62" type="curve"/>
      <point x="619" y="93"/>
      <point x="725" y="179"/>
      <point x="725" y="260" type="curve" smooth="yes"/>
      <point x="725" y="351"/>
      <point x="651" y="427"/>
      <point x="488" y="474" type="curve" smooth="yes"/>
      <point x="373" y="507" type="line" smooth="yes"/>
      <point x="227" y="549"/>
      <point x="210" y="570"/>
      <point x="210" y="600" type="curve" smooth="yes"/>
      <point x="210" y="627"/>
      <point x="252" y="655"/>
      <point x="327" y="655" type="curve" smooth="yes"/>
      <point x="416" y="655"/>
      <point x="526" y="628"/>
      <point x="608" y="500" type="curve"/>
      <point x="590" y="502" type="line"/>
      <point x="601" y="671" type="line"/>
      <point x="524" y="695"/>
      <point x="458" y="710"/>
      <point x="356" y="710" type="curve" smooth="yes"/>
      <point x="201" y="710"/>
      <point x="90" y="623"/>
    </contour>
    <contour>
      <point x="207" y="250" type="curve" smooth="yes"/>
      <point x="207" y="285"/>
      <point x="218" y="331"/>
      <point x="285" y="375" type="curve"/>
      <point x="294" y="372"/>
      <point x="303" y="369"/>
      <point x="312" y="366" type="curve"/>
      <point x="415" y="336" type="line" smooth="yes"/>
      <point x="513" y="307"/>
      <point x="558" y="267"/>
      <point x="558" y="212" type="curve" smooth="yes"/>
      <point x="558" y="177"/>
      <point x="547" y="131"/>
      <point x="480" y="87" type="curve"/>
      <point x="471" y="90"/>
      <point x="462" y="93"/>
      <point x="453" y="96" type="curve"/>
      <point x="350" y="126" type="line" smooth="yes"/>
      <point x="252" y="155"/>
      <point x="207" y="195"/>
    </contour>
  </outline>
</glyph>
<glyph name="copyright" format="2">
  <advance width="1330"/>
  <unicode hex="00A9"/>
  <outline>
    <contour>
      <point x="665" y="-8" type="curve" smooth="yes"/>
      <point x="361" y="-8"/>
      <point x="130" y="125"/>
      <point x="130" y="331" type="curve" smooth="yes"/>
      <point x="130" y="537"/>
      <point x="361" y="684"/>
      <point x="665" y="684" type="curve" smooth="yes"/>
      <point x="970" y="684"/>
      <point x="1200" y="537"/>
      <point x="1200" y="331" type="curve" smooth="yes"/>
      <point x="1200" y="125"/>
      <point x="969" y="-8"/>
    </contour>
    <contour>
      <point x="665" y="-54" type="curve" smooth="yes"/>
      <point x="1035" y="-54"/>
      <point x="1250" y="119"/>
      <point x="1250" y="331" type="curve" smooth="yes"/>
      <point x="1250" y="543"/>
      <point x="1035" y="730"/>
      <point x="665" y="730" type="curve" smooth="yes"/>
      <point x="295" y="730"/>
      <point x="80" y="543"/>
      <point x="80" y="331" type="curve" smooth="yes"/>
      <point x="80" y="119"/>
      <point x="295" y="-54"/>
    </contour>
    <component base="c" xScale="0.8" yScale="0.8" xOffset="276" yOffset="132"/>
  </outline>
</glyph>
<glyph name="ordfeminine" format="2">
  <advance width="519"/>
  <unicode hex="00AA"/>
  <outline>
    <contour>
      <point x="500" y="443" type="line"/>
      <point x="500" y="444" type="line"/>
      <point x="496" y="447"/>
      <point x="486" y="462"/>
      <point x="486" y="516" type="curve" smooth="yes"/>
      <point x="486" y="595" type="line" smooth="yes"/>
      <point x="486" y="653"/>
      <point x="447" y="709"/>
      <point x="274" y="709" type="curve" smooth="yes"/>
      <point x="176" y="709"/>
      <point x="79" y="676"/>
      <point x="47" y="660" type="curve"/>
      <point x="65" y="578" type="line"/>
      <point x="66" y="578" type="line"/>
      <point x="127" y="632"/>
      <point x="190" y="656"/>
      <point x="257" y="656" type="curve" smooth="yes"/>
      <point x="326" y="656"/>
      <point x="346" y="634"/>
      <point x="346" y="585" type="curve" smooth="yes"/>
      <point x="346" y="580" type="line"/>
      <point x="310" y="584"/>
      <point x="270" y="587"/>
      <point x="237" y="587" type="curve" smooth="yes"/>
      <point x="129" y="587"/>
      <point x="32" y="547"/>
      <point x="32" y="490" type="curve"/>
      <point x="32" y="457"/>
      <point x="61" y="420"/>
      <point x="170" y="420" type="curve" smooth="yes"/>
      <point x="208" y="420"/>
      <point x="290" y="467"/>
      <point x="345" y="497" type="curve"/>
      <point x="346" y="475"/>
      <point x="347" y="450"/>
      <point x="348" y="426" type="curve"/>
    </contour>
    <contour>
      <point x="169" y="524" type="curve" smooth="yes"/>
      <point x="169" y="544"/>
      <point x="201" y="565"/>
      <point x="346" y="558" type="curve"/>
      <point x="345" y="534" type="line"/>
      <point x="278" y="508"/>
      <point x="257" y="501"/>
      <point x="216" y="501" type="curve" smooth="yes"/>
      <point x="180" y="501"/>
      <point x="169" y="512"/>
    </contour>
  </outline>
</glyph>
<glyph name="guillemetleft" format="2">
  <advance width="865"/>
  <unicode hex="00AB"/>
  <outline>
    <contour>
      <point x="387" y="256" type="line"/>
      <point x="825" y="479" type="line"/>
      <point x="571" y="256" type="line"/>
      <point x="825" y="34" type="line"/>
    </contour>
    <contour>
      <point x="70" y="256" type="line"/>
      <point x="506" y="479" type="line"/>
      <point x="254" y="256" type="line"/>
      <point x="506" y="34" type="line"/>
    </contour>
  </outline>
</glyph>
<glyph name="logicalnot" format="2">
  <advance width="932"/>
  <unicode hex="00AC"/>
  <outline>
    <contour>
      <point x="862" y="279" type="line"/>
      <point x="70" y="279" type="line"/>
      <point x="70" y="233" type="line"/>
      <point x="816" y="233" type="line"/>
      <point x="816" y="67" type="line"/>
      <point x="862" y="67" type="line"/>
    </contour>
  </outline>
</glyph>
<glyph name="registered" format="2">
  <advance width="600"/>
  <unicode hex="00AE"/>
  <outline>
    <contour>
      <point x="300" y="331" type="curve" smooth="yes"/>
      <point x="173" y="331"/>
      <point x="86" y="418"/>
      <point x="86" y="525" type="curve" smooth="yes"/>
      <point x="86" y="631"/>
      <point x="173" y="718"/>
      <point x="300" y="718" type="curve" smooth="yes"/>
      <point x="426" y="718"/>
      <point x="513" y="631"/>
      <point x="513" y="525" type="curve" smooth="yes"/>
      <point x="513" y="418"/>
      <point x="426" y="331"/>
    </contour>
    <contour>
      <point x="300" y="291" type="curve" smooth="yes"/>
      <point x="448" y="291"/>
      <point x="553" y="396"/>
      <point x="553" y="525" type="curve" smooth="yes"/>
      <point x="553" y="653"/>
      <point x="448" y="758"/>
      <point x="300" y="758" type="curve" smooth="yes"/>
      <point x="151" y="758"/>
      <point x="46" y="653"/>
      <point x="46" y="525" type="curve" smooth="yes"/>
      <point x="46" y="396"/>
      <point x="151" y="291"/>
    </contour>
    <component base="R" xScale="0.2718" yScale="0.2718" xOffset="155" yOffset="435"/>
  </outline>
</glyph>
<glyph name="degree" format="2">
  <advance width="425"/>
  <unicode hex="00B0"/>
  <outline>
    <contour>
      <point x="213" y="407" type="curve" smooth="yes"/>
      <point x="296" y="407"/>
      <point x="365" y="459"/>
      <point x="365" y="526" type="curve" smooth="yes"/>
      <point x="365" y="604"/>
      <point x="277" y="644"/>
      <point x="213" y="644" type="curve" smooth="yes"/>
      <point x="120" y="644"/>
      <point x="60" y="593"/>
      <point x="60" y="526" type="curve" smooth="yes"/>
      <point x="60" y="448"/>
      <point x="148" y="407"/>
    </contour>
    <contour>
      <point x="225" y="433" type="curve" smooth="yes"/>
      <point x="185" y="433"/>
      <point x="138" y="471"/>
      <point x="138" y="548" type="curve" smooth="yes"/>
      <point x="138" y="589"/>
      <point x="160" y="621"/>
      <point x="201" y="621" type="curve" smooth="yes"/>
      <point x="244" y="621"/>
      <point x="287" y="580"/>
      <point x="287" y="505" type="curve" smooth="yes"/>
      <point x="287" y="462"/>
      <point x="265" y="433"/>
    </contour>
  </outline>
</glyph>
<glyph name="plusminus" format="2">
  <advance width="932"/>
  <unicode hex="00B1"/>
  <outline>
    <contour>
      <point x="443" y="566" type="line"/>
      <point x="443" y="194" type="line"/>
      <point x="489" y="194" type="line"/>
      <point x="489" y="566" type="line"/>
    </contour>
    <contour>
      <point x="862" y="403" type="line"/>
      <point x="70" y="403" type="line"/>
      <point x="70" y="357" type="line"/>
      <point x="862" y="357" type="line"/>
    </contour>
    <contour>
      <point x="862" y="133" type="line"/>
      <point x="70" y="133" type="line"/>
      <point x="70" y="87" type="line"/>
      <point x="862" y="87" type="line"/>
    </contour>
  </outline>
</glyph>
<glyph name="twosuperior" format="2">
  <advance width="388"/>
  <unicode hex="00B2"/>
  <outline>
    <contour>
      <point x="29" y="424" type="curve"/>
      <point x="357" y="424" type="line"/>
      <point x="388" y="530" type="line"/>
      <point x="383" y="533" type="line"/>
      <point x="362" y="496"/>
      <point x="230" y="490"/>
      <point x="173" y="492" type="curve"/>
      <point x="193" y="509"/>
      <point x="206" y="518"/>
      <point x="269" y="554" type="curve" smooth="yes"/>
      <point x="318" y="582"/>
      <point x="369" y="600"/>
      <point x="369" y="643" type="curve" smooth="yes"/>
      <point x="369" y="689"/>
      <point x="329" y="712"/>
      <point x="218" y="712" type="curve" smooth="yes"/>
      <point x="166" y="712"/>
      <point x="119" y="701"/>
      <point x="56" y="676" type="curve"/>
      <point x="74" y="553" type="line"/>
      <point x="77" y="552" type="line"/>
      <point x="112" y="638"/>
      <point x="156" y="680"/>
      <point x="196" y="680" type="curve" smooth="yes"/>
      <point x="223" y="680"/>
      <point x="246" y="669"/>
      <point x="246" y="634" type="curve" smooth="yes"/>
      <point x="246" y="593"/>
      <point x="209" y="555"/>
    </contour>
  </outline>
</glyph>
<glyph name="threesuperior" format="2">
  <advance width="391"/>
  <unicode hex="00B3"/>
  <outline>
    <contour>
      <point x="37" y="601" type="line"/>
      <point x="42" y="600" type="line"/>
      <point x="68" y="645"/>
      <point x="143" y="648"/>
      <point x="215" y="638" type="curve"/>
      <point x="125" y="552" type="line"/>
      <point x="129" y="545" type="line"/>
      <point x="215" y="555"/>
      <point x="244" y="534"/>
      <point x="244" y="500" type="curve" smooth="yes"/>
      <point x="244" y="468"/>
      <point x="211" y="448"/>
      <point x="169" y="448" type="curve" smooth="yes"/>
      <point x="125" y="448"/>
      <point x="52" y="478"/>
      <point x="41" y="544" type="curve"/>
      <point x="32" y="543" type="line"/>
      <point x="20" y="454" type="line"/>
      <point x="52" y="432"/>
      <point x="98" y="413"/>
      <point x="179" y="413" type="curve" smooth="yes"/>
      <point x="286" y="413"/>
      <point x="371" y="452"/>
      <point x="371" y="506" type="curve" smooth="yes"/>
      <point x="371" y="575"/>
      <point x="268" y="589"/>
      <point x="188" y="573" type="curve"/>
      <point x="359" y="701" type="line"/>
      <point x="64" y="701" type="line"/>
    </contour>
  </outline>
</glyph>
<glyph name="micro" format="2">
  <advance width="977"/>
  <unicode hex="00B5"/>
  <outline>
    <contour>
      <point x="888" y="520" type="line"/>
      <point x="674" y="460" type="line"/>
      <point x="677" y="458"/>
      <point x="698" y="414"/>
      <point x="698" y="342" type="curve" smooth="yes"/>
      <point x="698" y="157" type="line"/>
      <point x="604" y="108"/>
      <point x="512" y="101"/>
      <point x="462" y="101" type="curve" smooth="yes"/>
      <point x="347" y="101"/>
      <point x="271" y="137"/>
      <point x="271" y="248" type="curve" smooth="yes"/>
      <point x="272" y="520" type="line"/>
      <point x="56" y="460" type="line"/>
      <point x="59" y="458"/>
      <point x="82" y="414"/>
      <point x="82" y="342" type="curve"/>
      <point x="81" y="-25" type="line"/>
      <point x="81" y="-199"/>
      <point x="73" y="-231"/>
      <point x="66" y="-256" type="curve"/>
      <point x="284" y="-256" type="line"/>
      <point x="279" y="-239"/>
      <point x="269" y="-207"/>
      <point x="269" y="-25" type="curve" smooth="yes"/>
      <point x="269" y="-8" type="line"/>
      <point x="302" y="-13"/>
      <point x="338" y="-15"/>
      <point x="376" y="-15" type="curve" smooth="yes"/>
      <point x="436" y="-15"/>
      <point x="653" y="81"/>
      <point x="698" y="107" type="curve"/>
      <point x="698" y="-12" type="line"/>
      <point x="912" y="48" type="line"/>
      <point x="909" y="50"/>
      <point x="886" y="94"/>
      <point x="886" y="166" type="curve" smooth="yes"/>
    </contour>
  </outline>
</glyph>
<glyph name="paragraph" format="2">
  <advance width="1032"/>
  <unicode hex="00B6"/>
  <outline>
    <contour>
      <point x="548" y="580" type="line"/>
      <point x="548" y="580"/>
      <point x="559" y="542"/>
      <point x="559" y="410" type="curve" smooth="yes"/>
      <point x="559" y="-83" type="line" smooth="yes"/>
      <point x="559" y="-214"/>
      <point x="548" y="-252"/>
      <point x="548" y="-252" type="curve"/>
      <point x="756" y="-252" type="line"/>
      <point x="756" y="-252"/>
      <point x="745" y="-214"/>
      <point x="745" y="-83" type="curve" smooth="yes"/>
      <point x="745" y="410" type="line" smooth="yes"/>
      <point x="745" y="542"/>
      <point x="756" y="580"/>
      <point x="756" y="580" type="curve"/>
    </contour>
    <contour>
      <point x="827" y="580" type="line"/>
      <point x="827" y="580"/>
      <point x="838" y="542"/>
      <point x="838" y="410" type="curve" smooth="yes"/>
      <point x="838" y="-83" type="line" smooth="yes"/>
      <point x="838" y="-214"/>
      <point x="827" y="-252"/>
      <point x="827" y="-252" type="curve"/>
      <point x="926" y="-252" type="line"/>
      <point x="926" y="-252"/>
      <point x="915" y="-214"/>
      <point x="915" y="-83" type="curve" smooth="yes"/>
      <point x="915" y="410" type="line" smooth="yes"/>
      <point x="915" y="542"/>
      <point x="926" y="580"/>
      <point x="926" y="580" type="curve"/>
    </contour>
    <contour>
      <point x="289" y="103" type="curve"/>
      <point x="615" y="103" type="line"/>
      <point x="604" y="580" type="line"/>
      <point x="289" y="580" type="line"/>
      <point x="157" y="580"/>
      <point x="50" y="474"/>
      <point x="50" y="342" type="curve" smooth="yes"/>
      <point x="50" y="209"/>
      <point x="157" y="103"/>
    </contour>
    <contour>
      <point x="731" y="580" type="line"/>
      <point x="731" y="534" type="line"/>
      <point x="972" y="534" type="line"/>
      <point x="972" y="580" type="line"/>
    </contour>
  </outline>
</glyph>
<glyph name="onesuperior" format="2">
  <advance width="233"/>
  <unicode hex="00B9"/>
  <outline>
    <contour>
      <point x="58" y="424" type="curve"/>
      <point x="218" y="424" type="line"/>
      <point x="218" y="424"/>
      <point x="206" y="439"/>
      <point x="206" y="492" type="curve"/>
      <point x="205" y="622" type="line" smooth="yes"/>
      <point x="205" y="673"/>
      <point x="207" y="692"/>
      <point x="210" y="712" type="curve"/>
      <point x="192" y="712" type="line"/>
      <point x="116" y="659"/>
      <point x="67" y="634"/>
      <point x="15" y="623" type="curve"/>
      <point x="15" y="610" type="line"/>
      <point x="32" y="609"/>
      <point x="64" y="619"/>
      <point x="73" y="623" type="curve"/>
      <point x="69" y="607" type="line"/>
      <point x="68" y="492" type="line"/>
      <point x="68" y="439"/>
      <point x="58" y="424"/>
    </contour>
  </outline>
</glyph>
<glyph name="ordmasculine" format="2">
  <advance width="564"/>
  <unicode hex="00BA"/>
  <outline>
    <contour>
      <point x="250" y="427" type="curve" smooth="yes"/>
      <point x="417" y="427"/>
      <point x="534" y="512"/>
      <point x="534" y="595" type="curve" smooth="yes"/>
      <point x="534" y="660"/>
      <point x="442" y="711"/>
      <point x="314" y="711" type="curve" smooth="yes"/>
      <point x="147" y="711"/>
      <point x="29" y="627"/>
      <point x="29" y="549" type="curve" smooth="yes"/>
      <point x="29" y="479"/>
      <point x="122" y="427"/>
    </contour>
    <contour>
      <point x="306" y="464" type="curve" smooth="yes"/>
      <point x="213" y="464"/>
      <point x="171" y="528"/>
      <point x="171" y="593" type="curve" smooth="yes"/>
      <point x="171" y="640"/>
      <point x="204" y="674"/>
      <point x="258" y="674" type="curve" smooth="yes"/>
      <point x="325" y="674"/>
      <point x="384" y="628"/>
      <point x="384" y="546" type="curve" smooth="yes"/>
      <point x="384" y="499"/>
      <point x="359" y="464"/>
    </contour>
  </outline>
</glyph>
<glyph name="guillemetright" format="2">
  <advance width="862"/>
  <unicode hex="00BB"/>
  <outline>
    <contour>
      <point x="475" y="256" type="line"/>
      <point x="37" y="34" type="line"/>
      <point x="291" y="256" type="line"/>
      <point x="37" y="479" type="line"/>
    </contour>
    <contour>
      <point x="792" y="256" type="line"/>
      <point x="356" y="34" type="line"/>
      <point x="608" y="256" type="line"/>
      <point x="356" y="479" type="line"/>
    </contour>
  </outline>
</glyph>
<glyph name="onequarter" format="2">
  <advance width="849"/>
  <unicode hex="00BC"/>
  <outline>
    <contour>
      <point x="162" y="0" type="line"/>
      <point x="183" y="29"/>
      <point x="223" y="73"/>
      <point x="247" y="97" type="qcurve" smooth="yes"/>
      <point x="714" y="574" type="line" smooth="yes"/>
      <point x="738" y="598"/>
      <point x="789" y="650"/>
      <point x="823" y="676" type="qcurve"/>
      <point x="730" y="676" type="line"/>
      <point x="712" y="652"/>
      <point x="662" y="598"/>
      <point x="638" y="574" type="qcurve" smooth="yes"/>
      <point x="171" y="97" type="line" smooth="yes"/>
      <point x="147" y="73"/>
      <point x="99" y="26"/>
      <point x="62" y="0" type="qcurve"/>
    </contour>
    <component base="onesuperior" xOffset="116" yOffset="-12"/>
    <component base="foursuperior" xOffset="396" yOffset="-392"/>
  </outline>
</glyph>
<glyph name="onehalf" format="2">
  <advance width="870"/>
  <unicode hex="00BD"/>
  <outline>
    <component base="onesuperior" xOffset="96" yOffset="-12"/>
    <component base="twosuperior" xOffset="385" yOffset="-389"/>
    <contour>
      <point x="135" y="0" type="line"/>
      <point x="156" y="29"/>
      <point x="196" y="73"/>
      <point x="220" y="97" type="qcurve" smooth="yes"/>
      <point x="687" y="574" type="line" smooth="yes"/>
      <point x="711" y="598"/>
      <point x="762" y="650"/>
      <point x="796" y="676" type="qcurve"/>
      <point x="703" y="676" type="line"/>
      <point x="685" y="652"/>
      <point x="635" y="598"/>
      <point x="611" y="574" type="qcurve" smooth="yes"/>
      <point x="144" y="97" type="line" smooth="yes"/>
      <point x="120" y="73"/>
      <point x="72" y="26"/>
      <point x="35" y="0" type="qcurve"/>
    </contour>
  </outline>
</glyph>
<glyph name="threequarters" format="2">
  <advance width="924"/>
  <unicode hex="00BE"/>
  <outline>
    <component base="threesuperior" xOffset="58" yOffset="-14"/>
    <component base="foursuperior" xOffset="406" yOffset="-392"/>
    <contour>
      <point x="165" y="0" type="line"/>
      <point x="186" y="29"/>
      <point x="226" y="73"/>
      <point x="250" y="97" type="qcurve" smooth="yes"/>
      <point x="717" y="574" type="line" smooth="yes"/>
      <point x="741" y="598"/>
      <point x="792" y="650"/>
      <point x="826" y="676" type="qcurve"/>
      <point x="733" y="676" type="line"/>
      <point x="715" y="652"/>
      <point x="665" y="598"/>
      <point x="641" y="574" type="qcurve" smooth="yes"/>
      <point x="174" y="97" type="line" smooth="yes"/>
      <point x="150" y="73"/>
      <point x="102" y="26"/>
      <point x="65" y="0" type="qcurve"/>
    </contour>
  </outline>
</glyph>
<glyph name="AE" format="2">
  <advance width="1683"/>
  <unicode hex="00C6"/>
  <outline>
    <contour>
      <point x="30" y="0" type="curve"/>
      <point x="176" y="0" type="line"/>
      <point x="191" y="31"/>
      <point x="217" y="71"/>
      <point x="245" y="101" type="curve" smooth="yes"/>
      <point x="344" y="210" type="line"/>
      <point x="418" y="212"/>
      <point x="490" y="212"/>
      <point x="563" y="212" type="curve" smooth="yes"/>
      <point x="605" y="212"/>
      <point x="648" y="212"/>
      <point x="692" y="211" type="curve"/>
      <point x="692" y="167" type="line" smooth="yes"/>
      <point x="692" y="35"/>
      <point x="671" y="-3"/>
      <point x="671" y="-3" type="curve"/>
      <point x="1548" y="-7" type="line"/>
      <point x="1598" y="232" type="line"/>
      <point x="1586" y="241" type="line"/>
      <point x="1454" y="96"/>
      <point x="1285" y="52"/>
      <point x="904" y="52" type="curve"/>
      <point x="900" y="78"/>
      <point x="897" y="115"/>
      <point x="897" y="166" type="curve" smooth="yes"/>
      <point x="897" y="341" type="line"/>
      <point x="1107" y="341" type="line" smooth="yes"/>
      <point x="1228" y="341"/>
      <point x="1328" y="339"/>
      <point x="1419" y="333" type="curve"/>
      <point x="1419" y="397" type="line"/>
      <point x="1328" y="391"/>
      <point x="1226" y="389"/>
      <point x="1127" y="389" type="curve" smooth="yes"/>
      <point x="897" y="389" type="line"/>
      <point x="897" y="528" type="line" smooth="yes"/>
      <point x="897" y="579"/>
      <point x="900" y="616"/>
      <point x="904" y="642" type="curve"/>
      <point x="1186" y="642"/>
      <point x="1378" y="627"/>
      <point x="1526" y="453" type="curve"/>
      <point x="1538" y="462" type="line"/>
      <point x="1488" y="701" type="line"/>
      <point x="520" y="700" type="line"/>
      <point x="520" y="695" type="line"/>
      <point x="541" y="683"/>
      <point x="600" y="658"/>
      <point x="622" y="624" type="curve"/>
      <point x="253" y="213" type="line" smooth="yes"/>
      <point x="196" y="150"/>
      <point x="104" y="62"/>
    </contour>
    <contour>
      <point x="390" y="260" type="curve"/>
      <point x="691" y="588" type="line"/>
      <point x="692" y="570"/>
      <point x="692" y="550"/>
      <point x="692" y="527" type="curve" smooth="yes"/>
      <point x="692" y="260" type="line"/>
      <point x="657" y="258"/>
      <point x="620" y="258"/>
      <point x="584" y="258" type="curve" smooth="yes"/>
      <point x="518" y="258"/>
      <point x="454" y="258"/>
    </contour>
  </outline>
</glyph>
<glyph name="Eth" format="2">
  <advance width="1084"/>
  <unicode hex="00D0"/>
  <outline>
    <component base="D"/>
    <contour>
      <point x="-19" y="390" type="curve"/>
      <point x="-19" y="330" type="line"/>
      <point x="56" y="332"/>
      <point x="174" y="334"/>
      <point x="250" y="334" type="curve" smooth="yes"/>
      <point x="326" y="334"/>
      <point x="444" y="332"/>
      <point x="519" y="330" type="curve"/>
      <point x="519" y="390" type="line"/>
      <point x="444" y="388"/>
      <point x="326" y="386"/>
      <point x="250" y="386" type="curve" smooth="yes"/>
      <point x="174" y="386"/>
      <point x="56" y="388"/>
    </contour>
  </outline>
</glyph>
<glyph name="multiply" format="2">
  <advance width="687"/>
  <unicode hex="00D7"/>
  <outline>
    <contour>
      <point x="92" y="50" type="line"/>
      <point x="627" y="476" type="line"/>
      <point x="595" y="508" type="line"/>
      <point x="60" y="82" type="line"/>
    </contour>
    <contour>
      <point x="60" y="476" type="line"/>
      <point x="595" y="50" type="line"/>
      <point x="627" y="82" type="line"/>
      <point x="92" y="508" type="line"/>
    </contour>
  </outline>
</glyph>
<glyph name="Oslash" format="2">
  <advance width="1166"/>
  <unicode hex="00D8"/>
  <outline>
    <component base="O"/>
    <contour>
      <point x="830" y="737" type="line"/>
      <point x="822" y="720"/>
      <point x="809" y="702"/>
      <point x="796" y="685" type="curve"/>
      <point x="290" y="-4"/>
      <point x="273" y="-26"/>
      <point x="253" y="-48" type="curve"/>
      <point x="315" y="-48" type="line"/>
      <point x="321" y="-31"/>
      <point x="334" y="-13"/>
      <point x="347" y="4" type="curve"/>
      <point x="849" y="686" type="line"/>
      <point x="861" y="703"/>
      <point x="874" y="720"/>
      <point x="890" y="737" type="curve"/>
    </contour>
  </outline>
</glyph>
<glyph name="Thorn" format="2">
  <advance width="965"/>
  <unicode hex="00DE"/>
  <outline>
    <component base="I"/>
    <contour>
      <point x="277" y="570" type="curve"/>
      <point x="285" y="519" type="line"/>
      <point x="326" y="527"/>
      <point x="387" y="533"/>
      <point x="465" y="533" type="curve" smooth="yes"/>
      <point x="606" y="533"/>
      <point x="703" y="470"/>
      <point x="703" y="335" type="curve" smooth="yes"/>
      <point x="703" y="262"/>
      <point x="632" y="199"/>
      <point x="485" y="199" type="curve" smooth="yes"/>
      <point x="398" y="199"/>
      <point x="320" y="231"/>
      <point x="284" y="248" type="curve"/>
      <point x="284" y="188" type="line"/>
      <point x="318" y="177"/>
      <point x="395" y="156"/>
      <point x="479" y="156" type="curve" smooth="yes"/>
      <point x="710" y="156"/>
      <point x="935" y="240"/>
      <point x="935" y="382" type="curve" smooth="yes"/>
      <point x="935" y="500"/>
      <point x="833" y="570"/>
      <point x="573" y="570" type="curve" smooth="yes"/>
      <point x="474" y="570"/>
      <point x="376" y="570"/>
    </contour>
  </outline>
</glyph>
<glyph name="germandbls" format="2">
  <advance width="1088"/>
  <unicode hex="00DF"/>
  <outline>
    <contour>
      <point x="60" y="0" type="curve"/>
      <point x="305" y="0" type="line"/>
      <point x="305" y="0"/>
      <point x="284" y="38"/>
      <point x="284" y="169" type="curve" smooth="yes"/>
      <point x="284" y="573" type="line" smooth="yes"/>
      <point x="284" y="660"/>
      <point x="327" y="715"/>
      <point x="428" y="715" type="curve" smooth="yes"/>
      <point x="488" y="715"/>
      <point x="564" y="673"/>
      <point x="564" y="563" type="curve" smooth="yes"/>
      <point x="564" y="474"/>
      <point x="482" y="426"/>
      <point x="412" y="370" type="curve"/>
      <point x="412" y="295"/>
      <point x="502" y="245"/>
      <point x="659" y="204" type="curve" smooth="yes"/>
      <point x="716" y="189" type="line" smooth="yes"/>
      <point x="830" y="159"/>
      <point x="860" y="149"/>
      <point x="860" y="102" type="curve" smooth="yes"/>
      <point x="860" y="55"/>
      <point x="805" y="37"/>
      <point x="747" y="37" type="curve" smooth="yes"/>
      <point x="626" y="37"/>
      <point x="479" y="123"/>
      <point x="395" y="249" type="curve"/>
      <point x="404" y="69" type="line"/>
      <point x="497" y="18"/>
      <point x="591" y="-14"/>
      <point x="708" y="-14" type="curve" smooth="yes"/>
      <point x="844" y="-14"/>
      <point x="1028" y="31"/>
      <point x="1028" y="147" type="curve" smooth="yes"/>
      <point x="1028" y="227"/>
      <point x="982" y="260"/>
      <point x="777" y="318" type="curve" smooth="yes"/>
      <point x="724" y="333" type="line" smooth="yes"/>
      <point x="622" y="362"/>
      <point x="572" y="391"/>
      <point x="562" y="417" type="curve"/>
      <point x="632" y="447"/>
      <point x="760" y="495"/>
      <point x="760" y="579" type="curve" smooth="yes"/>
      <point x="760" y="689"/>
      <point x="643" y="755"/>
      <point x="440" y="755" type="curve" smooth="yes"/>
      <point x="270" y="755"/>
      <point x="79" y="702"/>
      <point x="79" y="536" type="curve" smooth="yes"/>
      <point x="79" y="169" type="line" smooth="yes"/>
      <point x="79" y="38"/>
      <point x="60" y="0"/>
    </contour>
  </outline>
</glyph>
<glyph name="ae" format="2">
  <advance width="1620"/>
  <unicode hex="00E6"/>
  <outline>
    <contour>
      <point x="60" y="111" type="curve" smooth="yes"/>
      <point x="60" y="48"/>
      <point x="122" y="-20"/>
      <point x="337" y="-20" type="curve" smooth="yes"/>
      <point x="408" y="-20"/>
      <point x="713" y="101"/>
      <point x="859" y="197" type="curve"/>
      <point x="887" y="229" type="line"/>
      <point x="887" y="306" type="line" smooth="yes"/>
      <point x="887" y="414"/>
      <point x="801" y="520"/>
      <point x="531" y="520" type="curve" smooth="yes"/>
      <point x="349" y="520"/>
      <point x="168" y="458"/>
      <point x="107" y="428" type="curve"/>
      <point x="141" y="269" type="line"/>
      <point x="143" y="269" type="line"/>
      <point x="258" y="370"/>
      <point x="374" y="414"/>
      <point x="500" y="414" type="curve" smooth="yes"/>
      <point x="656" y="414"/>
      <point x="703" y="374"/>
      <point x="703" y="281" type="curve" smooth="yes"/>
      <point x="703" y="273" type="line"/>
      <point x="636" y="278"/>
      <point x="515" y="281"/>
      <point x="462" y="281" type="curve" smooth="yes"/>
      <point x="260" y="281"/>
      <point x="60" y="216"/>
    </contour>
    <contour>
      <point x="291" y="159" type="curve" smooth="yes"/>
      <point x="291" y="211"/>
      <point x="364" y="250"/>
      <point x="703" y="242" type="curve"/>
      <point x="702" y="161" type="line"/>
      <point x="576" y="111"/>
      <point x="478" y="104"/>
      <point x="404" y="104" type="curve" smooth="yes"/>
      <point x="323" y="104"/>
      <point x="291" y="134"/>
    </contour>
    <component base="e" xOffset="650"/>
  </outline>
</glyph>
<glyph name="divide" format="2">
  <advance width="932"/>
  <unicode hex="00F7"/>
  <outline>
    <contour>
      <point x="878" y="303" type="line"/>
      <point x="878" y="257" type="line"/>
      <point x="66" y="257" type="line"/>
      <point x="66" y="303" type="line"/>
    </contour>
    <component base="dotaccent" xOffset="257" yOffset="-566"/>
    <component base="dotaccent" xOffset="257" yOffset="-255"/>
  </outline>
</glyph>
<glyph name="oslash" format="2">
  <advance width="1073"/>
  <unicode hex="00F8"/>
  <outline>
    <component base="o"/>
    <contour>
      <point x="679" y="536" type="line"/>
      <point x="671" y="519"/>
      <point x="658" y="501"/>
      <point x="645" y="484" type="curve"/>
      <point x="642" y="480" type="line"/>
      <point x="315" y="35" type="line"/>
      <point x="299" y="13"/>
      <point x="282" y="-9"/>
      <point x="262" y="-31" type="curve"/>
      <point x="312" y="-31" type="line"/>
      <point x="318" y="-14"/>
      <point x="331" y="4"/>
      <point x="344" y="21" type="curve"/>
      <point x="686" y="485" type="line"/>
      <point x="698" y="502"/>
      <point x="711" y="519"/>
      <point x="727" y="536" type="curve"/>
    </contour>
  </outline>
</glyph>
<glyph name="thorn" format="2">
  <advance width="1012"/>
  <unicode hex="00FE"/>
  <outline>
    <contour>
      <point x="70" y="-256" type="curve"/>
      <point x="288" y="-256" type="line"/>
      <point x="283" y="-239"/>
      <point x="273" y="-207"/>
      <point x="273" y="-25" type="curve" smooth="yes"/>
      <point x="273" y="35" type="line"/>
      <point x="328" y="12"/>
      <point x="408" y="-14"/>
      <point x="529" y="-14" type="curve" smooth="yes"/>
      <point x="723" y="-14"/>
      <point x="957" y="90"/>
      <point x="957" y="276" type="curve" smooth="yes"/>
      <point x="957" y="434"/>
      <point x="833" y="520"/>
      <point x="581" y="520" type="curve" smooth="yes"/>
      <point x="538" y="520"/>
      <point x="418" y="479"/>
      <point x="273" y="378" type="curve"/>
      <point x="274" y="745" type="line"/>
      <point x="60" y="685" type="line"/>
      <point x="63" y="683"/>
      <point x="86" y="644"/>
      <point x="86" y="572" type="curve"/>
      <point x="85" y="-25" type="line"/>
      <point x="85" y="-199"/>
      <point x="77" y="-231"/>
    </contour>
    <contour>
      <point x="273" y="145" type="curve"/>
      <point x="274" y="333" type="line"/>
      <point x="393" y="404"/>
      <point x="490" y="398"/>
      <point x="525" y="398" type="curve" smooth="yes"/>
      <point x="626" y="398"/>
      <point x="756" y="341"/>
      <point x="756" y="211" type="curve" smooth="yes"/>
      <point x="756" y="92"/>
      <point x="632" y="40"/>
      <point x="546" y="40" type="curve" smooth="yes"/>
      <point x="387" y="40"/>
      <point x="323" y="95"/>
    </contour>
  </outline>
</glyph>
<glyph name="dcroat" format="2">
  <advance width="1057"/>
  <unicode hex="0111"/>
  <outline>
    <contour>
      <point x="567" y="625" type="curve"/>
      <point x="567" y="571" type="line"/>
      <point x="629" y="573"/>
      <point x="728" y="575"/>
      <point x="759" y="575" type="curve" smooth="yes"/>
      <point x="821" y="575"/>
      <point x="961" y="573"/>
      <point x="1023" y="571" type="curve"/>
      <point x="1023" y="625" type="line"/>
      <point x="961" y="623"/>
      <point x="821" y="621"/>
      <point x="759" y="621" type="curve" smooth="yes"/>
      <point x="728" y="621"/>
      <point x="629" y="623"/>
    </contour>
    <component base="d"/>
  </outline>
</glyph>
<glyph name="Hbar" format="2">
  <advance width="1142"/>
  <unicode hex="0126"/>
  <outline>
    <component base="H"/>
    <contour>
      <point x="375" y="570" type="curve" smooth="yes"/>
      <point x="29" y="574" type="line"/>
      <point x="29" y="517" type="line"/>
      <point x="375" y="520" type="line" smooth="yes"/>
      <point x="449" y="521"/>
      <point x="523" y="525"/>
      <point x="587" y="525" type="curve" smooth="yes"/>
      <point x="678" y="525"/>
      <point x="758" y="521"/>
      <point x="839" y="520" type="curve" smooth="yes"/>
      <point x="1115" y="517" type="line"/>
      <point x="1115" y="574" type="line"/>
      <point x="839" y="570" type="line" smooth="yes"/>
      <point x="758" y="569"/>
      <point x="676" y="565"/>
      <point x="607" y="565" type="curve" smooth="yes"/>
      <point x="523" y="565"/>
      <point x="449" y="569"/>
    </contour>
  </outline>
</glyph>
<glyph name="hbar" format="2">
  <advance width="1037"/>
  <unicode hex="0127"/>
  <outline>
    <component base="h"/>
    <contour>
      <point x="12" y="595" type="curve"/>
      <point x="12" y="551" type="line"/>
      <point x="77" y="553"/>
      <point x="174" y="555"/>
      <point x="214" y="555" type="curve" smooth="yes"/>
      <point x="279" y="555"/>
      <point x="383" y="553"/>
      <point x="448" y="551" type="curve"/>
      <point x="448" y="595" type="line"/>
      <point x="383" y="593"/>
      <point x="279" y="591"/>
      <point x="214" y="591" type="curve" smooth="yes"/>
      <point x="181" y="591"/>
      <point x="77" y="593"/>
    </contour>
  </outline>
</glyph>
<glyph name="idotless" format="2">
  <advance width="353"/>
  <unicode hex="0131"/>
  <anchor x="184" y="0" name="bottom"/>
  <anchor x="238" y="-10" name="ogonek"/>
  <anchor x="177" y="514" name="top"/>
  <outline>
    <contour>
      <point x="70" y="0" type="curve"/>
      <point x="288" y="0" type="line"/>
      <point x="283" y="25"/>
      <point x="272" y="51"/>
      <point x="273" y="231" type="curve" smooth="yes"/>
      <point x="274" y="520" type="line"/>
      <point x="60" y="460" type="line"/>
      <point x="63" y="458"/>
      <point x="87" y="414"/>
      <point x="86" y="342" type="curve" smooth="yes"/>
      <point x="85" y="231" type="line" smooth="yes"/>
      <point x="83" y="57"/>
      <point x="77" y="25"/>
    </contour>
  </outline>
</glyph>
<glyph name="Lslash" format="2">
  <advance width="932"/>
  <unicode hex="0141"/>
  <outline>
    <contour>
      <point x="107" y="350" type="line"/>
      <point x="75" y="340"/>
      <point x="13" y="322"/>
      <point x="-19" y="313" type="qcurve"/>
      <point x="-19" y="246" type="line"/>
      <point x="12" y="259"/>
      <point x="73" y="282"/>
      <point x="107" y="293" type="qcurve"/>
      <point x="326" y="364" type="line"/>
      <point x="364" y="377"/>
      <point x="431" y="398"/>
      <point x="469" y="408" type="qcurve"/>
      <point x="469" y="474" type="line"/>
      <point x="431" y="460"/>
      <point x="361" y="434"/>
      <point x="324" y="421" type="qcurve"/>
    </contour>
    <component base="L"/>
  </outline>
</glyph>
<glyph name="lslash" format="2">
  <advance width="403"/>
  <unicode hex="0142"/>
  <outline>
    <component base="l"/>
    <contour>
      <point x="135" y="350" type="line" smooth="yes"/>
      <point x="109" y="340"/>
      <point x="59" y="322"/>
      <point x="32" y="313" type="qcurve"/>
      <point x="32" y="246" type="line"/>
      <point x="58" y="259"/>
      <point x="108" y="282"/>
      <point x="135" y="293" type="qcurve" smooth="yes"/>
      <point x="269" y="346" type="line" smooth="yes"/>
      <point x="301" y="359"/>
      <point x="356" y="380"/>
      <point x="387" y="390" type="qcurve"/>
      <point x="387" y="456" type="line"/>
      <point x="356" y="442"/>
      <point x="299" y="416"/>
      <point x="267" y="403" type="qcurve" smooth="yes"/>
    </contour>
  </outline>
</glyph>
<glyph name="OE" format="2">
  <advance width="1737"/>
  <unicode hex="0152"/>
  <outline>
    <component base="E" xOffset="655"/>
    <contour>
      <point x="277" y="425" type="curve" smooth="yes"/>
      <point x="277" y="544"/>
      <point x="337" y="648"/>
      <point x="519" y="648" type="curve" smooth="yes"/>
      <point x="606" y="648"/>
      <point x="701" y="617"/>
      <point x="776" y="560" type="curve"/>
      <point x="776" y="699" type="line"/>
      <point x="730" y="708"/>
      <point x="681" y="712"/>
      <point x="629" y="712" type="curve" smooth="yes"/>
      <point x="344" y="712"/>
      <point x="70" y="571"/>
      <point x="70" y="332" type="curve" smooth="yes"/>
      <point x="70" y="133"/>
      <point x="289" y="-22"/>
      <point x="582" y="-22" type="curve" smooth="yes"/>
      <point x="649" y="-22"/>
      <point x="715" y="-13"/>
      <point x="776" y="4" type="curve"/>
      <point x="776" y="70" type="line"/>
      <point x="750" y="62"/>
      <point x="721" y="57"/>
      <point x="687" y="57" type="curve" smooth="yes"/>
      <point x="382" y="57"/>
      <point x="277" y="299"/>
    </contour>
  </outline>
</glyph>
<glyph name="oe" format="2">
  <advance width="1705"/>
  <unicode hex="0153"/>
  <outline>
    <component base="e" xOffset="760"/>
    <contour>
      <point x="466" y="-11" type="curve" smooth="yes"/>
      <point x="779" y="-11"/>
      <point x="998" y="148"/>
      <point x="998" y="303" type="curve" smooth="yes"/>
      <point x="998" y="424"/>
      <point x="825" y="520"/>
      <point x="587" y="520" type="curve" smooth="yes"/>
      <point x="274" y="520"/>
      <point x="55" y="362"/>
      <point x="55" y="216" type="curve" smooth="yes"/>
      <point x="55" y="86"/>
      <point x="227" y="-11"/>
    </contour>
    <contour>
      <point x="598" y="66" type="curve" smooth="yes"/>
      <point x="382" y="66"/>
      <point x="259" y="186"/>
      <point x="259" y="301" type="curve" smooth="yes"/>
      <point x="259" y="401"/>
      <point x="364" y="443"/>
      <point x="455" y="443" type="curve" smooth="yes"/>
      <point x="617" y="443"/>
      <point x="794" y="355"/>
      <point x="794" y="210" type="curve" smooth="yes"/>
      <point x="794" y="109"/>
      <point x="689" y="66"/>
    </contour>
  </outline>
</glyph>
<glyph name="Schwa" format="2">
  <advance width="1265"/>
  <unicode hex="018F"/>
  <outline>
    <contour>
      <point x="674" y="49" type="curve" smooth="yes"/>
      <point x="540" y="49"/>
      <point x="377" y="131"/>
      <point x="359" y="259" type="curve"/>
      <point x="958" y="274" type="line"/>
      <point x="958" y="87"/>
      <point x="781" y="49"/>
    </contour>
    <contour>
      <point x="1195" y="359" type="curve" smooth="yes"/>
      <point x="1195" y="551"/>
      <point x="1005" y="740"/>
      <point x="667" y="740" type="curve" smooth="yes"/>
      <point x="325" y="740"/>
      <point x="153" y="541"/>
      <point x="70" y="383" type="curve"/>
      <point x="86" y="372" type="line"/>
      <point x="160" y="463"/>
      <point x="295" y="618"/>
      <point x="563" y="618" type="curve" smooth="yes"/>
      <point x="803" y="618"/>
      <point x="928" y="478"/>
      <point x="951" y="328" type="curve"/>
      <point x="118" y="333" type="line"/>
      <point x="161" y="63"/>
      <point x="438" y="-27"/>
      <point x="632" y="-27" type="curve" smooth="yes"/>
      <point x="891" y="-27"/>
      <point x="1195" y="105"/>
    </contour>
  </outline>
</glyph>
<glyph name="florin" format="2">
  <advance width="1057"/>
  <unicode hex="0192"/>
  <outline>
    <contour>
      <point x="375" y="493" type="line"/>
      <point x="365" y="462" type="line"/>
      <point x="454" y="460" type="line"/>
      <point x="382" y="-4" type="line" smooth="yes"/>
      <point x="367" y="-99"/>
      <point x="325" y="-158"/>
      <point x="247" y="-158" type="curve" smooth="yes"/>
      <point x="181" y="-158"/>
      <point x="110" y="-74"/>
      <point x="70" y="4" type="curve"/>
      <point x="103" y="-153" type="line"/>
      <point x="133" y="-198"/>
      <point x="206" y="-256"/>
      <point x="301" y="-256" type="curve" smooth="yes"/>
      <point x="474" y="-256"/>
      <point x="546" y="-154"/>
      <point x="570" y="-4" type="curve" smooth="yes"/>
      <point x="642" y="455" type="line"/>
      <point x="860" y="449" type="line"/>
      <point x="877" y="512" type="line"/>
      <point x="650" y="503" type="line"/>
      <point x="662" y="566" type="line" smooth="yes"/>
      <point x="675" y="632"/>
      <point x="697" y="669"/>
      <point x="758" y="669" type="curve" smooth="yes"/>
      <point x="827" y="669"/>
      <point x="926" y="616"/>
      <point x="1007" y="531" type="curve"/>
      <point x="980" y="704" type="line"/>
      <point x="918" y="722"/>
      <point x="839" y="732"/>
      <point x="751" y="732" type="curve" smooth="yes"/>
      <point x="577" y="732"/>
      <point x="495" y="671"/>
      <point x="474" y="556" type="curve" smooth="yes"/>
      <point x="463" y="496" type="line"/>
    </contour>
  </outline>
</glyph>
<glyph name="jdotless" format="2">
  <advance width="375"/>
  <unicode hex="0237"/>
  <anchor x="246" y="-107" name="bottom"/>
  <anchor x="195" y="508" name="top"/>
  <outline>
    <contour>
      <point x="96" y="342" type="curve" smooth="yes"/>
      <point x="96" y="51" type="line" smooth="yes"/>
      <point x="96" y="-126"/>
      <point x="67" y="-208"/>
      <point x="-109" y="-226" type="curve"/>
      <point x="-112" y="-236" type="line"/>
      <point x="194" y="-256"/>
      <point x="284" y="-140"/>
      <point x="284" y="12" type="curve" smooth="yes"/>
      <point x="284" y="231" type="line"/>
      <point x="285" y="520" type="line"/>
      <point x="70" y="460" type="line"/>
      <point x="73" y="458"/>
      <point x="96" y="414"/>
    </contour>
  </outline>
</glyph>
<glyph name="schwa" format="2">
  <advance width="970"/>
  <unicode hex="0259"/>
  <outline>
    <contour>
      <point x="524" y="42" type="curve" smooth="yes"/>
      <point x="433" y="42"/>
      <point x="335" y="92"/>
      <point x="307" y="186" type="curve"/>
      <point x="733" y="197" type="line"/>
      <point x="733" y="59"/>
      <point x="603" y="42"/>
    </contour>
    <contour>
      <point x="915" y="267" type="curve" smooth="yes"/>
      <point x="915" y="423"/>
      <point x="768" y="519"/>
      <point x="526" y="519" type="curve" smooth="yes"/>
      <point x="246" y="519"/>
      <point x="110" y="397"/>
      <point x="55" y="271" type="curve"/>
      <point x="62" y="269" type="line"/>
      <point x="116" y="336"/>
      <point x="267" y="384"/>
      <point x="404" y="384" type="curve" smooth="yes"/>
      <point x="549" y="384"/>
      <point x="700" y="347"/>
      <point x="728" y="237" type="curve"/>
      <point x="107" y="240" type="line"/>
      <point x="107" y="27"/>
      <point x="350" y="-14"/>
      <point x="464" y="-14" type="curve" smooth="yes"/>
      <point x="670" y="-14"/>
      <point x="915" y="80"/>
    </contour>
  </outline>
</glyph>
<glyph name="gravecomb" format="2">
  <advance width="600"/>
  <unicode hex="0300"/>
  <anchor x="350" y="508" name="_top"/>
  <outline>
    <contour>
      <point x="456" y="600" type="line"/>
      <point x="411" y="653"/>
      <point x="365" y="725"/>
      <point x="315" y="779" type="curve"/>
      <point x="160" y="732" type="line"/>
      <point x="232" y="682"/>
      <point x="325" y="626"/>
      <point x="417" y="584" type="curve"/>
    </contour>
  </outline>
</glyph>
<glyph name="acutecomb" format="2">
  <advance width="600"/>
  <unicode hex="0301"/>
  <anchor x="300" y="508" name="_top"/>
  <outline>
    <contour>
      <point x="180" y="600" type="curve"/>
      <point x="219" y="584" type="line"/>
      <point x="311" y="626"/>
      <point x="404" y="682"/>
      <point x="476" y="732" type="curve"/>
      <point x="321" y="779" type="line"/>
      <point x="271" y="725"/>
      <point x="225" y="653"/>
    </contour>
  </outline>
</glyph>
<glyph name="circumflexcomb" format="2">
  <advance width="600"/>
  <unicode hex="0302"/>
  <anchor x="300" y="508" name="_top"/>
  <outline>
    <contour>
      <point x="78" y="568" type="line"/>
      <point x="300" y="646" type="line"/>
      <point x="522" y="568" type="line"/>
      <point x="526" y="571" type="line"/>
      <point x="452" y="644"/>
      <point x="359" y="719"/>
      <point x="300" y="755" type="curve"/>
      <point x="241" y="719"/>
      <point x="146" y="643"/>
      <point x="74" y="571" type="curve"/>
    </contour>
  </outline>
</glyph>
<glyph name="tildecomb" format="2">
  <advance width="600"/>
  <unicode hex="0303"/>
  <anchor x="292" y="508" name="_top"/>
  <outline>
    <contour>
      <point x="73" y="610" type="curve"/>
      <point x="76" y="603" type="line"/>
      <point x="102" y="642"/>
      <point x="140" y="661"/>
      <point x="196" y="661" type="curve" smooth="yes"/>
      <point x="267" y="661"/>
      <point x="293" y="614"/>
      <point x="365" y="614" type="curve" smooth="yes"/>
      <point x="440" y="614"/>
      <point x="484" y="668"/>
      <point x="523" y="759" type="curve"/>
      <point x="520" y="765" type="line"/>
      <point x="482" y="727"/>
      <point x="443" y="718"/>
      <point x="388" y="718" type="curve" smooth="yes"/>
      <point x="317" y="718"/>
      <point x="291" y="765"/>
      <point x="219" y="765" type="curve" smooth="yes"/>
      <point x="143" y="765"/>
      <point x="99" y="679"/>
    </contour>
  </outline>
</glyph>
<glyph name="macroncomb" format="2">
  <advance width="600"/>
  <unicode hex="0304"/>
  <anchor x="300" y="508" name="_top"/>
  <outline>
    <contour>
      <point x="86" y="699" type="curve"/>
      <point x="86" y="635" type="line"/>
      <point x="176" y="637"/>
      <point x="229" y="639"/>
      <point x="289" y="639" type="curve" smooth="yes"/>
      <point x="369" y="639"/>
      <point x="422" y="637"/>
      <point x="512" y="635" type="curve"/>
      <point x="512" y="699" type="line"/>
      <point x="422" y="697"/>
      <point x="369" y="695"/>
      <point x="309" y="695" type="curve" smooth="yes"/>
      <point x="229" y="695"/>
      <point x="176" y="697"/>
    </contour>
  </outline>
</glyph>
<glyph name="brevecomb" format="2">
  <advance width="600"/>
  <unicode hex="0306"/>
  <anchor x="297" y="508" name="_top"/>
  <outline>
    <contour>
      <point x="298" y="696" type="curve" smooth="yes"/>
      <point x="267" y="696"/>
      <point x="166" y="702"/>
      <point x="124" y="763" type="curve"/>
      <point x="117" y="759" type="line"/>
      <point x="139" y="690"/>
      <point x="186" y="604"/>
      <point x="297" y="603" type="curve" smooth="yes"/>
      <point x="408" y="602"/>
      <point x="454" y="690"/>
      <point x="479" y="759" type="curve"/>
      <point x="472" y="763" type="line"/>
      <point x="429" y="702"/>
      <point x="329" y="696"/>
    </contour>
  </outline>
</glyph>
<glyph name="dotaccentcomb" format="2">
  <advance width="430"/>
  <unicode hex="0307"/>
  <anchor x="221" y="508" name="_top"/>
  <outline>
    <contour>
      <point x="217" y="601" type="curve" smooth="yes"/>
      <point x="281" y="601"/>
      <point x="333" y="635"/>
      <point x="333" y="678" type="curve" smooth="yes"/>
      <point x="333" y="720"/>
      <point x="281" y="754"/>
      <point x="217" y="754" type="curve" smooth="yes"/>
      <point x="152" y="754"/>
      <point x="100" y="720"/>
      <point x="100" y="678" type="curve" smooth="yes"/>
      <point x="100" y="635"/>
      <point x="152" y="601"/>
    </contour>
  </outline>
</glyph>
<glyph name="ringcomb" format="2">
  <advance width="600"/>
  <unicode hex="030A"/>
  <anchor x="300" y="508" name="_top"/>
  <outline>
    <contour>
      <point x="303" y="564" type="curve" smooth="yes"/>
      <point x="382" y="564"/>
      <point x="467" y="609"/>
      <point x="467" y="669" type="curve" smooth="yes"/>
      <point x="467" y="737"/>
      <point x="372" y="773"/>
      <point x="303" y="773" type="curve" smooth="yes"/>
      <point x="214" y="773"/>
      <point x="138" y="728"/>
      <point x="138" y="669" type="curve" smooth="yes"/>
      <point x="138" y="600"/>
      <point x="233" y="564"/>
    </contour>
    <contour>
      <point x="316" y="594" type="curve" smooth="yes"/>
      <point x="268" y="594"/>
      <point x="222" y="630"/>
      <point x="222" y="680" type="curve" smooth="yes"/>
      <point x="222" y="717"/>
      <point x="246" y="745"/>
      <point x="290" y="745" type="curve" smooth="yes"/>
      <point x="337" y="745"/>
      <point x="383" y="707"/>
      <point x="383" y="658" type="curve" smooth="yes"/>
      <point x="383" y="620"/>
      <point x="359" y="594"/>
    </contour>
  </outline>
</glyph>
<glyph name="hungarumlautcomb" format="2">
  <advance width="600"/>
  <unicode hex="030B"/>
  <anchor x="217" y="508" name="_top"/>
  <outline>
    <contour>
      <point x="69" y="585" type="curve"/>
      <point x="110" y="573" type="line"/>
      <point x="197" y="624"/>
      <point x="283" y="690"/>
      <point x="350" y="747" type="curve"/>
      <point x="191" y="778" type="line"/>
      <point x="147" y="719"/>
      <point x="108" y="642"/>
    </contour>
    <contour>
      <point x="289" y="585" type="curve"/>
      <point x="330" y="573" type="line"/>
      <point x="417" y="624"/>
      <point x="503" y="690"/>
      <point x="570" y="747" type="curve"/>
      <point x="411" y="778" type="line"/>
      <point x="367" y="719"/>
      <point x="328" y="642"/>
    </contour>
  </outline>
</glyph>
<glyph name="caroncomb" format="2">
  <advance width="600"/>
  <unicode hex="030C"/>
  <anchor x="300" y="508" name="_top"/>
  <outline>
    <contour>
      <point x="78" y="792" type="line"/>
      <point x="74" y="789" type="line"/>
      <point x="146" y="717"/>
      <point x="241" y="641"/>
      <point x="300" y="605" type="curve"/>
      <point x="359" y="641"/>
      <point x="452" y="716"/>
      <point x="526" y="789" type="curve"/>
      <point x="522" y="792" type="line"/>
      <point x="300" y="714" type="line"/>
    </contour>
  </outline>
</glyph>
<glyph name="commaturnedabovecomb" format="2">
  <advance width="600"/>
  <unicode hex="0312"/>
  <anchor x="300" y="508" name="_top"/>
  <outline>
    <contour>
      <point x="364" y="792" type="curve"/>
      <point x="359" y="798" type="line"/>
      <point x="282" y="765"/>
      <point x="188" y="712"/>
      <point x="188" y="634" type="curve" smooth="yes"/>
      <point x="188" y="604"/>
      <point x="209" y="559"/>
      <point x="248" y="551" type="curve"/>
      <point x="349" y="606" type="line"/>
      <point x="296" y="624"/>
      <point x="290" y="674"/>
      <point x="290" y="692" type="curve" smooth="yes"/>
      <point x="290" y="724"/>
      <point x="312" y="762"/>
    </contour>
  </outline>
</glyph>
<glyph name="commaaccentcomb" format="2">
  <advance width="600"/>
  <unicode hex="0326"/>
  <anchor x="300" y="0" name="_bottom"/>
  <outline>
    <contour>
      <point x="188" y="-293" type="curve"/>
      <point x="193" y="-299" type="line"/>
      <point x="270" y="-266"/>
      <point x="364" y="-213"/>
      <point x="364" y="-135" type="curve" smooth="yes"/>
      <point x="364" y="-105"/>
      <point x="343" y="-60"/>
      <point x="304" y="-52" type="curve"/>
      <point x="203" y="-107" type="line"/>
      <point x="256" y="-125"/>
      <point x="262" y="-175"/>
      <point x="262" y="-193" type="curve" smooth="yes"/>
      <point x="262" y="-225"/>
      <point x="240" y="-263"/>
    </contour>
  </outline>
</glyph>
<glyph name="cedillacomb" format="2">
  <advance width="600"/>
  <unicode hex="0327"/>
  <anchor x="283" y="0" name="_bottom"/>
  <outline>
    <contour>
      <point x="260" y="8" type="line"/>
      <point x="162" y="-138" type="line"/>
      <point x="249" y="-128"/>
      <point x="365" y="-128"/>
      <point x="365" y="-176" type="curve" smooth="yes"/>
      <point x="365" y="-236"/>
      <point x="249" y="-247"/>
      <point x="198" y="-249" type="curve"/>
      <point x="199" y="-262" type="line"/>
      <point x="419" y="-273"/>
      <point x="519" y="-230"/>
      <point x="519" y="-143" type="curve" smooth="yes"/>
      <point x="519" y="-68"/>
      <point x="397" y="-42"/>
      <point x="259" y="-83" type="curve"/>
      <point x="317" y="1" type="line"/>
    </contour>
  </outline>
</glyph>
<glyph name="ogonekcomb" format="2">
  <advance width="600"/>
  <unicode hex="0328"/>
  <anchor x="229" y="-8" name="_ogonek"/>
  <outline>
    <contour>
      <point x="218" y="17" type="line"/>
      <point x="119" y="3"/>
      <point x="21" y="-67"/>
      <point x="21" y="-155" type="curve" smooth="yes"/>
      <point x="21" y="-226"/>
      <point x="82" y="-276"/>
      <point x="172" y="-276" type="curve" smooth="yes"/>
      <point x="272" y="-276"/>
      <point x="321" y="-226"/>
      <point x="363" y="-150" type="curve"/>
      <point x="356" y="-147" type="line"/>
      <point x="318" y="-181"/>
      <point x="287" y="-197"/>
      <point x="245" y="-197" type="curve" smooth="yes"/>
      <point x="191" y="-197"/>
      <point x="144" y="-167"/>
      <point x="144" y="-111" type="curve" smooth="yes"/>
      <point x="144" y="-62"/>
      <point x="168" y="-29"/>
      <point x="227" y="3" type="curve"/>
    </contour>
  </outline>
</glyph>
<glyph name="endash" format="2">
  <advance width="973"/>
  <unicode hex="2013"/>
  <outline>
    <contour>
      <point x="46" y="321" type="line"/>
      <point x="46" y="265" type="line"/>
      <point x="928" y="265" type="line"/>
      <point x="928" y="321" type="line"/>
    </contour>
  </outline>
</glyph>
<glyph name="emdash" format="2">
  <advance width="1524"/>
  <unicode hex="2014"/>
  <outline>
    <contour>
      <point x="45" y="321" type="line"/>
      <point x="45" y="265" type="line"/>
      <point x="1479" y="265" type="line"/>
      <point x="1479" y="321" type="line"/>
    </contour>
  </outline>
</glyph>
<glyph name="quoteleft" format="2">
  <advance width="294"/>
  <unicode hex="2018"/>
  <outline>
    <contour>
      <point x="236" y="782" type="curve"/>
      <point x="229" y="784" type="line"/>
      <point x="96" y="724"/>
      <point x="50" y="652"/>
      <point x="50" y="575" type="curve" smooth="yes"/>
      <point x="50" y="494"/>
      <point x="116" y="440"/>
      <point x="148" y="419" type="curve"/>
      <point x="262" y="516" type="line"/>
      <point x="223" y="541"/>
      <point x="203" y="559"/>
      <point x="186" y="589" type="curve" smooth="yes"/>
      <point x="153" y="647"/>
      <point x="168" y="729"/>
    </contour>
  </outline>
</glyph>
<glyph name="quoteright" format="2">
  <advance width="312"/>
  <unicode hex="2019"/>
  <outline>
    <contour>
      <point x="76" y="421" type="curve"/>
      <point x="83" y="419" type="line"/>
      <point x="216" y="479"/>
      <point x="262" y="551"/>
      <point x="262" y="628" type="curve" smooth="yes"/>
      <point x="262" y="709"/>
      <point x="196" y="763"/>
      <point x="164" y="784" type="curve"/>
      <point x="50" y="687" type="line"/>
      <point x="89" y="662"/>
      <point x="109" y="644"/>
      <point x="126" y="614" type="curve" smooth="yes"/>
      <point x="159" y="556"/>
      <point x="144" y="474"/>
    </contour>
  </outline>
</glyph>
<glyph name="quotedblleft" format="2">
  <advance width="504"/>
  <unicode hex="201C"/>
  <outline>
    <contour>
      <point x="214" y="782" type="curve"/>
      <point x="207" y="784" type="line"/>
      <point x="74" y="724"/>
      <point x="28" y="652"/>
      <point x="28" y="575" type="curve" smooth="yes"/>
      <point x="28" y="494"/>
      <point x="94" y="440"/>
      <point x="126" y="419" type="curve"/>
      <point x="240" y="516" type="line"/>
      <point x="201" y="541"/>
      <point x="181" y="559"/>
      <point x="164" y="589" type="curve" smooth="yes"/>
      <point x="131" y="647"/>
      <point x="146" y="729"/>
    </contour>
    <contour>
      <point x="469" y="782" type="curve"/>
      <point x="462" y="784" type="line"/>
      <point x="330" y="727"/>
      <point x="283" y="653"/>
      <point x="283" y="575" type="curve" smooth="yes"/>
      <point x="283" y="494"/>
      <point x="349" y="440"/>
      <point x="382" y="419" type="curve"/>
      <point x="495" y="516" type="line"/>
      <point x="456" y="541"/>
      <point x="437" y="559"/>
      <point x="420" y="589" type="curve" smooth="yes"/>
      <point x="387" y="647"/>
      <point x="401" y="729"/>
    </contour>
  </outline>
</glyph>
<glyph name="quotedblright" format="2">
  <advance width="600"/>
  <unicode hex="201D"/>
  <outline>
    <contour>
      <point x="309" y="421" type="curve"/>
      <point x="316" y="419" type="line"/>
      <point x="449" y="479"/>
      <point x="495" y="551"/>
      <point x="495" y="628" type="curve" smooth="yes"/>
      <point x="495" y="709"/>
      <point x="429" y="763"/>
      <point x="397" y="784" type="curve"/>
      <point x="283" y="687" type="line"/>
      <point x="322" y="662"/>
      <point x="342" y="644"/>
      <point x="359" y="614" type="curve" smooth="yes"/>
      <point x="392" y="556"/>
      <point x="377" y="474"/>
    </contour>
    <contour>
      <point x="54" y="421" type="curve"/>
      <point x="61" y="419" type="line"/>
      <point x="193" y="476"/>
      <point x="240" y="550"/>
      <point x="240" y="628" type="curve" smooth="yes"/>
      <point x="240" y="709"/>
      <point x="174" y="763"/>
      <point x="141" y="784" type="curve"/>
      <point x="28" y="687" type="line"/>
      <point x="67" y="662"/>
      <point x="86" y="644"/>
      <point x="103" y="614" type="curve" smooth="yes"/>
      <point x="136" y="556"/>
      <point x="122" y="474"/>
    </contour>
  </outline>
</glyph>
<glyph name="daggerdbl" format="2">
  <advance width="600"/>
  <unicode hex="2021"/>
  <outline>
    <contour>
      <point x="339" y="-230" type="line"/>
      <point x="338" y="-216"/>
      <point x="336" y="-167"/>
      <point x="335" y="-115"/>
      <point x="335" y="-66"/>
      <point x="335" y="-21" type="qcurve" smooth="yes"/>
      <point x="335" y="531" type="line" smooth="yes"/>
      <point x="335" y="586"/>
      <point x="335" y="635"/>
      <point x="336" y="687"/>
      <point x="338" y="736"/>
      <point x="339" y="750" type="qcurve"/>
      <point x="262" y="750" type="line"/>
      <point x="263" y="736"/>
      <point x="265" y="687"/>
      <point x="267" y="635"/>
      <point x="267" y="586"/>
      <point x="267" y="531" type="qcurve" smooth="yes"/>
      <point x="267" y="-21" type="line" smooth="yes"/>
      <point x="267" y="-66"/>
      <point x="267" y="-115"/>
      <point x="265" y="-167"/>
      <point x="263" y="-216"/>
      <point x="262" y="-230" type="qcurve"/>
    </contour>
    <contour>
      <point x="70" y="452" type="line"/>
      <point x="84" y="453"/>
      <point x="133" y="455"/>
      <point x="175" y="456"/>
      <point x="224" y="456"/>
      <point x="269" y="456" type="qcurve" smooth="yes"/>
      <point x="332" y="456" type="line" smooth="yes"/>
      <point x="387" y="456"/>
      <point x="426" y="456"/>
      <point x="478" y="455"/>
      <point x="527" y="453"/>
      <point x="541" y="452" type="qcurve"/>
      <point x="541" y="509" type="line"/>
      <point x="527" y="508"/>
      <point x="478" y="506"/>
      <point x="426" y="504"/>
      <point x="387" y="504"/>
      <point x="332" y="504" type="qcurve" smooth="yes"/>
      <point x="269" y="504" type="line" smooth="yes"/>
      <point x="224" y="504"/>
      <point x="175" y="504"/>
      <point x="133" y="506"/>
      <point x="84" y="508"/>
      <point x="70" y="509" type="qcurve"/>
    </contour>
    <contour>
      <point x="70" y="252" type="line"/>
      <point x="84" y="253"/>
      <point x="133" y="255"/>
      <point x="175" y="256"/>
      <point x="224" y="256"/>
      <point x="269" y="256" type="qcurve" smooth="yes"/>
      <point x="332" y="256" type="line" smooth="yes"/>
      <point x="387" y="256"/>
      <point x="426" y="256"/>
      <point x="478" y="255"/>
      <point x="527" y="253"/>
      <point x="541" y="252" type="qcurve"/>
      <point x="541" y="309" type="line"/>
      <point x="527" y="308"/>
      <point x="478" y="306"/>
      <point x="426" y="304"/>
      <point x="387" y="304"/>
      <point x="332" y="304" type="qcurve" smooth="yes"/>
      <point x="269" y="304" type="line" smooth="yes"/>
      <point x="224" y="304"/>
      <point x="175" y="304"/>
      <point x="133" y="306"/>
      <point x="84" y="308"/>
      <point x="70" y="309" type="qcurve"/>
    </contour>
  </outline>
</glyph>
<glyph name="bullet" format="2">
  <advance width="394"/>
  <unicode hex="2022"/>
  <outline>
    <contour>
      <point x="197" y="191" type="curve" smooth="yes"/>
      <point x="273" y="191"/>
      <point x="334" y="252"/>
      <point x="334" y="328" type="curve" smooth="yes"/>
      <point x="334" y="404"/>
      <point x="273" y="465"/>
      <point x="197" y="465" type="curve" smooth="yes"/>
      <point x="121" y="465"/>
      <point x="60" y="404"/>
      <point x="60" y="328" type="curve" smooth="yes"/>
      <point x="60" y="252"/>
      <point x="121" y="191"/>
    </contour>
  </outline>
</glyph>
<glyph name="guilsinglleft" format="2">
  <advance width="546"/>
  <unicode hex="2039"/>
  <outline>
    <contour>
      <point x="70" y="256" type="line"/>
      <point x="506" y="479" type="line"/>
      <point x="254" y="256" type="line"/>
      <point x="506" y="34" type="line"/>
    </contour>
  </outline>
</glyph>
<glyph name="guilsinglright" format="2">
  <advance width="546"/>
  <unicode hex="203A"/>
  <outline>
    <contour>
      <point x="476" y="256" type="line"/>
      <point x="40" y="34" type="line"/>
      <point x="292" y="256" type="line"/>
      <point x="40" y="479" type="line"/>
    </contour>
  </outline>
</glyph>
<glyph name="fraction" format="2">
  <advance width="881"/>
  <unicode hex="2044"/>
  <outline>
    <contour>
      <point x="160" y="0" type="line"/>
      <point x="181" y="29"/>
      <point x="221" y="73"/>
      <point x="245" y="97" type="qcurve" smooth="yes"/>
      <point x="712" y="574" type="line" smooth="yes"/>
      <point x="736" y="598"/>
      <point x="787" y="650"/>
      <point x="821" y="676" type="qcurve"/>
      <point x="728" y="676" type="line"/>
      <point x="710" y="652"/>
      <point x="660" y="598"/>
      <point x="636" y="574" type="qcurve" smooth="yes"/>
      <point x="169" y="97" type="line" smooth="yes"/>
      <point x="145" y="73"/>
      <point x="97" y="26"/>
      <point x="60" y="0" type="qcurve"/>
    </contour>
  </outline>
</glyph>
<glyph name="zerosuperior" format="2">
  <advance width="476"/>
  <unicode hex="2070"/>
  <outline>
    <contour>
      <point x="232" y="424" type="curve" smooth="yes"/>
      <point x="362" y="424"/>
      <point x="444" y="497"/>
      <point x="444" y="569" type="curve" smooth="yes"/>
      <point x="444" y="644"/>
      <point x="367" y="708"/>
      <point x="234" y="708" type="curve" smooth="yes"/>
      <point x="104" y="708"/>
      <point x="22" y="632"/>
      <point x="22" y="559" type="curve" smooth="yes"/>
      <point x="22" y="484"/>
      <point x="99" y="424"/>
    </contour>
    <contour>
      <point x="249" y="461" type="curve" smooth="yes"/>
      <point x="198" y="461"/>
      <point x="142" y="507"/>
      <point x="142" y="579" type="curve" smooth="yes"/>
      <point x="142" y="637"/>
      <point x="173" y="671"/>
      <point x="220" y="671" type="curve" smooth="yes"/>
      <point x="272" y="671"/>
      <point x="324" y="618"/>
      <point x="324" y="551" type="curve" smooth="yes"/>
      <point x="324" y="495"/>
      <point x="300" y="461"/>
    </contour>
  </outline>
</glyph>
<glyph name="foursuperior" format="2">
  <advance width="439"/>
  <unicode hex="2074"/>
  <outline>
    <contour>
      <point x="228" y="700" type="line"/>
      <point x="0" y="492" type="line"/>
      <point x="233" y="492" type="line"/>
      <point x="233" y="489" type="line" smooth="yes"/>
      <point x="233" y="435"/>
      <point x="221" y="424"/>
      <point x="221" y="424" type="curve"/>
      <point x="384" y="424" type="line"/>
      <point x="384" y="424"/>
      <point x="373" y="437"/>
      <point x="373" y="490" type="curve" smooth="yes"/>
      <point x="373" y="492" type="line"/>
      <point x="392" y="492"/>
      <point x="410" y="492"/>
      <point x="429" y="488" type="curve"/>
      <point x="429" y="537" type="line"/>
      <point x="410" y="533"/>
      <point x="392" y="533"/>
      <point x="373" y="533" type="curve"/>
      <point x="373" y="647" type="line"/>
      <point x="373" y="664"/>
      <point x="373" y="694"/>
      <point x="380" y="712" type="curve"/>
    </contour>
    <contour>
      <point x="85" y="533" type="line"/>
      <point x="229" y="660" type="line"/>
      <point x="233" y="649"/>
      <point x="233" y="638"/>
      <point x="233" y="626" type="curve"/>
      <point x="233" y="533" type="line"/>
    </contour>
  </outline>
</glyph>
<glyph name="euro" format="2">
  <advance width="1182"/>
  <unicode hex="20AC"/>
  <outline>
    <contour>
      <point x="1142" y="136" type="curve"/>
      <point x="1142" y="167" type="line"/>
      <point x="1034" y="92"/>
      <point x="934" y="71"/>
      <point x="787" y="71" type="curve" smooth="yes"/>
      <point x="576" y="71"/>
      <point x="431" y="187"/>
      <point x="431" y="393" type="curve" smooth="yes"/>
      <point x="431" y="563"/>
      <point x="521" y="648"/>
      <point x="685" y="648" type="curve" smooth="yes"/>
      <point x="825" y="648"/>
      <point x="975" y="609"/>
      <point x="1116" y="490" type="curve"/>
      <point x="1116" y="663" type="line"/>
      <point x="1078" y="675"/>
      <point x="958" y="712"/>
      <point x="767" y="712" type="curve" smooth="yes"/>
      <point x="463" y="712"/>
      <point x="179" y="569"/>
      <point x="179" y="309" type="curve" smooth="yes"/>
      <point x="179" y="118"/>
      <point x="362" y="-15"/>
      <point x="649" y="-15" type="curve" smooth="yes"/>
      <point x="935" y="-15"/>
      <point x="1076" y="65"/>
    </contour>
    <contour>
      <point x="830" y="420" type="line"/>
      <point x="40" y="420" type="line"/>
      <point x="40" y="374" type="line"/>
      <point x="830" y="374" type="line"/>
    </contour>
    <contour>
      <point x="830" y="295" type="line"/>
      <point x="40" y="295" type="line"/>
      <point x="40" y="249" type="line"/>
      <point x="830" y="249" type="line"/>
    </contour>
  </outline>
</glyph>
<glyph name="trademark" format="2">
  <advance width="1025"/>
  <unicode hex="2122"/>
  <outline>
    <contour>
      <point x="275" y="702" type="curve" smooth="yes"/>
      <point x="225" y="703"/>
      <point x="136" y="702"/>
      <point x="99" y="704" type="curve"/>
      <point x="80" y="611" type="line"/>
      <point x="83" y="608" type="line"/>
      <point x="118" y="650"/>
      <point x="166" y="675"/>
      <point x="234" y="681" type="curve"/>
      <point x="235" y="671"/>
      <point x="236" y="655"/>
      <point x="236" y="637" type="curve" smooth="yes"/>
      <point x="236" y="498" type="line" smooth="yes"/>
      <point x="236" y="447"/>
      <point x="229" y="433"/>
      <point x="229" y="433" type="curve"/>
      <point x="323" y="433" type="line"/>
      <point x="323" y="433"/>
      <point x="314" y="447"/>
      <point x="314" y="498" type="curve" smooth="yes"/>
      <point x="314" y="637" type="line" smooth="yes"/>
      <point x="314" y="655"/>
      <point x="316" y="671"/>
      <point x="317" y="681" type="curve"/>
      <point x="384" y="675"/>
      <point x="432" y="650"/>
      <point x="467" y="608" type="curve"/>
      <point x="471" y="611" type="line"/>
      <point x="452" y="704" type="line"/>
      <point x="414" y="702"/>
      <point x="325" y="703"/>
    </contour>
    <contour>
      <point x="477" y="433" type="curve"/>
      <point x="511" y="433" type="line"/>
      <point x="511" y="445"/>
      <point x="511" y="469"/>
      <point x="516" y="486" type="curve" smooth="yes"/>
      <point x="558" y="651" type="line"/>
      <point x="670" y="433" type="line"/>
      <point x="690" y="433" type="line"/>
      <point x="779" y="651" type="line"/>
      <point x="779" y="646"/>
      <point x="780" y="641"/>
      <point x="783" y="634" type="curve" smooth="yes"/>
      <point x="833" y="486" type="line" smooth="yes"/>
      <point x="840" y="467"/>
      <point x="843" y="455"/>
      <point x="844" y="433" type="curve"/>
      <point x="945" y="433" type="line"/>
      <point x="932" y="455"/>
      <point x="921" y="481"/>
      <point x="912" y="512" type="curve" smooth="yes"/>
      <point x="873" y="625" type="line" smooth="yes"/>
      <point x="862" y="658"/>
      <point x="856" y="680"/>
      <point x="859" y="700" type="curve"/>
      <point x="760" y="700" type="line"/>
      <point x="765" y="687"/>
      <point x="768" y="678"/>
      <point x="762" y="663" type="curve" smooth="yes"/>
      <point x="706" y="527" type="line"/>
      <point x="661" y="614" type="line" smooth="yes"/>
      <point x="648" y="641"/>
      <point x="629" y="679"/>
      <point x="624" y="699" type="curve"/>
      <point x="525" y="699" type="line"/>
      <point x="530" y="693"/>
      <point x="540" y="686"/>
      <point x="543" y="679" type="curve"/>
      <point x="496" y="494" type="line" smooth="yes"/>
      <point x="493" y="480"/>
      <point x="483" y="449"/>
    </contour>
  </outline>
</glyph>
<glyph name="minus" format="2">
  <advance width="932"/>
  <unicode hex="2212"/>
  <outline>
    <contour>
      <point x="872" y="303" type="line"/>
      <point x="60" y="303" type="line"/>
      <point x="60" y="257" type="line"/>
      <point x="872" y="257" type="line"/>
    </contour>
  </outline>
</glyph>
<glyph name="approxequal" format="2">
  <advance width="788"/>
  <unicode hex="2248"/>
  <outline>
    <contour>
      <point x="70" y="309" type="curve"/>
      <point x="73" y="303" type="line"/>
      <point x="88" y="329"/>
      <point x="136" y="347"/>
      <point x="197" y="347" type="curve" smooth="yes"/>
      <point x="288" y="347"/>
      <point x="445" y="303"/>
      <point x="554" y="303" type="curve" smooth="yes"/>
      <point x="643" y="303"/>
      <point x="702" y="364"/>
      <point x="718" y="429" type="curve"/>
      <point x="715" y="435" type="line"/>
      <point x="699" y="409"/>
      <point x="652" y="391"/>
      <point x="600" y="391" type="curve" smooth="yes"/>
      <point x="474" y="391"/>
      <point x="343" y="435"/>
      <point x="231" y="435" type="curve" smooth="yes"/>
      <point x="139" y="435"/>
      <point x="85" y="364"/>
    </contour>
    <contour>
      <point x="70" y="119" type="curve"/>
      <point x="73" y="113" type="line"/>
      <point x="88" y="139"/>
      <point x="136" y="157"/>
      <point x="197" y="157" type="curve" smooth="yes"/>
      <point x="288" y="157"/>
      <point x="445" y="113"/>
      <point x="554" y="113" type="curve" smooth="yes"/>
      <point x="643" y="113"/>
      <point x="702" y="174"/>
      <point x="718" y="239" type="curve"/>
      <point x="715" y="245" type="line"/>
      <point x="699" y="219"/>
      <point x="652" y="201"/>
      <point x="600" y="201" type="curve" smooth="yes"/>
      <point x="474" y="201"/>
      <point x="343" y="245"/>
      <point x="231" y="245" type="curve" smooth="yes"/>
      <point x="139" y="245"/>
      <point x="85" y="174"/>
    </contour>
  </outline>
</glyph>
<glyph name="notequal" format="2">
  <advance width="912"/>
  <unicode hex="2260"/>
  <outline>
    <contour>
      <point x="320" y="86" type="line"/>
      <point x="680" y="466" type="line"/>
      <point x="616" y="466" type="line"/>
      <point x="256" y="86" type="line"/>
    </contour>
    <contour>
      <point x="852" y="380" type="line"/>
      <point x="60" y="380" type="line"/>
      <point x="60" y="334" type="line"/>
      <point x="852" y="334" type="line"/>
    </contour>
    <contour>
      <point x="852" y="205" type="line"/>
      <point x="60" y="205" type="line"/>
      <point x="60" y="159" type="line"/>
      <point x="852" y="159" type="line"/>
    </contour>
  </outline>
</glyph>
<glyph name="lessequal" format="2">
  <advance width="921"/>
  <unicode hex="2264"/>
  <outline>
    <contour>
      <point x="851" y="159" type="line"/>
      <point x="851" y="205" type="line"/>
      <point x="71" y="205" type="line"/>
      <point x="71" y="159" type="line"/>
    </contour>
    <contour>
      <point x="850" y="667" type="line"/>
      <point x="116" y="485" type="line"/>
      <point x="850" y="301" type="line"/>
      <point x="850" y="255" type="line"/>
      <point x="70" y="462" type="line"/>
      <point x="70" y="508" type="line"/>
      <point x="850" y="713" type="line"/>
    </contour>
  </outline>
</glyph>
<glyph name="greaterequal" format="2">
  <advance width="921"/>
  <unicode hex="2265"/>
  <outline>
    <contour>
      <point x="70" y="159" type="line"/>
      <point x="850" y="159" type="line"/>
      <point x="850" y="205" type="line"/>
      <point x="70" y="205" type="line"/>
    </contour>
    <contour>
      <point x="71" y="667" type="line"/>
      <point x="71" y="713" type="line"/>
      <point x="851" y="508" type="line"/>
      <point x="851" y="462" type="line"/>
      <point x="71" y="255" type="line"/>
      <point x="71" y="301" type="line"/>
      <point x="805" y="485" type="line"/>
    </contour>
  </outline>
</glyph>
<glyph name="acutecomb.case" format="2">
  <advance width="600"/>
  <anchor x="254" y="700" name="_top"/>
  <outline>
    <contour>
      <point x="172" y="779" type="curve"/>
      <point x="211" y="763" type="line"/>
      <point x="303" y="805"/>
      <point x="396" y="861"/>
      <point x="468" y="911" type="curve"/>
      <point x="313" y="958" type="line"/>
      <point x="263" y="904"/>
      <point x="217" y="832"/>
    </contour>
  </outline>
</glyph>
<glyph name="caroncomb.alt" format="2">
  <advance width="600"/>
  <anchor x="296" y="508" name="_topright"/>
  <outline>
    <contour>
      <point x="288" y="572" type="curve"/>
      <point x="354" y="567" type="line"/>
      <point x="385" y="637"/>
      <point x="409" y="701"/>
      <point x="431" y="761" type="curve"/>
      <point x="325" y="769" type="line"/>
      <point x="314" y="712"/>
      <point x="300" y="640"/>
    </contour>
  </outline>
</glyph>
<glyph name="caroncomb.case" format="2">
  <advance width="600"/>
  <anchor x="300" y="700" name="_top"/>
  <outline>
    <contour>
      <point x="78" y="972" type="line"/>
      <point x="74" y="969" type="line"/>
      <point x="146" y="897"/>
      <point x="241" y="821"/>
      <point x="300" y="785" type="curve"/>
      <point x="359" y="821"/>
      <point x="452" y="896"/>
      <point x="526" y="969" type="curve"/>
      <point x="522" y="972" type="line"/>
      <point x="300" y="894" type="line"/>
    </contour>
  </outline>
</glyph>
